<svg xmlns="http://www.w3.org/2000/svg" xmlns:xlink="http://www.w3.org/1999/xlink" viewBox="0 0 667.95 427.22"><defs><style>.cls-1,.cls-16,.cls-17,.cls-23{fill:none;}.cls-2{isolation:isolate;}.cls-15,.cls-3,.cls-8{fill:#e0f2f1;}.cls-4{fill:#004d40;}.cls-11,.cls-5{fill:#006064;}.cls-24,.cls-28,.cls-6{fill:#ffccbc;}.cls-7{clip-path:url(#clip-path);}.cls-11,.cls-12,.cls-14,.cls-15,.cls-16,.cls-18,.cls-19,.cls-21,.cls-22,.cls-23,.cls-24,.cls-25,.cls-27,.cls-28,.cls-8{stroke:#004d40;}.cls-11,.cls-12,.cls-14,.cls-15,.cls-16,.cls-17,.cls-18,.cls-19,.cls-21,.cls-22,.cls-23,.cls-24,.cls-25,.cls-28,.cls-8{stroke-linecap:round;}.cls-11,.cls-14,.cls-15,.cls-16,.cls-17,.cls-19,.cls-21,.cls-25,.cls-27,.cls-8{stroke-linejoin:round;}.cls-8{stroke-width:6.43px;}.cls-9{opacity:0.1;mix-blend-mode:overlay;}.cls-10,.cls-18{fill:#ff5252;}.cls-11,.cls-12,.cls-14,.cls-15,.cls-16,.cls-17,.cls-18,.cls-19,.cls-21,.cls-22,.cls-23,.cls-25,.cls-27,.cls-28{stroke-width:6px;}.cls-12,.cls-14{fill:#fbe9e7;}.cls-12,.cls-22,.cls-23,.cls-24,.cls-28{stroke-miterlimit:10;}.cls-13{clip-path:url(#clip-path-2);}.cls-17{stroke:#e0f2f1;}.cls-18{stroke-linejoin:bevel;}.cls-19{fill:#ff6f40;}.cls-20,.cls-22{fill:#00b0ff;}.cls-21{fill:#00e676;}.cls-24{stroke-width:12px;}.cls-25{fill:#ffea00;}.cls-26{fill:#ff8a80;}.cls-27{fill:#ffd600;}</style><clipPath id="clip-path" transform="translate(-166.44 -136.39)"><rect class="cls-1" x="383.94" y="405.77" width="143.97" height="14" rx="7" ry="7" transform="translate(947.55 43.25) rotate(100.91)"/></clipPath><clipPath id="clip-path-2" transform="translate(-166.44 -136.39)"><path class="cls-1" d="M494.53,402l-39.42-39.43L479.66,338a7,7,0,0,0-9.9-9.9l-29.34,29.34a7.44,7.44,0,0,0,0,10.22l44.21,44.22a7,7,0,0,0,9.9-9.9Z"/></clipPath></defs><title>BIC001 - Active Kids - V01</title><g class="cls-2"><g id="Artwork"><path class="cls-3" d="M328.32,557.59a83,83,0,1,1,83-83A83.13,83.13,0,0,1,328.32,557.59Z" transform="translate(-166.44 -136.39)"/><path class="cls-4" d="M328.32,397.51a77,77,0,1,1-77,77,77,77,0,0,1,77-77m0-12a89,89,0,1,0,89,89,89.14,89.14,0,0,0-89-89Z" transform="translate(-166.44 -136.39)"/><path class="cls-5" d="M306.34,359.47a8.36,8.36,0,0,1,0-16.73H319.7a8.36,8.36,0,0,1,0,16.73Z" transform="translate(-166.44 -136.39)"/><path class="cls-4" d="M319.7,345.74a5.36,5.36,0,0,1,0,10.73H306.34a5.36,5.36,0,0,1,0-10.73H319.7m0-6H306.34a11.36,11.36,0,0,0,0,22.73H319.7a11.36,11.36,0,0,0,0-22.73Z" transform="translate(-166.44 -136.39)"/><path class="cls-6" d="M443.61,486.58a10,10,0,0,1-9.81-11.89l24.61-127.62A10,10,0,0,1,478,350.85L453.44,478.47A10,10,0,0,1,443.61,486.58Z" transform="translate(-166.44 -136.39)"/><path class="cls-4" d="M468.23,342a7,7,0,0,1,6.87,8.33L450.49,477.9a7,7,0,0,1-8.2,5.55h0a7,7,0,0,1-5.55-8.2l24.61-127.62a7,7,0,0,1,6.88-5.67m0-6h0a13,13,0,0,0-12.77,10.54L430.85,474.12A13,13,0,0,0,456.38,479L481,351.42A13,13,0,0,0,468.23,336Z" transform="translate(-166.44 -136.39)"/><g class="cls-7"><polygon class="cls-8" points="268.73 319.44 291.95 323.81 286.33 354.71 262.79 352.11 262.24 339.45 268.73 319.44"/></g><path class="cls-4" d="M409.51,489.1c-3.62,0-6.31-2.06-7-5.25a2.49,2.49,0,0,1-.19-1v-.78a2.49,2.49,0,0,1,.19-1c.71-3.16,3.38-5.22,7-5.25l36.64-2h.14c4.53,0,8.22,3.13,8.22,7v1.22c0,3.85-3.69,7-8.22,7Z" transform="translate(-166.44 -136.39)"/><path class="cls-4" d="M446.21,476.4c3.16,0,5.73,2,5.73,4.49v1.22c0,2.48-2.57,4.49-5.73,4.49h-36.7c-3,0-4.56-1.8-4.72-4.1.16-2.3,1.72-4.1,4.72-4.1l36.7-2m-41.43,5.71q0,.2,0,.39t0,.39v-.78m41.43-10.69h-.27l-36.58,2a9.26,9.26,0,0,0-9.26,7,5,5,0,0,0-.3,1.7v.78a5,5,0,0,0,.3,1.7,9.28,9.28,0,0,0,9.42,7h36.7c5.91,0,10.71-4.25,10.71-9.48V480.9c0-5.23-4.81-9.48-10.71-9.48Z" transform="translate(-166.44 -136.39)"/><path class="cls-5" d="M328.32,494.31a19,19,0,1,1,19-19A19.07,19.07,0,0,1,328.32,494.31Z" transform="translate(-166.44 -136.39)"/><path class="cls-4" d="M328.32,459.22a16,16,0,1,1-16,16,16,16,0,0,1,16-16m0-6a22,22,0,1,0,22,22,22.07,22.07,0,0,0-22-22Z" transform="translate(-166.44 -136.39)"/><path class="cls-5" d="M480.44,504.1a28.83,28.83,0,1,1,28.83-28.83A28.87,28.87,0,0,1,480.44,504.1Z" transform="translate(-166.44 -136.39)"/><path class="cls-4" d="M480.44,449.43a25.83,25.83,0,1,1-25.83,25.83,25.83,25.83,0,0,1,25.83-25.83m0-6a31.83,31.83,0,1,0,31.83,31.83,31.87,31.87,0,0,0-31.83-31.83Z" transform="translate(-166.44 -136.39)"/><g class="cls-9"><circle cx="314" cy="338.87" r="25.83"/></g><path class="cls-3" d="M635.24,557.59a83,83,0,1,1,83-83A83.13,83.13,0,0,1,635.24,557.59Z" transform="translate(-166.44 -136.39)"/><path class="cls-4" d="M635.24,397.51a77,77,0,1,1-77,77,77,77,0,0,1,77-77m0-12a89,89,0,1,0,89,89,89.14,89.14,0,0,0-89-89Z" transform="translate(-166.44 -136.39)"/><path class="cls-10" d="M328.13,483.35a7.5,7.5,0,0,1-7.05-10L361.87,359a7.52,7.52,0,0,1,7.07-5,7.44,7.44,0,0,1,1.77.21,7.57,7.57,0,0,1,2.34-.37,7.4,7.4,0,0,1,5.39,2.29l106.38,110.7a7.49,7.49,0,0,1-5.41,12.69h0a7.53,7.53,0,0,1-5.41-2.3L375.1,374.3l-3,.52L335.21,478.37A7.52,7.52,0,0,1,328.13,483.35Z" transform="translate(-166.44 -136.39)"/><path class="cls-4" d="M373.06,356.86a4.46,4.46,0,0,1,3.23,1.37l106.38,110.7a4.5,4.5,0,0,1-6.49,6.24l-100-104.09-6.25,1.11L332.38,477.36a4.52,4.52,0,0,1-4.25,3,4.46,4.46,0,0,1-1.5-.26,4.51,4.51,0,0,1-2.73-5.75L364.7,360a4.52,4.52,0,0,1,4.25-3,4.46,4.46,0,0,1,1.5.26c.13,0,.24.12.37.17a4.54,4.54,0,0,1,2.25-.59m0-6a10.56,10.56,0,0,0-2.46.29A10.51,10.51,0,0,0,359,358L318.25,472.32A10.5,10.5,0,0,0,338,479.38l36.25-101.61,97.57,101.55a10.51,10.51,0,0,0,14.85.3,10.51,10.51,0,0,0,.3-14.85L380.61,354.07a10.52,10.52,0,0,0-7.55-3.21Z" transform="translate(-166.44 -136.39)"/><path class="cls-10" d="M639.09,472.89a7.53,7.53,0,0,1-5.41-2.3L527.3,359.89a7.49,7.49,0,0,1,5.41-12.69,7.54,7.54,0,0,1,5.41,2.3L644.5,460.2a7.49,7.49,0,0,1-5.41,12.69Z" transform="translate(-166.44 -136.39)"/><path class="cls-4" d="M532.71,350.2a4.49,4.49,0,0,1,3.25,1.38l106.38,110.7a4.5,4.5,0,0,1-6.49,6.24L529.47,357.81a4.51,4.51,0,0,1,.13-6.36h0a4.48,4.48,0,0,1,3.12-1.25m0-6A10.49,10.49,0,0,0,525.14,362l106.38,110.7a10.5,10.5,0,0,0,15.14-14.55L540.28,347.42a10.55,10.55,0,0,0-7.57-3.22Z" transform="translate(-166.44 -136.39)"/><path class="cls-10" d="M480.63,480.75a7.51,7.51,0,0,1-6.88-10.46L520.7,361.18H342.81a7.5,7.5,0,1,1,0-15H527.15l10.7-24.87a7.5,7.5,0,0,1,13.78,5.93l-64.1,149a7.5,7.5,0,0,1-6.9,4.53Z" transform="translate(-166.44 -136.39)"/><path class="cls-4" d="M544.75,319.78a4.46,4.46,0,0,1,1.77.36,4.51,4.51,0,0,1,2.35,5.91l-64.1,149a4.52,4.52,0,0,1-4.15,2.72,4.46,4.46,0,0,1-1.77-.36,4.51,4.51,0,0,1-2.35-5.91l48.75-113.29H342.81a4.5,4.5,0,1,1,0-9H529.13l11.48-26.68a4.52,4.52,0,0,1,4.15-2.72m0-6a10.5,10.5,0,0,0-9.66,6.35l-9.92,23.05H342.81a10.5,10.5,0,1,0,0,21H516.14L471,469.1a10.5,10.5,0,0,0,19.29,8.3l64.1-149a10.5,10.5,0,0,0-9.63-14.65Z" transform="translate(-166.44 -136.39)"/><path class="cls-4" d="M479.79,434.76a39.74,39.74,0,0,0-11.61,1.73,3,3,0,0,0,1.75,5.74,33.64,33.64,0,0,1,6.92-1.34h2.94a3,3,0,0,0,0-6ZM459.27,441a3,3,0,0,0-1.67.51,40.38,40.38,0,0,0-8.67,7.86,3,3,0,1,0,4.63,3.82h0v0h0l0,0h0v0h0l0,0h0v0h0v0h0l0,0h0l0,0h0l0,0h0l0,0h0l0,0h0l0,0h0l0,0h0l0,0h0l0,0h0l0,0h0l0,0h0l0,0h0l0,0h0l0,0h0l0,0h0l0,0h0l0,0h0l0,0h0l0,0h0l0,0h0l0,0h0l0,0h0l0,0h0l0,0h0l0,0h0v0h0l0,0h0v0h0v0h0l0,0h0l0,0h0l0,0h0v0h0l0,0h0l0,0h0l0,0h0l0,0h0l0,0h0l0,0h0l0,0h0l0,0h0l0,0h0l0,0h0l0,0h0l0,0h0l0,0h0l0,0h0l0,0h0l0,0h0l0,0h0l0,0h0l0,0h0l0,0h0l0,0h0l0,0h0l0,0h0l0,0h0l.05-.05h0l.05-.05h0l.05-.05h0l.05-.05h0l.06-.05h0a34.41,34.41,0,0,1,4.88-4,3,3,0,0,0-1.68-5.49Zm-13.63,16.55a3,3,0,0,0-2.77,1.84A39.64,39.64,0,0,0,440,470.79a3,3,0,0,0,2.69,3.28l.3,0a3,3,0,0,0,3-2.7,33.62,33.62,0,0,1,.94-5.21h0v-.05h0v0h0v-.05h0v0h0v0h0v0h0v0h0v0h0v0h0v0h0v0h0v0h0v0h0v0h0v0h0v0h0v0h0v0h0v0h0v0h0v0h0l0-.07h0a33.7,33.7,0,0,1,1.27-3.58,3,3,0,0,0-2.77-4.16Zm-2.34,21.28a3,3,0,0,0-3,3.5A39.68,39.68,0,0,0,444,493.51a3,3,0,0,0,5.37-2.67,33.69,33.69,0,0,1-3.09-9.49,3,3,0,0,0-3-2.5Zm9.55,19.21a3,3,0,0,0-2.19,5.05,40.33,40.33,0,0,0,9.17,7.28,3,3,0,1,0,3-5.19,34.33,34.33,0,0,1-6.33-4.72h0l-.09-.09h0l0,0h0l0,0h0l-.05,0h0l-.05,0h0l-.05,0h0l0,0h0l0,0h0l0,0h0l0,0h0l0,0h0l0,0h0l0,0h0l0,0h0l0,0h0l0,0,0,0h0l0,0,0,0h0l0,0h0l0,0h0l0,0v0h0l0,0h0l0,0h0l0,0h0l0,0h0l0,0h0l0,0h0l0,0h0l0,0h0l0,0h0l0,0h0l0,0h0l0,0h0l0,0h0l0,0h0l0,0h0l0,0h0a3,3,0,0,0-2.19-.95Zm18.57,10.74a3,3,0,0,0-.68,5.92,39.88,39.88,0,0,0,9.06,1h.37l2.24-.14a3,3,0,0,0-.18-6H482l-2.24.14h-4.36l-.15,0h-.06l-.18,0h0q-1.48-.21-2.92-.55a3,3,0,0,0-.68-.08Zm30.76-.43H502L492,509a3,3,0,0,0,.18,6h.19l10-.62a3,3,0,0,0-.18-6Zm20-1.25H522l-8.42.53h-.45l-1.12.07a3,3,0,0,0,.18,6h.19l10-.62a3,3,0,0,0-.18-6Zm20-1.25h-.19l-4.72.29h0l-5.23.33a3,3,0,0,0,.19,6h.19l10-.62a3,3,0,0,0-.18-6Zm20-1.25h-.19l-2.73.17h-.29l-7,.44a3,3,0,0,0,.18,6h.19l10-.62a3,3,0,0,0-.18-6Zm20-1.25h-.18l-10,.62a3,3,0,0,0,.19,6h.19l10-.62a3,3,0,0,0-.18-6Zm20-1.25h-.19l-10,.62a3,3,0,0,0,.18,6h.19l10-.62a3,3,0,0,0-.18-6Zm20-1.25h-.18l-10,.62a3,3,0,0,0,.19,6h.19l10-.62a3,3,0,0,0-.18-6Zm20.27-1.4a3,3,0,0,0-.5,0q-.92.16-1.89.24h-.29l-7.79.49a3,3,0,0,0,.18,6h.19l8.06-.5h.11c.82-.07,1.64-.17,2.44-.31a3,3,0,0,0-.5-6Zm17.43-13.35a3,3,0,0,0-2.68,1.66,24.63,24.63,0,0,1-1.6,2.74h0l0,.07h0l0,0h0l0,0H655l0,0h0l0,0h0l0,0h0l0,.06h0a22.45,22.45,0,0,1-1.7,2h0l-.05.06h0l-.08.08h0l-.07.07h0l0,0h0l0,0h-.06l0,0h-.35l0,0h-.05l0,0h0l0,0h0l0,0h0l-.07.07h0q-.57.53-1.19,1a3,3,0,1,0,3.71,4.72,28.52,28.52,0,0,0,7.86-9.77,3,3,0,0,0-2.68-4.34Zm2.18-21.61a3,3,0,0,0-2.9,3.78,25,25,0,0,1,.8,4.69h0v0h0v0h0v0h0v0h0v0h0v0h0v0h0v0h0v0h0v0h0v0h0v0h0v0h0v0h0v0h0v0h0v0h0v0h0v0h0v0h0v0h0v0h0v0h0v0h0v0h0v0h0v0h0v0h0v0h0v0h0v0h0v0h0v0h0v0h0v0h0v0h0v0h0v0h0v0h0v0h0v0h0v0h0v0h0v0h0v0h0v0h0v0h0v0h0v0h0v0h0v0h0v0h0v0h0v1h0v0h0v0h0v0h0v0h0v0h0v.06h0v.08h0v0h0v.1h0v.1h0q0,.74-.1,1.49a3,3,0,0,0,2.71,3.26h.28a3,3,0,0,0,3-2.72c.09-1,.14-2,.14-3v-1a30.87,30.87,0,0,0-1.07-8,3,3,0,0,0-2.89-2.22Zm-14-16.87a3,3,0,0,0-1.19,5.75h0l0,0h0l.07,0h0a20,20,0,0,1,2,1h0l.07,0h0l.07,0h0l.07,0h0l.07,0h0l.07,0h0l.07,0h0l0,0h0l0,0h0l0,0h0l0,0h0l0,0h0l0,0h0l0,0h0l0,0h0l0,0H650l0,0h0l0,0h.27l0,0h.81l0,0h.33l0,0h.12l0,0h0l0,0h0l0,0h.1l0,0h0l0,0h0l0,0h0l.06.05h0a21.74,21.74,0,0,1,2.2,2.34,3,3,0,0,0,4.66-3.78A26.5,26.5,0,0,0,649,447.9a3,3,0,0,0-1.19-.25Zm-20.73-2.77a3,3,0,0,0-.2,6h.76l9.22.63h.21a3,3,0,0,0,.2-6l-10-.69Zm-20-1.37a3,3,0,0,0-.21,6l10,.69h.2a3,3,0,0,0,.2-6l-10-.69Zm-20-1.37a3,3,0,0,0-.2,6l5.24.36h0l4.71.32h.2a3,3,0,0,0,.2-6l-10-.69Zm-20-1.37a3,3,0,0,0-.2,6l10,.69h.21a3,3,0,0,0,.2-6l-10-.69Zm-20-1.37a3,3,0,0,0-.21,6l10,.69h.21a3,3,0,0,0,.2-6l-10-.69Zm-20-1.37a3,3,0,0,0-.21,6l10,.69h.2a3,3,0,0,0,.2-6l-10-.69Zm-20-1.37a3,3,0,0,0-.2,6l10,.69h.21a3,3,0,0,0,.2-6l-10-.69Zm-20-1.37a3,3,0,0,0-.2,6l10,.69h.21a3,3,0,0,0,.2-6l-10-.69Z" transform="translate(-166.44 -136.39)"/><path class="cls-10" d="M480.59,480.58a7.5,7.5,0,0,1,0-15h158.6a7.5,7.5,0,0,1,0,15Z" transform="translate(-166.44 -136.39)"/><path class="cls-4" d="M639.2,468.58a4.5,4.5,0,0,1,0,9H480.59a4.5,4.5,0,0,1,0-9H639.2m0-6H480.59a10.5,10.5,0,0,0,0,21H639.2a10.5,10.5,0,0,0,0-21Z" transform="translate(-166.44 -136.39)"/><path class="cls-5" d="M635.2,494.31a19,19,0,1,1,19-19A19.07,19.07,0,0,1,635.2,494.31Z" transform="translate(-166.44 -136.39)"/><path class="cls-4" d="M635.2,459.22a16,16,0,1,1-16,16,16,16,0,0,1,16-16m0-6a22,22,0,1,0,22,22,22.07,22.07,0,0,0-22-22Z" transform="translate(-166.44 -136.39)"/><path class="cls-5" d="M480.44,492.19a16.93,16.93,0,1,1,16.93-16.93A16.95,16.95,0,0,1,480.44,492.19Z" transform="translate(-166.44 -136.39)"/><path class="cls-4" d="M480.44,461.34a13.93,13.93,0,1,1-13.93,13.93,13.93,13.93,0,0,1,13.93-13.93m0-6a19.93,19.93,0,1,0,19.93,19.93,19.95,19.95,0,0,0-19.93-19.93Z" transform="translate(-166.44 -136.39)"/><path class="cls-5" d="M515.28,325.83a11,11,0,0,1,0-22h42.82a11,11,0,0,1,0,22Z" transform="translate(-166.44 -136.39)"/><path class="cls-4" d="M558.11,306.83a8,8,0,0,1,0,16H515.28a8,8,0,1,1,0-16h42.82m0-6H515.28a14,14,0,1,0,0,28h42.82a14,14,0,0,0,0-28Z" transform="translate(-166.44 -136.39)"/><line class="cls-11" x1="313.52" y1="340.6" x2="334.68" y2="311.13"/><rect class="cls-11" x="258.5" y="354.65" width="33.06" height="8.62" rx="3.82" ry="3.82"/><path class="cls-4" d="M487.13,442.33a8.57,8.57,0,0,1-3.42-.71l-.59-.26A8.67,8.67,0,0,1,478.6,430l10.24-23.68a8.66,8.66,0,0,1,8-5.22,8.57,8.57,0,0,1,3.42.71l.59.26a8.67,8.67,0,0,1,4.51,11.38l-10.23,23.68A8.66,8.66,0,0,1,487.13,442.33Z" transform="translate(-166.44 -136.39)"/><path class="cls-4" d="M496.8,403.57a6.11,6.11,0,0,1,2.43.5l.59.26a6.18,6.18,0,0,1,3.21,8.11L492.8,436.12a6.19,6.19,0,0,1-5.68,3.72,6.11,6.11,0,0,1-2.43-.5l-.59-.26a6.18,6.18,0,0,1-3.21-8.11l10.24-23.68a6.19,6.19,0,0,1,5.68-3.72m0-5h0a11.15,11.15,0,0,0-10.25,6.72L476.32,429a11.17,11.17,0,0,0,5.81,14.66l.59.26a11.16,11.16,0,0,0,14.66-5.81l10.24-23.68a11.17,11.17,0,0,0-5.81-14.66l-.59-.26a11,11,0,0,0-4.41-.91Z" transform="translate(-166.44 -136.39)"/><rect class="cls-11" x="307.24" y="310.82" width="33.22" height="8.62" rx="3.83" ry="3.83"/><path class="cls-6" d="M489.58,416.89A9.93,9.93,0,0,1,482.5,414L438.3,369.75a10.43,10.43,0,0,1,0-14.46l29.35-29.35a10,10,0,1,1,14.14,14.14l-22.44,22.44,37.3,37.31a10,10,0,0,1-7.07,17.06Z" transform="translate(-166.44 -136.39)"/><path class="cls-4" d="M474.72,326A7,7,0,0,1,479.66,338l-24.56,24.56L494.53,402a7,7,0,0,1-9.9,9.9l-44.21-44.22a7.44,7.44,0,0,1,0-10.22l29.34-29.34a7,7,0,0,1,4.95-2m0-6a12.91,12.91,0,0,0-9.19,3.8l-29.34,29.34a13.43,13.43,0,0,0,0,18.71l44.2,44.22a13,13,0,0,0,18.39-18.38l-35.18-35.19,20.31-20.31A13,13,0,0,0,474.72,320Z" transform="translate(-166.44 -136.39)"/><line class="cls-12" x1="295.88" y1="223.08" x2="288.44" y2="230.3"/><path class="cls-4" d="M474.62,446.06a6.45,6.45,0,1,1,0-12.9H488a6.45,6.45,0,1,1,0,12.9Z" transform="translate(-166.44 -136.39)"/><path class="cls-4" d="M488,435.66a4,4,0,0,1,0,7.92H474.62a4,4,0,0,1,0-7.92H488m0-5H474.62a8.94,8.94,0,0,0,0,17.88H488a8.94,8.94,0,0,0,0-17.88Z" transform="translate(-166.44 -136.39)"/><g class="cls-13"><path class="cls-8" d="M473.68,405.95l17.61-17.5s20,8.88,16.75,22.38S480,426.57,480,426.57Z" transform="translate(-166.44 -136.39)"/></g><path class="cls-14" d="M330.1,560.52h93.17a5.57,5.57,0,0,0-4.09-4.36c-2.67-.84-6.07.29-6.07.29s-.84-8.19-8.41-11.54c-6.29-2.78-12.51,0-12.51,0s-.37-19.91-22-18.38c-21.21,1.5-19.56,23-19.56,23s-6.78-1.61-12,1C330.13,554.65,330.1,560.52,330.1,560.52Z" transform="translate(-166.44 -136.39)"/><path class="cls-14" d="M632.11,560.61H781.78s0-9.25-7.61-11.67a17.24,17.24,0,0,0-12.89,1s-.5-15.79-13.7-18.33c-13.42-2.58-18.14,8.83-18.14,8.83s-2.28-4.92-7.2-5.5a11.43,11.43,0,0,0-8.64,3s-4.45-23.33-24.78-21.08c-20.68,2.29-19.55,23.25-19.55,23.25s-6.36-6-14.28-3.08a14,14,0,0,0-9.26,12.08,14.63,14.63,0,0,0-8.79,2.83A10.89,10.89,0,0,0,632.11,560.61Z" transform="translate(-166.44 -136.39)"/><path class="cls-14" d="M792.08,560.61H811s-1.42-9.37-10.08-9.37C792.91,551.24,792.08,560.61,792.08,560.61Z" transform="translate(-166.44 -136.39)"/><line class="cls-15" x1="3" y1="424.22" x2="664.95" y2="424.22"/><path class="cls-16" d="M264.79,487.49s2.67,16.5,14.5,30S302.13,535,302.13,535" transform="translate(-166.44 -136.39)"/><path class="cls-16" d="M281.46,499.66a41.78,41.78,0,0,0,5.33,9.16,36.92,36.92,0,0,0,8.33,8" transform="translate(-166.44 -136.39)"/><path class="cls-16" d="M701.47,479.16s1.52-16.64-6.58-32.66-17.76-22.63-17.76-22.63" transform="translate(-166.44 -136.39)"/><path class="cls-16" d="M688.35,463.23a41.78,41.78,0,0,0-2.89-10.2,36.92,36.92,0,0,0-6.08-9.82" transform="translate(-166.44 -136.39)"/><line class="cls-17" x1="393.6" y1="88.64" x2="466.1" y2="88.64"/><line class="cls-17" x1="408.43" y1="101.94" x2="422.43" y2="101.94"/><line class="cls-17" x1="431.52" y1="165.93" x2="525.85" y2="165.93"/><line class="cls-17" x1="421.18" y1="192.66" x2="438.52" y2="192.66"/><line class="cls-18" x1="205.47" y1="239.13" x2="207.72" y2="232.38"/><path class="cls-5" d="M511.73,198.55c-.67,0-16.5-.9-24.39-3A37.55,37.55,0,0,1,474,189.16a3,3,0,0,1-.54-.58l-8.06-11.42a3,3,0,0,1,1.54-4.59c1.32-.42,13.1-4.14,18.61-4.14,3.29,0,27.48,10.29,30,14,2.26,3.26.44,10.24-.84,14.12a3,3,0,0,1-2.85,2.06Z" transform="translate(-166.44 -136.39)"/><path class="cls-4" d="M485.55,171.43c2.61,0,25.81,10.15,27.55,12.67s-1.22,11.46-1.22,11.46-16.1-.86-23.77-2.91a34.62,34.62,0,0,1-12.19-5.8l-8.06-11.42s12.49-4,17.7-4m0-6h0c-5.85,0-17.29,3.57-19.53,4.29a6,6,0,0,0-3.07,9.17L471,190.31a6,6,0,0,0,1.07,1.16,40.16,40.16,0,0,0,14.47,7c8.19,2.19,24.32,3.07,25,3.11h.32a6,6,0,0,0,5.69-4.11c2.59-7.82,2.74-13.46.46-16.77-.82-1.18-2.19-3.16-15.92-9.33-13.16-5.92-15.63-5.92-16.56-5.92Z" transform="translate(-166.44 -136.39)"/><path class="cls-5" d="M520.79,238.25c-1.6-.09-39.54-2.3-59.44-7.62-20.23-5.42-32.14-15.15-32.64-15.56a3,3,0,0,1-1.06-2.66L432,176.07a3,3,0,0,1,2-2.49c6.78-2.3,18.54-6.16,21.15-6.16,2.88,0,29.84,11.33,36.35,14.14,34.51,14.86,37.1,18.59,37.95,19.82,5,7.27-3.08,28.64-5.69,35a3,3,0,0,1-2.78,1.86Z" transform="translate(-166.44 -136.39)"/><path class="cls-4" d="M455.13,170.43c2.5,0,67.33,26.17,71.83,32.67s-6,32.17-6,32.17-39-2.22-58.83-7.52-31.5-15-31.5-15l4.31-36.33s17.69-6,20.19-6m0-6c-1,0-3.49,0-22.11,6.32a6,6,0,0,0-4,5l-4.31,36.33a6,6,0,0,0,2.13,5.33c.52.43,12.92,10.57,33.78,16.15,20.2,5.41,58.43,7.63,60,7.72H521a6,6,0,0,0,5.55-3.73c.11-.27,2.77-6.81,4.9-14.27,3.39-11.89,3.54-19.16.48-23.58-1.27-1.84-3.92-5.67-39.23-20.87-7.88-3.39-16.52-7-23.7-9.78-11.72-4.61-12.66-4.61-13.84-4.61Z" transform="translate(-166.44 -136.39)"/><line class="cls-11" x1="288.68" y1="31.7" x2="287.68" y2="59.54"/><path class="cls-19" d="M300.13,202.84a19.19,19.19,0,0,0,2,11.67,23.87,23.87,0,0,0,9.72,10.18l4.18-23H300.6Z" transform="translate(-166.44 -136.39)"/><path class="cls-6" d="M325.9,365.71a11.85,11.85,0,0,1-11.83-11.83V350.3a11.68,11.68,0,0,1,1-4.8,10,10,0,0,1,4.71-5.41l77.86-41-15.74-27.26a10,10,0,0,1,8.64-15,10,10,0,0,1,8.68,5L420,297.77a10.61,10.61,0,0,1-4.08,14.31L345,349.4q0,.45,0,.9v3.58a11.85,11.85,0,0,1-11.83,11.83Z" transform="translate(-166.44 -136.39)"/><path class="cls-4" d="M390.57,259.83a7,7,0,0,1,6.08,3.49l20.75,35.94a7.61,7.61,0,0,1-2.88,10.16L341.7,347.77a8.75,8.75,0,0,1,.38,2.53v3.58a8.86,8.86,0,0,1-8.83,8.83H325.9a8.86,8.86,0,0,1-8.83-8.83V350.3a8.74,8.74,0,0,1,.81-3.67,7,7,0,0,1,3.33-3.88l80.62-42.46-17.3-30a7,7,0,0,1,2.56-9.56,6.94,6.94,0,0,1,3.48-.93m0-6a13,13,0,0,0-11.24,19.49l14.18,24.56-75.1,39.55a12.94,12.94,0,0,0-6.1,6.93,14.65,14.65,0,0,0-1.25,5.93v3.58a14.85,14.85,0,0,0,14.83,14.83h7.35a14.85,14.85,0,0,0,14.83-14.83v-2.69l69.23-36.46a13.6,13.6,0,0,0,5.28-18.46l-20.75-35.94a13.05,13.05,0,0,0-11.28-6.49Z" transform="translate(-166.44 -136.39)"/><path class="cls-20" d="M391.32,289.15a9,9,0,0,1-7.81-4.5l-7.82-13.55a15,15,0,0,1,13-22.49,15.07,15.07,0,0,1,13,7.49l7.82,13.55A9,9,0,0,1,406.2,282l-10.39,6A9,9,0,0,1,391.32,289.15Z" transform="translate(-166.44 -136.39)"/><path class="cls-4" d="M388.64,251.62a12,12,0,0,1,10.43,6l7.82,13.55a6,6,0,0,1-2.2,8.2l-10.39,6a6,6,0,0,1-3,.8,6,6,0,0,1-5.21-3l-7.82-13.55a12,12,0,0,1,4.39-16.39h0a11.9,11.9,0,0,1,6-1.6m0-6h0a18,18,0,0,0-15.56,27l7.82,13.55a12,12,0,0,0,16.39,4.39l10.39-6a12,12,0,0,0,4.39-16.39l-7.82-13.55a18.07,18.07,0,0,0-15.62-9Z" transform="translate(-166.44 -136.39)"/><line class="cls-21" x1="157.33" y1="222.98" x2="157.33" y2="227.69"/><line class="cls-21" x1="166.33" y1="222.98" x2="166.33" y2="227.69"/><line class="cls-12" x1="226.5" y1="154.7" x2="232.79" y2="165.36"/><line class="cls-12" x1="175.09" y1="214.83" x2="181.12" y2="211.68"/><path class="cls-22" d="M425.79,206s82.31,4.27,108.37,37.13c26.71,33.67,3.38,67.13,3.38,67.13l-11,17.13h8.75l-10,24.47a147.7,147.7,0,0,1-36.22-6,175.79,175.79,0,0,1-30.44-12.25l-10.31,9.13s-11-4.87-18.79-12.75,0-12.12,0-12.12l18-19.44-3.08-13.73s-29.67,1.33-51.17-14.17c-18.45-13.3,19.13-26.92,19.13-26.92Z" transform="translate(-166.44 -136.39)"/><path class="cls-6" d="M366.9,364.71a11.85,11.85,0,0,1-11.83-11.83V349.3a11.68,11.68,0,0,1,1-4.8,10,10,0,0,1,4.71-5.41l77.86-41-15.74-27.26a10,10,0,0,1,8.64-15,10,10,0,0,1,8.68,5L461,296.77a10.61,10.61,0,0,1-4.08,14.31L386,348.4q0,.45,0,.9v3.58a11.85,11.85,0,0,1-11.83,11.83Z" transform="translate(-166.44 -136.39)"/><path class="cls-4" d="M431.57,258.83a7,7,0,0,1,6.08,3.49l20.75,35.94a7.61,7.61,0,0,1-2.88,10.16L382.7,346.77a8.75,8.75,0,0,1,.38,2.53v3.58a8.86,8.86,0,0,1-8.83,8.83H366.9a8.86,8.86,0,0,1-8.83-8.83V349.3a8.74,8.74,0,0,1,.81-3.67,7,7,0,0,1,3.33-3.88l80.62-42.46-17.3-30a7,7,0,0,1,2.56-9.56,6.94,6.94,0,0,1,3.48-.93m0-6a13,13,0,0,0-11.24,19.49l14.18,24.56-75.1,39.55a12.94,12.94,0,0,0-6.1,6.93,14.65,14.65,0,0,0-1.25,5.93v3.58a14.85,14.85,0,0,0,14.83,14.83h7.35a14.85,14.85,0,0,0,14.83-14.83v-2.69l69.23-36.46a13.6,13.6,0,0,0,5.28-18.46l-20.75-35.94a13.05,13.05,0,0,0-11.28-6.49Z" transform="translate(-166.44 -136.39)"/><path class="cls-20" d="M432.32,288.15a9,9,0,0,1-7.81-4.5l-7.82-13.55a15,15,0,0,1,13-22.49,15.07,15.07,0,0,1,13,7.49l7.82,13.55A9,9,0,0,1,447.2,281l-10.39,6A9,9,0,0,1,432.32,288.15Z" transform="translate(-166.44 -136.39)"/><path class="cls-4" d="M429.64,250.62a12,12,0,0,1,10.43,6l7.82,13.55a6,6,0,0,1-2.2,8.2l-10.39,6a6,6,0,0,1-3,.8,6,6,0,0,1-5.21-3l-7.82-13.55a12,12,0,0,1,4.39-16.39h0a11.9,11.9,0,0,1,6-1.6m0-6h0a18,18,0,0,0-15.56,27l7.82,13.55a12,12,0,0,0,16.39,4.39l10.39-6a12,12,0,0,0,4.39-16.39l-7.82-13.55a18.07,18.07,0,0,0-15.62-9Z" transform="translate(-166.44 -136.39)"/><line class="cls-21" x1="198.33" y1="221.98" x2="198.33" y2="226.69"/><line class="cls-21" x1="207.33" y1="221.98" x2="207.33" y2="226.69"/><line class="cls-12" x1="267.5" y1="153.7" x2="273.79" y2="164.36"/><line class="cls-12" x1="216.09" y1="213.83" x2="222.12" y2="210.68"/><path class="cls-6" d="M369.35,281.8A60.68,60.68,0,1,1,430,221.12,60.74,60.74,0,0,1,369.35,281.8Z" transform="translate(-166.44 -136.39)"/><path class="cls-4" d="M369.35,163.45a57.68,57.68,0,1,1-57.68,57.68,57.68,57.68,0,0,1,57.68-57.68m0-6A63.68,63.68,0,1,0,433,221.12a63.75,63.75,0,0,0-63.68-63.68Z" transform="translate(-166.44 -136.39)"/><path class="cls-23" d="M462.29,335.47s-8-3.76-8.45-4.58c-.34-.6,7.41-8.4,7.41-8.4" transform="translate(-166.44 -136.39)"/><path class="cls-23" d="M543.29,261.83S530.21,279.36,502,287.69c-27.5,8.11-42,7.17-42,7.17" transform="translate(-166.44 -136.39)"/><line class="cls-24" x1="225.1" y1="67.47" x2="225.1" y2="140.39"/><line class="cls-25" x1="191.72" y1="82.97" x2="191.72" y2="89.34"/><path class="cls-25" d="M336.67,258.61a41.42,41.42,0,0,0,12.75-6.38c6.22-4.49,8.25-8.83,8.25-8.83" transform="translate(-166.44 -136.39)"/><line class="cls-25" x1="147.97" y1="82.97" x2="147.97" y2="89.34"/><path class="cls-26" d="M309,245.93a10,10,0,0,1,0-20h12.15a10,10,0,0,1,0,20Z" transform="translate(-166.44 -136.39)"/><path class="cls-4" d="M321.17,228.93a7,7,0,0,1,0,14H309a7,7,0,0,1,0-14h12.15m0-6H309a13,13,0,0,0,0,26h12.15a13,13,0,0,0,0-26Z" transform="translate(-166.44 -136.39)"/><path class="cls-23" d="M414.48,237a19.28,19.28,0,0,0,9.94-6.62c3.84-5,3-12.25,3-12.25" transform="translate(-166.44 -136.39)"/><path class="cls-23" d="M414.48,222.2a5.28,5.28,0,0,0,2.23-5.58,6.7,6.7,0,0,0-3.14-4.5" transform="translate(-166.44 -136.39)"/><path class="cls-19" d="M436.9,190.68s19.86-2.91,21.09-2.91c1.71,0-7.07,10.61-7.07,10.61s22.18.25,25.43.25,4.25,0,4.25,0-5.88,6.63-16.94,11.87c-11.42,5.41-19.38,6.63-19.38,6.63a110,110,0,0,0,14.44,3c10.77,1.66,17.62,2.24,17.62,2.24s-1.62,5.56-16.69,11.9a75.06,75.06,0,0,1-14.25,4.35l12.19,4.5s-5.25,3.69-16.43,2.17c-16.08-2.18-23.78-9.37-23.78-9.37a18.81,18.81,0,0,0,8.9-8.55c3.63-7.69.73-19.25.73-19.25Z" transform="translate(-166.44 -136.39)"/><path class="cls-19" d="M333.75,205.41a46.91,46.91,0,0,0,5.23,5.78,18.72,18.72,0,0,0,5.69,3.73l.56-8.56,17,.56s4,9.39,11.42,13.38a17.12,17.12,0,0,0,9.79,1.56s17.87,20.34,23.67,24.12c4.11,2.68,7.38,2.37,7.38,2.37a202,202,0,0,1-7.7-26.4C404.95,213,404,206.78,404,206.78l-28.6-8.91-30.66,2Z" transform="translate(-166.44 -136.39)"/><path class="cls-27" d="M437.83,203.86a67.92,67.92,0,0,0-135.67,0Z" transform="translate(-166.44 -136.39)"/><path class="cls-27" d="M292.72,206s15.11,1.24,51.06,1.75,58.92-.17,58.92-.17S420.26,218,430,217.62c10.61-.45,26.48-56.51-12.67-56.38s-74.14,28.41-74.14,28.41-6.33.75-23.18,3.52c-16.7,2.74-23.08,4.32-23.08,4.32Z" transform="translate(-166.44 -136.39)"/><line class="cls-8" x1="225.5" y1="42.04" x2="227.02" y2="48.7"/><line class="cls-8" x1="235.5" y1="40.04" x2="237.02" y2="46.7"/><line class="cls-8" x1="245.5" y1="38.04" x2="247.02" y2="44.7"/><line class="cls-11" x1="361.22" y1="189.23" x2="355.1" y2="198.29"/><path class="cls-23" d="M452.29,271.41s21.55-8.22,33.17-21.39c13.83-15.68,17.71-37.41,17.71-37.41" transform="translate(-166.44 -136.39)"/><path class="cls-11" d="M470.11,262.64a29.25,29.25,0,0,1,10.95.16,8.59,8.59,0,0,1,4.85,2.9" transform="translate(-166.44 -136.39)"/><line class="cls-11" x1="332.36" y1="73.93" x2="341.67" y2="77.54"/><circle class="cls-26" cx="209.01" cy="95.87" r="3"/><circle class="cls-26" cx="199.07" cy="98.36" r="3"/><circle class="cls-26" cx="206.01" cy="104.36" r="3"/><line class="cls-28" x1="217.76" y1="86.33" x2="212.49" y2="80.23"/><path class="cls-5" d="M390,359.47a8.36,8.36,0,0,1,0-16.73h13.36a8.36,8.36,0,0,1,0,16.73Z" transform="translate(-166.44 -136.39)"/><path class="cls-4" d="M403.33,345.74a5.36,5.36,0,0,1,0,10.73H390a5.36,5.36,0,0,1,0-10.73h13.36m0-6H390a11.36,11.36,0,0,0,0,22.73h13.36a11.36,11.36,0,0,0,0-22.73Z" transform="translate(-166.44 -136.39)"/></g></g></svg>