<svg id="Artwork" xmlns="http://www.w3.org/2000/svg" xmlns:xlink="http://www.w3.org/1999/xlink" viewBox="0 0 792.92 336.31"><defs><style>.cls-1,.cls-12,.cls-18{fill:none;}.cls-2,.cls-3{fill:#fbe9e7;}.cls-11,.cls-12,.cls-14,.cls-15,.cls-17,.cls-18,.cls-2,.cls-5,.cls-6,.cls-8,.cls-9{stroke:#004d40;stroke-width:6px;}.cls-11,.cls-12,.cls-14,.cls-15,.cls-17,.cls-18,.cls-2,.cls-5,.cls-8,.cls-9{stroke-linecap:round;}.cls-11,.cls-12,.cls-14,.cls-15,.cls-2,.cls-5,.cls-6,.cls-8{stroke-linejoin:round;}.cls-11,.cls-4{fill:#004d40;}.cls-5{fill:#e0f2f1;}.cls-6{fill:#ffd600;}.cls-7,.cls-8{fill:#006064;}.cls-14,.cls-9{fill:#00b0ff;}.cls-9{stroke-miterlimit:10;}.cls-10{clip-path:url(#clip-path);}.cls-13{fill:#ffccbc;}.cls-15{fill:#795548;}.cls-16,.cls-17{fill:#ff8a80;}.cls-17,.cls-18{stroke-linejoin:bevel;}</style><clipPath id="clip-path" transform="translate(-118.08 -181.85)"><path class="cls-1" d="M568,238.94s-34.5-2.16-86.82,4-75.78,18.77-75.78,18.77L394.28,277l-14.57,143.5,9.23,22.34H542.39s22.34-47.47,26-102.4A748.81,748.81,0,0,0,568,238.94Z"/></clipPath></defs><title>BIC001 - Less Cars - V01</title><path class="cls-2" d="M835.39,446.84S826,455.5,830,464.94c3.32,7.72,15.22,5.34,15.22,5.34s1.73,6.79,8.89,6.79a8.89,8.89,0,0,0,8.91-6.81s16.77,4.37,19.66-8.88c2.8-12.85-10.71-16.5-10.71-16.5s5.11-11.51-2.73-16.55c-8.07-5.19-17.12,4.15-17.12,4.15Z" transform="translate(-118.08 -181.85)"/><circle class="cls-3" cx="763.92" cy="223.61" r="6.34"/><path class="cls-4" d="M882,402.12a3.34,3.34,0,1,1-3.34,3.34,3.34,3.34,0,0,1,3.34-3.34m0-6a9.34,9.34,0,1,0,9.34,9.34,9.35,9.35,0,0,0-9.34-9.34Z" transform="translate(-118.08 -181.85)"/><path class="cls-3" d="M844.59,508.13a9.45,9.45,0,1,1,9.45-9.45A9.46,9.46,0,0,1,844.59,508.13Z" transform="translate(-118.08 -181.85)"/><path class="cls-4" d="M844.59,492.23a6.45,6.45,0,1,1-6.45,6.45,6.45,6.45,0,0,1,6.45-6.45m0-6A12.45,12.45,0,1,0,857,498.68a12.46,12.46,0,0,0-12.45-12.45Z" transform="translate(-118.08 -181.85)"/><circle class="cls-3" cx="747.68" cy="307.02" r="6.36"/><path class="cls-4" d="M865.76,485.51a3.36,3.36,0,1,1-3.36,3.36,3.36,3.36,0,0,1,3.36-3.36m0-6a9.36,9.36,0,1,0,9.36,9.36,9.37,9.37,0,0,0-9.36-9.36Z" transform="translate(-118.08 -181.85)"/><circle class="cls-3" cx="704.63" cy="298.08" r="6.7"/><path class="cls-4" d="M822.71,476.22a3.7,3.7,0,1,1-3.7,3.7,3.7,3.7,0,0,1,3.7-3.7m0-6a9.7,9.7,0,1,0,9.7,9.7,9.71,9.71,0,0,0-9.7-9.7Z" transform="translate(-118.08 -181.85)"/><path class="cls-3" d="M902.6,476.16a5.4,5.4,0,0,1-2.27-10.3,5.35,5.35,0,0,1,2.26-.5,5.4,5.4,0,0,1,5.07,7.26,5.4,5.4,0,0,1-5.06,3.53Z" transform="translate(-118.08 -181.85)"/><path class="cls-4" d="M902.6,468.36a2.4,2.4,0,1,1-1,.22,2.4,2.4,0,0,1,1-.22m0-6h0A8.4,8.4,0,0,0,895,474.28a8.42,8.42,0,0,0,7.62,4.88,8.4,8.4,0,0,0,7.62-11.92,8.42,8.42,0,0,0-7.62-4.88Z" transform="translate(-118.08 -181.85)"/><path class="cls-3" d="M897.21,425.45a5.4,5.4,0,0,1-2.27-10.3,5.35,5.35,0,0,1,2.26-.5,5.4,5.4,0,0,1,2.27,10.3A5.35,5.35,0,0,1,897.21,425.45Z" transform="translate(-118.08 -181.85)"/><path class="cls-4" d="M897.21,417.65a2.4,2.4,0,1,1-1,.22,2.4,2.4,0,0,1,1-.22m0-6h0a8.4,8.4,0,0,0-7.62,11.92,8.42,8.42,0,0,0,7.62,4.88,8.4,8.4,0,0,0,7.62-11.92,8.42,8.42,0,0,0-7.62-4.88Z" transform="translate(-118.08 -181.85)"/><path class="cls-4" d="M843.93,448.54a8.27,8.27,0,0,1-3.12-.63c-1.43-.58-9.39-5.44-12.75-7.51a3,3,0,0,1-1.17-3.78l5.42-12.14a3,3,0,0,1,4.44-1.25c.49.33,11.94,8.19,14.36,10.06,2.18,1.69,2.84,4.79,1.7,8.11-1.21,3.55-4.43,7.13-8.88,7.13Z" transform="translate(-118.08 -181.85)"/><path class="cls-4" d="M835.05,425.71s11.84,8.12,14.22,10c2.89,2.24-.36,9.87-5.34,9.87a5.28,5.28,0,0,1-2-.41c-1.35-.55-12.3-7.28-12.3-7.28l5.42-12.14m0-6a6,6,0,0,0-5.48,3.55l-5.42,12.14a6,6,0,0,0,2.33,7.56c11.37,7,12.74,7.55,13.19,7.73a11.26,11.26,0,0,0,4.25.85c4.28,0,9.56-2.83,11.72-9.16,1.56-4.56.52-9-2.71-11.45-2.44-1.89-13.27-9.32-14.5-10.16a6,6,0,0,0-3.39-1.05Z" transform="translate(-118.08 -181.85)"/><path class="cls-4" d="M182.15,453a3,3,0,0,1-3-2.66c-.23-2.06-5.46-50.79,20-82.46,11.8-14.68,28.3-23.22,49.05-25.37a103.75,103.75,0,0,1,10.66-.56c29.39,0,55.73,13.51,76.19,39.08a146.37,146.37,0,0,1,21.42,36.85l259.26,1.91a189.79,189.79,0,0,1,29.4-40.85c26.55-28.17,58.29-43.71,91.79-44.93,1.23,0,2.47-.07,3.67-.07,32.55,0,56.74,16.6,69.95,48a137.68,137.68,0,0,1,10.1,47.31,3,3,0,0,1-2,2.86L791.1,441.5a3,3,0,0,1-.6.14L699.21,453l-.37,0Z" transform="translate(-118.08 -181.85)"/><path class="cls-4" d="M740.61,336.94c76.42,0,77,92.33,77,92.33l-27.52,9.39L698.84,450H182.15s-11-96.47,66.37-104.5a100.2,100.2,0,0,1,10.35-.54c69.57,0,95.51,75.91,95.51,75.91l263.2,1.94S657.08,339.92,737,337q1.81-.07,3.56-.07m0-6c-1.24,0-2.51,0-3.78.07a123.18,123.18,0,0,0-55.06,15.37,157.76,157.76,0,0,0-38.8,30.5,195.39,195.39,0,0,0-29,39.89l-255.43-1.89a151,151,0,0,0-21.11-35.73c-21-26.3-48.2-40.21-78.53-40.21a106.74,106.74,0,0,0-11,.58c-21.58,2.24-38.76,11.15-51.08,26.48-26.22,32.63-20.87,82.57-20.63,84.68a6,6,0,0,0,6,5.32H698.84a6,6,0,0,0,.74,0l91.29-11.33a6,6,0,0,0,1.2-.28l27.52-9.39a6,6,0,0,0,4.06-5.72,141,141,0,0,0-10.34-48.45c-13.71-32.61-38.86-49.84-72.71-49.84Z" transform="translate(-118.08 -181.85)"/><path class="cls-5" d="M856.34,390.1c-.74-50.24-4.13-60.46-4.13-60.46l-20.15-44.92,18.7-16.51s-35.29-15.72-171.18-33.75C549.68,217.22,463,226.67,409.42,246.2c-39.16,14.27-110.56,51.47-110.56,51.47s-32.21,11-73.17,26.38-72.84,28.65-82.72,41.6-26.33,75.89-20.79,81.66c8.36,8.7,63.52,18.21,63.52,18.21l-.16-7.76A97.9,97.9,0,0,1,185,447.5c0-46.39,32.48-84,72.54-84s72.54,37.61,72.54,84a97,97,0,0,1-1.69,18h340a1.7,1.7,0,0,0,.29-1.62,96.85,96.85,0,0,1-2-19.43c0-46.39,32.48-84,72.54-84,39.85,0,72.18,37.21,72.53,83.26,5.62-.9,34.95-13.14,39.69-17C856.58,422.63,856.68,413.41,856.34,390.1Z" transform="translate(-118.08 -181.85)"/><path class="cls-6" d="M146.94,383.86s3.25-10.84,7.81-14.32c7.65-5.83,49.53-13.16,49.53-13.16l-40.66,27.47Z" transform="translate(-118.08 -181.85)"/><polygon class="cls-6" points="713.98 102.87 697.66 117.6 734.32 148.49 713.98 102.87"/><path class="cls-7" d="M257.54,514.38c-34,0-61.73-31.85-61.73-71s27.69-71,61.73-71,61.73,31.85,61.73,71S291.58,514.38,257.54,514.38Z" transform="translate(-118.08 -181.85)"/><path class="cls-4" d="M257.54,375.37c32.44,0,58.73,30.45,58.73,68s-26.3,68-58.73,68-58.73-30.45-58.73-68,26.3-68,58.73-68m0-6c-35.69,0-64.73,33.2-64.73,74s29,74,64.73,74,64.73-33.2,64.73-74-29-74-64.73-74Z" transform="translate(-118.08 -181.85)"/><ellipse class="cls-5" cx="139.46" cy="261.53" rx="30.86" ry="37.46"/><ellipse class="cls-8" cx="139.46" cy="261.53" rx="13.49" ry="18.81"/><path class="cls-7" d="M739.74,514.38c-34,0-61.73-31.85-61.73-71s27.69-71,61.73-71,61.73,31.85,61.73,71S773.77,514.38,739.74,514.38Z" transform="translate(-118.08 -181.85)"/><path class="cls-4" d="M739.74,375.37c32.44,0,58.73,30.45,58.73,68s-26.3,68-58.73,68S681,480.94,681,443.38s26.3-68,58.73-68m0-6c-35.69,0-64.73,33.2-64.73,74s29,74,64.73,74,64.73-33.2,64.73-74-29-74-64.73-74Z" transform="translate(-118.08 -181.85)"/><ellipse class="cls-5" cx="621.65" cy="261.53" rx="30.86" ry="37.46"/><ellipse class="cls-8" cx="621.65" cy="261.53" rx="13.49" ry="18.81"/><path class="cls-9" d="M298.86,297.67S321,312.74,411,311.93s142.45-9.12,142.45-9.12S597.7,300,659.72,290.87s87.59-25.57,89-26.54-34.4-13.7-105.78-20.49c-58.67-5.58-81.42-4.9-81.42-4.9l-73.82,6.23-11.86-14.73S436.69,232,375.58,260.28C313.79,288.92,298.86,297.67,298.86,297.67Z" transform="translate(-118.08 -181.85)"/><polygon class="cls-5" points="527.54 62.24 491.62 115.58 511.13 113.2 543.38 63.96 527.54 62.24"/><path class="cls-8" d="M568,238.94s-34.5-2.16-86.82,4-75.76,20-75.76,20L394.28,277l-14.57,143.5,9.23,22.34H542.39s22.34-47.47,26-102.4A748.81,748.81,0,0,0,568,238.94Z" transform="translate(-118.08 -181.85)"/><g class="cls-10"><path class="cls-11" d="M403.92,441.3s0-26.52,11-27c21.85-1,87.27-2,87.27-2S532.66,312,538.73,292.58c3.81-12.18,47.85-9.06,47.85-9.06L574,231.63s-87.74-2.06-133.22,10.87-53,26.19-53,26.19l-6.8,163.5-4.43,10.6Z" transform="translate(-118.08 -181.85)"/></g><path class="cls-12" d="M645.59,409.36s18.07-73,95.18-72.09c73.22.9,88.22,68.65,88.22,68.65" transform="translate(-118.08 -181.85)"/><path class="cls-12" d="M261,347.05s23.07-2.47,48.24,16.18a88.39,88.39,0,0,1,26.87,32.54" transform="translate(-118.08 -181.85)"/><path class="cls-5" d="M388.94,442.79s-17.72,10.44-21.29,10.28-13.27-8.6-17-28.5-.08-93.58.32-101.81,15.85-26.86,27.91-40.13a89.92,89.92,0,0,1,26.56-19.76l-12.71,37.88Z" transform="translate(-118.08 -181.85)"/><path class="cls-5" d="M367.82,451.12s-4.49-11-4.49-17.85,1.15-95.37,1.74-107.27c.65-12.95,27.19-54.57,27.19-54.57" transform="translate(-118.08 -181.85)"/><line class="cls-5" x1="273.53" y1="120.31" x2="251.94" y2="129.23"/><line class="cls-5" x1="271.71" y1="213.56" x2="247.31" y2="224.07"/><line class="cls-5" x1="271.71" y1="223.41" x2="247.31" y2="233.92"/><path class="cls-8" d="M427.37,369.11s-20.91-10.38-21.9-14.32-.56-56.25,0-60.27c1-7.35,30.53-18,30.53-18s6,62.05,5.83,70.39S427.37,369.11,427.37,369.11Z" transform="translate(-118.08 -181.85)"/><path class="cls-4" d="M428,510.9h-.16c-3.62-.22-6.4-3.08-6.2-6.38l.09-1.42a6.27,6.27,0,0,1,6.49-5.59h.45l29,2.75c6.61.4,7.25,3.89,7.24,5.26a5,5,0,0,1-1.37,3.62,7.22,7.22,0,0,1-5.53,2Z" transform="translate(-118.08 -181.85)"/><path class="cls-4" d="M428.25,500.5h.26l28.9,2.74c2,.12,4.62.67,4.52,2.31.09,1.44-1.27,2.63-3.9,2.63h-.29l-29.69-.28a3.33,3.33,0,0,1-3.39-3.2l.09-1.42a3.28,3.28,0,0,1,3.49-2.77m0-6h0a9.27,9.27,0,0,0-9.48,8.4l-.09,1.42a8.76,8.76,0,0,0,2.79,6.9,9.94,9.94,0,0,0,6.22,2.66H428l29.63.28H458a10.12,10.12,0,0,0,7.71-3,8,8,0,0,0,2.19-5.7,7.74,7.74,0,0,0-5.27-7.23,15.83,15.83,0,0,0-4.77-1l-28.81-2.73-.2,0-.63,0Z" transform="translate(-118.08 -181.85)"/><path class="cls-8" d="M514.76,424.72l-22.65-69.47-66,.74,4.08,70.07L424.3,498c-.37,3.46,3.15,6.81,7.63,7,3.48.12,8.57-.61,9-5.63l6.89-69.91c0-.72,0-1.26,0-2l-1.95-51.71c5.68-.32,27.57-1,34.24-1L498,426.19l-1.84,72.46c-.37,3.46,4.17,6.6,7.63,7s8.6-2.17,9-5.63l2.13-73.15A5.6,5.6,0,0,0,514.76,424.72Z" transform="translate(-118.08 -181.85)"/><path class="cls-13" d="M470.17,352.07a7.79,7.79,0,0,1-7.7-8.62l5.63-40.75a7.5,7.5,0,0,1,8.46-6.4,7.51,7.51,0,0,1,6.4,8.46l-2.41,17.4,5.8-6.32a10.47,10.47,0,0,1-.9-4.28,10.63,10.63,0,1,1,18.87,6.68,7.21,7.21,0,0,1-.83,1.11l-27.81,30.31A7.49,7.49,0,0,1,470.17,352.07Z" transform="translate(-118.08 -181.85)"/><path class="cls-4" d="M475.54,299.22a4.5,4.5,0,0,1,4.46,5.12l-3.72,26.92,13.8-15a7.57,7.57,0,0,1-1.62-4.67,7.63,7.63,0,1,1,13.41,4.94,4.45,4.45,0,0,1-.59.82l-27.81,30.31a4.45,4.45,0,0,1-3.3,1.44,4.56,4.56,0,0,1-1.75-.35,4.52,4.52,0,0,1-3-4.86l5.63-40.75a4.52,4.52,0,0,1,4.46-3.88m0-6h0a10.54,10.54,0,0,0-10.4,9.06L459.5,343a10.68,10.68,0,0,0,18.39,8.65l27.81-30.31a10.11,10.11,0,0,0,1.07-1.4A13.61,13.61,0,0,0,486,302.44a10.5,10.5,0,0,0-10.42-9.22Z" transform="translate(-118.08 -181.85)"/><path class="cls-5" d="M466.17,285.93h15.16A11.63,11.63,0,0,1,493,297.56v0a11.63,11.63,0,0,1-11.63,11.63H466.17a5.81,5.81,0,0,1-5.81-5.81V291.75a5.81,5.81,0,0,1,5.81-5.81Z" transform="matrix(0.14, -0.99, 0.99, 0.14, -1.45, 547.14)"/><line class="cls-5" x1="362.64" y1="139.99" x2="356.07" y2="147.46"/><line class="cls-5" x1="368.02" y1="130.56" x2="372.33" y2="134.88"/><path class="cls-5" d="M426.09,359.33V307.85s1.67-7.68,13.17-14.35,34.56-7.17,34.56-7.17l17.3,6.67,1.68,6.67v59.5s-12.08,2.25-31,2.25A303.55,303.55,0,0,1,426.09,359.33Z" transform="translate(-118.08 -181.85)"/><path class="cls-5" d="M434.79,278.17s-8.06,11.5-7,14.83,16.9,15.6,24.92,14.42c5.5-.81,9.07-16,9.07-16Z" transform="translate(-118.08 -181.85)"/><path class="cls-5" d="M475.43,293.5s2.51,11.75,5.4,12.25,15.14-4.24,16-6.06c1.41-3.12-4.36-15.69-4.36-15.69Z" transform="translate(-118.08 -181.85)"/><path class="cls-14" d="M474.72,339c0,2.1-6.45,12.35-6.45,12.35s-6.45-9.56-6.45-12.35c0-13.06,3.44-37.65,6.45-37.65S474.72,325.9,474.72,339Z" transform="translate(-118.08 -181.85)"/><path class="cls-9" d="M462.09,297s-.17,9.4,6.17,9.7,6.56-9.7,6.56-9.7Z" transform="translate(-118.08 -181.85)"/><path class="cls-13" d="M364.9,384.25A10,10,0,0,1,356,369.53a6.83,6.83,0,0,1,.37-.88l18-35.18a7.21,7.21,0,0,1,1.83-2.27,7,7,0,0,1,1.06-.94l32.13-23a7.28,7.28,0,0,1,4.26-1.36,7.32,7.32,0,0,1,7.24,8.54,7.28,7.28,0,0,1-3,4.77l-31.19,22.29L373,368.36a10,10,0,0,1-8.14,15.89Z" transform="translate(-118.08 -181.85)"/><path class="cls-4" d="M413.65,308.93a4.33,4.33,0,0,1,2.53,7.86L384.4,339.51l-15,29.33a7,7,0,1,1-10.61,1.89,4.29,4.29,0,0,1,.28-.72l18-35.17a12,12,0,0,1,2-2.14l32.13-23a4.31,4.31,0,0,1,2.51-.8m0-6a10.26,10.26,0,0,0-6,1.92l-32.13,23a9.9,9.9,0,0,0-1.38,1.19,10.16,10.16,0,0,0-2.44,3.09l-18,35.17a9.62,9.62,0,0,0-.46,1,13,13,0,1,0,23.19-.1l12.6-24.69,30.59-21.87a10.33,10.33,0,0,0-6-18.74Z" transform="translate(-118.08 -181.85)"/><path class="cls-5" d="M411.92,296.56h14.72a11.29,11.29,0,0,1,11.29,11.29v0a11.29,11.29,0,0,1-11.29,11.29H411.92a5.64,5.64,0,0,1-5.64-5.64V302.2a5.64,5.64,0,0,1,5.64-5.64Z" transform="translate(-217.74 99.48) rotate(-33.19)"/><path class="cls-12" d="M437.92,305s2.24,13.69-2.5,22.71c-7.7,14.67-18,19.67-18,19.67" transform="translate(-118.08 -181.85)"/><line class="cls-12" x1="299.34" y1="168.74" x2="299.34" y2="160.57"/><line class="cls-8" x1="359.53" y1="192.93" x2="366.43" y2="192.71"/><line class="cls-8" x1="255.11" y1="186.09" x2="252.66" y2="190.65"/><path class="cls-13" d="M511.44,266.39a14.31,14.31,0,1,1,14.31-14.31A14.33,14.33,0,0,1,511.44,266.39Z" transform="translate(-118.08 -181.85)"/><path class="cls-4" d="M511.44,240.76a11.31,11.31,0,1,1-11.31,11.31,11.31,11.31,0,0,1,11.31-11.31m0-6a17.31,17.31,0,1,0,17.31,17.31,17.33,17.33,0,0,0-17.31-17.31Z" transform="translate(-118.08 -181.85)"/><path class="cls-15" d="M513.91,202.44S519,209,519,220.83a28.67,28.67,0,0,1-6.53,17.86s-7.87-.13-12.66-6.4-8.66-18.13-8.66-18.13Z" transform="translate(-118.08 -181.85)"/><path class="cls-13" d="M467.32,297.41A48.24,48.24,0,0,1,423.91,270c-.57-1.19-1.09-2.44-1.57-3.73a14.29,14.29,0,0,1-12.84-8.13,14.23,14.23,0,0,1,11.2-20.23,48.23,48.23,0,0,1,26-31.84,47.58,47.58,0,0,1,20.52-4.63,48.24,48.24,0,0,1,43.41,27.46,48,48,0,0,1-43.35,68.56Z" transform="translate(-118.08 -181.85)"/><path class="cls-4" d="M467.26,204.39A45,45,0,1,1,424.42,263a11.23,11.23,0,1,1-2.06-22.27l.77,0a45,45,0,0,1,44.14-36.41m0-6a50.56,50.56,0,0,0-21.81,4.92,51.25,51.25,0,0,0-27.15,31.94,17.23,17.23,0,0,0,1.95,33.84q.46,1.09,1,2.14a51.26,51.26,0,0,0,46.12,29.17,51,51,0,0,0,46.06-72.85,51.26,51.26,0,0,0-46.12-29.17Z" transform="translate(-118.08 -181.85)"/><path class="cls-15" d="M438.34,216.83s-1.08,14.13-3.21,19.46-10.29,8-10.29,8v-7a17.16,17.16,0,0,0-8.79,2,16.5,16.5,0,0,0-5.92,5.29s-9.23-16.94-6.44-28.72c2.23-9.44,17-13.73,17-13.73s9.61-13.62,25.82-15.73c17.9-2.33,25.59,2.38,38.59,2.68a72.28,72.28,0,0,0,25.45-4.28s-1.33,4.27-2.27,5.2a49.1,49.1,0,0,0-3.2,4.27,57.77,57.77,0,0,0,14.39-5.06c3.84-1.93,5.6-3.07,5.6-3.07S519.51,214.4,490.32,220C464,225.12,438.34,216.83,438.34,216.83Z" transform="translate(-118.08 -181.85)"/><path class="cls-16" d="M478.37,260.77a7.56,7.56,0,0,1-7.55-7.55v-7.9a7.55,7.55,0,0,1,15.1,0v7.9A7.56,7.56,0,0,1,478.37,260.77Z" transform="translate(-118.08 -181.85)"/><path class="cls-4" d="M478.37,240.76a4.56,4.56,0,0,1,4.55,4.55v7.9a4.55,4.55,0,0,1-9.1,0v-7.9a4.56,4.56,0,0,1,4.55-4.55m0-6a10.56,10.56,0,0,0-10.55,10.55v7.9a10.55,10.55,0,0,0,21.1,0v-7.9a10.56,10.56,0,0,0-10.55-10.55Z" transform="translate(-118.08 -181.85)"/><line class="cls-17" x1="336.05" y1="61.64" x2="336.05" y2="69.71"/><line class="cls-17" x1="377.79" y1="62.11" x2="389.12" y2="62.11"/><line class="cls-17" x1="383.77" y1="62.64" x2="383.77" y2="68.71"/><path class="cls-18" d="M447.87,233a13.7,13.7,0,0,1,6.25-1.27,13.49,13.49,0,0,1,6.27,1.14" transform="translate(-118.08 -181.85)"/><path class="cls-18" d="M457.3,267.73a16.64,16.64,0,0,0,6.79,6.75c3.71,2,9.73,1.49,9.73,1.49" transform="translate(-118.08 -181.85)"/><path class="cls-18" d="M417.87,265.7a21.47,21.47,0,0,0,6.77.28,26.32,26.32,0,0,0,4.39-1.19" transform="translate(-118.08 -181.85)"/><line class="cls-8" x1="301.28" y1="18.87" x2="295.97" y2="15.55"/><line class="cls-8" x1="301.9" y1="12.32" x2="302.73" y2="17.21"/><line class="cls-15" x1="313.71" y1="33.15" x2="320.25" y2="34.99"/><path class="cls-4" d="M499.28,510.9h-.16c-3.62-.22-6.4-3.08-6.2-6.38l.09-1.42a6.27,6.27,0,0,1,6.49-5.59h.45l29,2.75a13.18,13.18,0,0,1,3.86.78,4.74,4.74,0,0,1,3.38,4.47,5,5,0,0,1-1.37,3.63,7.21,7.21,0,0,1-5.53,2Z" transform="translate(-118.08 -181.85)"/><path class="cls-4" d="M499.5,500.5h.26l28.9,2.74c2,.12,4.62.67,4.52,2.31.09,1.44-1.27,2.63-3.9,2.63H529l-29.69-.28a3.33,3.33,0,0,1-3.39-3.2l.09-1.42a3.28,3.28,0,0,1,3.49-2.77m0-6h0a9.27,9.27,0,0,0-9.48,8.4l-.09,1.42a8.76,8.76,0,0,0,2.79,6.9,9.94,9.94,0,0,0,6.22,2.66h.31l29.63.28h.41a10.12,10.12,0,0,0,7.71-3,8,8,0,0,0,2.19-5.7,7.74,7.74,0,0,0-5.27-7.23,15.83,15.83,0,0,0-4.77-1l-28.81-2.73-.2,0-.63,0Z" transform="translate(-118.08 -181.85)"/><line class="cls-5" x1="47.94" y1="333.31" x2="709.9" y2="333.31"/></svg>