<svg id="Artwork" xmlns="http://www.w3.org/2000/svg" xmlns:xlink="http://www.w3.org/1999/xlink" viewBox="0 0 667.95 380.16"><defs><style>.cls-1,.cls-15,.cls-4{fill:none;}.cls-2{fill:#004d40;}.cls-3{fill:#00e676;}.cls-11,.cls-12,.cls-14,.cls-16,.cls-17,.cls-3,.cls-4,.cls-5,.cls-7,.cls-9{stroke:#004d40;}.cls-11,.cls-12,.cls-14,.cls-15,.cls-16,.cls-3,.cls-4,.cls-5,.cls-7,.cls-9{stroke-linecap:round;}.cls-11,.cls-15,.cls-16,.cls-17,.cls-3,.cls-4,.cls-5,.cls-7,.cls-9{stroke-linejoin:round;}.cls-11,.cls-12,.cls-14,.cls-15,.cls-16,.cls-17,.cls-3,.cls-4,.cls-5,.cls-7{stroke-width:6px;}.cls-5{fill:#006064;}.cls-11,.cls-14,.cls-6{fill:#ffccbc;}.cls-7,.cls-9{fill:#e0f2f1;}.cls-8{clip-path:url(#clip-path);}.cls-9{stroke-width:6.43px;}.cls-10{clip-path:url(#clip-path-2);}.cls-12{fill:#00b0ff;}.cls-12,.cls-14{stroke-miterlimit:10;}.cls-13{fill:#ff8a80;}.cls-15{stroke:#e0f2f1;}.cls-16{fill:#ff5252;}.cls-17{fill:#ffd600;}</style><clipPath id="clip-path" transform="translate(-166.02 -159.92)"><rect class="cls-1" x="207.91" y="422.55" width="146.66" height="9" rx="4.5" ry="4.5" transform="translate(-222.58 339.72) rotate(-46.8)"/></clipPath><clipPath id="clip-path-2" transform="translate(-166.02 -159.92)"><path class="cls-1" d="M417.63,500.08l-16.33-49.76V398a4.37,4.37,0,0,0-4.36-4.36h-.28a4.37,4.37,0,0,0-4.36,4.36v52.9a10.34,10.34,0,0,0,.28,1.69l16.49,50.26a4.37,4.37,0,0,0,5.5,2.78l.27-.09A4.37,4.37,0,0,0,417.63,500.08Z"/></clipPath></defs><title>BIC001 - 03 More Trees</title><path class="cls-2" d="M389.58,536.33a5,5,0,0,1-4.88-4.84,3,3,0,0,1,.06-.75,5.11,5.11,0,0,1,1.18-3,4.82,4.82,0,0,1,3.47-1.73l6.69-.29c.06-.16.14-.31.22-.47l13.22-25c.12-.23.21-.45.29-.65a4.25,4.25,0,0,1,3.92-3.08,5.51,5.51,0,0,1,2.2.51l2.65-.22h.25a3,3,0,0,1,.76.1,10,10,0,0,1,6.61,5.8,8.63,8.63,0,0,1-.66,7.89L411.39,533.5a6,6,0,0,1-5.46,2.87l-.33,0h-.12Z" transform="translate(-166.02 -159.92)"/><path class="cls-2" d="M413.75,499.49a3.89,3.89,0,0,1,1.64.57l3.46-.29c3.69,1,6.53,5.31,4.14,9.23l-14.2,23a3.11,3.11,0,0,1-2.91,1.38h-.18l-.22,0-15.83-.07h-.07a2,2,0,0,1-1.88-2l.06-.23a2,2,0,0,1,1.78-2.12l9.32-.4a2.54,2.54,0,0,1,.11-1.95l13.22-25c.61-1.15.67-2.13,1.56-2.13m0-6c-2.12,0-5,.86-6.69,4.94-.06.15-.13.33-.17.4l-12.66,24-4.94.21a8,8,0,0,0-7.5,7.34,6,6,0,0,0-.08,1.27,8,8,0,0,0,7.88,7.71h.14l15.74.07h.28l.38,0A9,9,0,0,0,414,535l14.13-22.88a11.74,11.74,0,0,0,.9-10.61,13,13,0,0,0-8.63-7.58,6,6,0,0,0-1.51-.19l-.5,0-2,.16a8.07,8.07,0,0,0-2.65-.47Z" transform="translate(-166.02 -159.92)"/><line class="cls-3" x1="319.67" y1="376.47" x2="319.67" y2="349.81"/><line class="cls-3" x1="411.43" y1="376.47" x2="404.87" y2="334.88"/><line class="cls-3" x1="423.25" y1="334.88" x2="409.21" y2="357.37"/><line class="cls-3" x1="532.35" y1="375.34" x2="537.15" y2="234.27"/><polyline class="cls-4" points="457.64 265.88 474.16 279.28 492.16 280.62"/><polyline class="cls-4" points="484.79 262.93 492.16 280.62 534.3 307.84"/><polyline class="cls-4" points="536.17 262.93 566.11 246.72 571.2 227.43"/><path class="cls-3" d="M791,387.89c0,.19-24.38,6.3-78.83,13.1-40.54,5.06-81.61,6.89-81.61,6.89s4.06-11.11-.81-17.49-4.79-14.5-4.79-14.5-6.43-20.07,5.67-33.87c8.79-10,23-11.87,23-11.87s5.47-40.44,49.13-38.25c40.54,2,41.25,35.63,41.25,35.63s14.13,3.25,21.38,12.88a41.65,41.65,0,0,1,7.87,20.47s8.95.83,15.08,7.39C795.66,376.13,791,387.89,791,387.89Z" transform="translate(-166.02 -159.92)"/><path class="cls-5" d="M392.58,245.77s43.5,3.88,46.5,5.63,11,28.12,14.75,46.5,5,34.88,4.13,37.38-27,23.5-31.25,23.25S414,354.14,414,354.14l-19.42-60.53-3-9.22Z" transform="translate(-166.02 -159.92)"/><path class="cls-6" d="M357.34,342.87a7.49,7.49,0,0,1-5.51-2.41L324,310.15a7.22,7.22,0,0,1-.83-1.11,10.62,10.62,0,1,1,18.87-6.68,10.47,10.47,0,0,1-.9,4.28L347,313l-2.41-17.4a7.51,7.51,0,0,1,6.4-8.46,7.5,7.5,0,0,1,8.46,6.4L365,334.25a7.79,7.79,0,0,1-7.7,8.62Z" transform="translate(-166.02 -159.92)"/><path class="cls-2" d="M352,290a4.52,4.52,0,0,1,4.46,3.88l5.63,40.75a4.52,4.52,0,0,1-3,4.86,4.56,4.56,0,0,1-1.75.35,4.45,4.45,0,0,1-3.3-1.44l-27.81-30.31a4.45,4.45,0,0,1-.59-.82,7.63,7.63,0,1,1,11.8-.28l13.8,15-3.72-26.92A4.5,4.5,0,0,1,352,290m0-6a10.53,10.53,0,0,0-10.42,9.22,13.61,13.61,0,0,0-20.82,17.53,10.1,10.1,0,0,0,1.07,1.4l27.81,30.31A10.69,10.69,0,0,0,368,333.84l-5.63-40.75A10.54,10.54,0,0,0,352,284Z" transform="translate(-166.02 -159.92)"/><path class="cls-7" d="M340.36,276.74h15.16a11.63,11.63,0,0,1,11.63,11.63v0A11.63,11.63,0,0,1,355.53,300H340.36a5.81,5.81,0,0,1-5.81-5.81V282.55a5.81,5.81,0,0,1,5.81-5.81Z" transform="translate(-52.78 515.48) rotate(-97.87)"/><line class="cls-7" x1="180.78" y1="152.72" x2="187.34" y2="160.19"/><line class="cls-7" x1="175.39" y1="143.3" x2="171.08" y2="147.61"/><path class="cls-6" d="M413.23,508.88a7.35,7.35,0,0,1-7-5.06l-16.49-50.26a6.6,6.6,0,0,1-.24-1,7.15,7.15,0,0,1-.19-1.62V398a7.37,7.37,0,0,1,7.36-7.36h.28a7.37,7.37,0,0,1,7.36,7.36v51.81l16.18,49.3a7.37,7.37,0,0,1-4.7,9.28l-.27.09a7.32,7.32,0,0,1-2.29.37Z" transform="translate(-166.02 -159.92)"/><path class="cls-2" d="M396.95,393.67a4.37,4.37,0,0,1,4.36,4.36v52.29l16.33,49.76a4.37,4.37,0,0,1-2.78,5.5l-.27.09a4.32,4.32,0,0,1-1.35.22,4.38,4.38,0,0,1-4.15-3l-16.49-50.26a10.35,10.35,0,0,1-.28-1.69V398a4.37,4.37,0,0,1,4.36-4.36h.28m0-6h-.28A10.37,10.37,0,0,0,386.31,398v52.9a10.05,10.05,0,0,0,.25,2.21,9.52,9.52,0,0,0,.33,1.36l16.49,50.26a10.36,10.36,0,0,0,13.07,6.61l.27-.09a10.37,10.37,0,0,0,6.61-13.07l-16-48.85V398a10.37,10.37,0,0,0-10.36-10.36Z" transform="translate(-166.02 -159.92)"/><path class="cls-6" d="M234.12,484.71a7.49,7.49,0,0,1-5.47-12.63l94.24-100.35a7.51,7.51,0,0,1,10.6-.33,7.51,7.51,0,0,1,.33,10.6L239.59,482.35a7.53,7.53,0,0,1-5.47,2.36Z" transform="translate(-166.02 -159.92)"/><path class="cls-2" d="M328.36,372.38a4.48,4.48,0,0,1,3.08,1.21h0a4.51,4.51,0,0,1,.2,6.36L237.41,480.3a4.5,4.5,0,0,1-6.56-6.16l94.24-100.35a4.49,4.49,0,0,1,3.28-1.41m0-6a10.54,10.54,0,0,0-7.66,3.31L226.47,470a10.49,10.49,0,0,0,7.65,17.68,10.54,10.54,0,0,0,7.66-3.31L336,384.06a10.49,10.49,0,0,0-7.65-17.68Z" transform="translate(-166.02 -159.92)"/><polygon class="cls-5" points="166.56 187.72 136.56 220.72 163.56 245.72 183.56 222.72 210.56 230.72 210.56 252.72 249.56 252.72 249.56 198.72 220.56 186.72 166.56 187.72"/><path class="cls-7" d="M333.58,289.64l-1,58s12.09,5.4,38,10c25.67,4.56,45,1.88,45,1.88V297.64l-3-22a77.55,77.55,0,0,0-6-7,75.69,75.69,0,0,0-7-6,125.26,125.26,0,0,1-32,8C349.58,272.64,333.58,289.64,333.58,289.64Z" transform="translate(-166.02 -159.92)"/><line class="cls-5" x1="210.56" y1="233.72" x2="210.56" y2="224.72"/><line class="cls-5" x1="186.93" y1="223.72" x2="177.03" y2="220.61"/><g class="cls-8"><path class="cls-9" d="M236.82,458.32l17.43,15.86s-2.44,9.92-4.57,12.28-22.55,10.39-28.5-.14S236.82,458.32,236.82,458.32Z" transform="translate(-166.02 -159.92)"/></g><g class="cls-10"><path class="cls-9" d="M396.72,493.86l21.41-7.79s8.36,5.92,9.51,8.89-.81,24.82-12.88,25.42S396.72,493.86,396.72,493.86Z" transform="translate(-166.02 -159.92)"/></g><path class="cls-7" d="M347.53,277.54s-5.41,17.52-7.24,16.72c-3.32-1.45-10-2.84-10.27-8.3-.22-5.22,2.32-13.89,2.32-13.89Z" transform="translate(-166.02 -159.92)"/><path class="cls-7" d="M362.08,278.64s7.84,13.95,9.51,14.94c1.38.81,19.86-11.92,25.66-20.53,3.3-4.89,5.58-11.16,2.46-16.17a30.24,30.24,0,0,0-5.38-6.37Z" transform="translate(-166.02 -159.92)"/><path class="cls-6" d="M314.27,269.52a14.31,14.31,0,1,1,14.31-14.31A14.33,14.33,0,0,1,314.27,269.52Z" transform="translate(-166.02 -159.92)"/><path class="cls-2" d="M314.27,243.89A11.31,11.31,0,1,1,303,255.21a11.31,11.31,0,0,1,11.31-11.31m0-6a17.31,17.31,0,1,0,17.31,17.31,17.33,17.33,0,0,0-17.31-17.31Z" transform="translate(-166.02 -159.92)"/><polygon class="cls-11" points="198.2 119.54 189.32 136.99 180.41 120.33 198.2 119.54"/><path class="cls-6" d="M351.27,281.52a48.31,48.31,0,1,1,37.42-78.87,14.31,14.31,0,0,1,10.72,26.48c.12,1.38.18,2.75.18,4.08A48.37,48.37,0,0,1,351.27,281.52Z" transform="translate(-166.02 -159.92)"/><path class="cls-2" d="M351.27,187.89a45.24,45.24,0,0,1,36.48,18.44,11.31,11.31,0,1,1,8.41,20.79,45.31,45.31,0,1,1-44.89-39.24m0-6a51.31,51.31,0,1,0,51.31,51.31q0-1.18-.06-2.38a17.3,17.3,0,0,0-12.79-31.57,51.56,51.56,0,0,0-38.47-17.37Z" transform="translate(-166.02 -159.92)"/><circle class="cls-12" cx="212.49" cy="148.45" r="6.92"/><path class="cls-6" d="M419,345.87a7.49,7.49,0,0,1-5.51-2.41l-27.81-30.31a7.22,7.22,0,0,1-.83-1.11,10.62,10.62,0,1,1,18.87-6.68,10.47,10.47,0,0,1-.9,4.28l5.8,6.32-2.41-17.4a7.51,7.51,0,0,1,6.4-8.46,7.5,7.5,0,0,1,8.46,6.4l5.63,40.75a7.79,7.79,0,0,1-7.7,8.62Z" transform="translate(-166.02 -159.92)"/><path class="cls-2" d="M413.6,293a4.52,4.52,0,0,1,4.46,3.88l5.63,40.75a4.52,4.52,0,0,1-3,4.86,4.56,4.56,0,0,1-1.75.35,4.45,4.45,0,0,1-3.3-1.44l-27.81-30.31a4.45,4.45,0,0,1-.59-.82,7.63,7.63,0,1,1,11.8-.28l13.8,15-3.72-26.92A4.5,4.5,0,0,1,413.6,293m0-6a10.53,10.53,0,0,0-10.42,9.22,13.61,13.61,0,0,0-20.82,17.53,10.1,10.1,0,0,0,1.07,1.4l27.81,30.31a10.69,10.69,0,0,0,18.39-8.65L424,296.09A10.54,10.54,0,0,0,413.6,287Z" transform="translate(-166.02 -159.92)"/><path class="cls-7" d="M402,279.74h15.16a11.63,11.63,0,0,1,11.63,11.63v0A11.63,11.63,0,0,1,417.15,303H402a5.81,5.81,0,0,1-5.81-5.81V285.55a5.81,5.81,0,0,1,5.81-5.81Z" transform="translate(14.31 579.94) rotate(-97.87)"/><line class="cls-7" x1="242.4" y1="155.72" x2="248.96" y2="163.19"/><line class="cls-7" x1="237.01" y1="146.3" x2="232.71" y2="150.61"/><path class="cls-4" d="M337.15,231.27s2.88,7,8.79,4.14,1.51-10,1.51-10" transform="translate(-166.02 -159.92)"/><path class="cls-4" d="M302.15,248.27s2.88,7,8.79,4.14,1.51-10,1.51-10" transform="translate(-166.02 -159.92)"/><path class="cls-2" d="M342.87,266.85a3.9,3.9,0,0,1-3.58-1.82,3.18,3.18,0,0,1,.13-3.25c.5-.82,1-1.67,1.43-2.46a17.1,17.1,0,0,1,2.54-3.83,3.14,3.14,0,0,1,2.15-.88,3.52,3.52,0,0,1,3,2,7.4,7.4,0,0,1-.14,7.12A6.51,6.51,0,0,1,342.87,266.85Z" transform="translate(-166.02 -159.92)"/><path class="cls-2" d="M345.55,257.09c1,0,2.08,3.06.75,5.31a4,4,0,0,1-3.42,2c-1.07,0-1.81-.51-1.33-1.27,1.44-2.33,2.68-5,3.56-5.8a.64.64,0,0,1,.44-.2m0-5h0a5.62,5.62,0,0,0-3.86,1.56,18.44,18.44,0,0,0-3,4.43c-.45.8-.91,1.62-1.37,2.37a5.64,5.64,0,0,0-.19,5.78,6.4,6.4,0,0,0,5.76,3.1,9,9,0,0,0,7.71-4.4,9.86,9.86,0,0,0,.16-9.62,6,6,0,0,0-5.19-3.21Z" transform="translate(-166.02 -159.92)"/><path class="cls-13" d="M327.62,254.34a6.93,6.93,0,0,1-6-3.45L318.23,245a6.91,6.91,0,0,1,12-6.91l3.39,5.87a6.9,6.9,0,0,1-6,10.36Z" transform="translate(-166.02 -159.92)"/><path class="cls-2" d="M324.2,237.66a3.91,3.91,0,0,1,3.39,2l3.39,5.87a3.92,3.92,0,0,1-1.43,5.34h0a3.87,3.87,0,0,1-1.94.52,3.91,3.91,0,0,1-3.39-2l-3.39-5.87a3.92,3.92,0,0,1,1.43-5.34h0a3.87,3.87,0,0,1,1.94-.52m0-6h0a9.9,9.9,0,0,0-8.57,14.86l3.39,5.87a9.91,9.91,0,0,0,17.16-9.91l-3.39-5.87a9.94,9.94,0,0,0-8.59-5Z" transform="translate(-166.02 -159.92)"/><polygon class="cls-6" points="187.22 126.69 180.37 113.85 194.85 115.01 196.47 116.38 191.85 125.39 187.22 126.69"/><path class="cls-14" d="M366.56,279a44.32,44.32,0,0,1-5.29,1.38l-3.86.71" transform="translate(-166.02 -159.92)"/><path class="cls-5" d="M399.72,285.91a19.84,19.84,0,0,0-3.09,3.55,19.18,19.18,0,0,0-2.1,4.15" transform="translate(-166.02 -159.92)"/><path class="cls-5" d="M426.77,331.94a19.51,19.51,0,0,0,9.6-1.11,18.53,18.53,0,0,0,6.22-5.05" transform="translate(-166.02 -159.92)"/><line class="cls-5" x1="276.16" y1="160.19" x2="278.02" y2="172.02"/><path class="cls-5" d="M419.58,277.56A56.28,56.28,0,0,1,431,274.85" transform="translate(-166.02 -159.92)"/><line class="cls-5" x1="255.01" y1="104.94" x2="272.85" y2="92.56"/><path class="cls-3" d="M473.18,514.52s3.13,1.92,12.51,1.92,12.53-1.92,12.53-1.92,2.74-19.35-12.57-19.23S473.18,514.52,473.18,514.52Z" transform="translate(-166.02 -159.92)"/><path class="cls-3" d="M536,504.38a297.77,297.77,0,0,0,39.22-3.59c22.8-3.44,37.34-8,37.34-8s4.55-12.15-4-18.59c-5.75-4.35-13.56-3.41-13.56-3.41S590.39,444,565.9,448.37c-22.17,4-20.19,24.69-20.19,24.69s-10.12,2.56-12.92,12.37S536,504.38,536,504.38Z" transform="translate(-166.02 -159.92)"/><path class="cls-3" d="M686.33,423.89s-15.51,2.91-46.36,4.86-46.64,1-46.64,1-1.84-5.84,2.16-9.9c3-3,8.46-2.06,8.46-2.06s-13.69-26.3,4.22-38.23c14.88-9.92,26.8-2.19,26.8-2.19a36,36,0,0,1,26.17-.43c14.6,5.51,13.08,22.56,13.08,22.56s9,1.16,12.19,7.68C690.32,415.11,686.33,423.89,686.33,423.89Z" transform="translate(-166.02 -159.92)"/><path class="cls-2" d="M231.51,495.56a7.33,7.33,0,0,1-5-2l-.14-.13-25.18-26.68a8.26,8.26,0,0,1-2.71-6.17,6.51,6.51,0,0,1,2.15-4.62,5.24,5.24,0,0,1,3.82-1.59c2.57,0,5,1.73,6.56,3.19L238.24,481a7.48,7.48,0,0,1,.29,10.57L237,493.15A7.61,7.61,0,0,1,231.51,495.56Z" transform="translate(-166.02 -159.92)"/><path class="cls-2" d="M204.43,457.39c1.53,0,3.31,1.26,4.56,2.43l27.19,23.37a4.49,4.49,0,0,1,.14,6.33l-1.47,1.58a4.58,4.58,0,0,1-3.35,1.46,4.34,4.34,0,0,1-3-1.16l-25.18-26.68c-2.46-2.47-2.36-5.08-.66-6.58a2.28,2.28,0,0,1,1.74-.76m0-6a8.28,8.28,0,0,0-5.9,2.43,9.47,9.47,0,0,0-3.08,6.69,11.48,11.48,0,0,0,3.58,8.39l25.13,26.63.27.27a10.32,10.32,0,0,0,7.07,2.77,10.62,10.62,0,0,0,7.73-3.37l1.47-1.58a10.53,10.53,0,0,0,2.85-7.45,10.28,10.28,0,0,0-3.28-7.36l-.18-.16L213,455.34c-2-1.83-5-4-8.56-4Z" transform="translate(-166.02 -159.92)"/><line class="cls-5" x1="265.65" y1="110.92" x2="268.13" y2="118.95"/><line class="cls-7" x1="3" y1="377.16" x2="664.95" y2="377.16"/><path class="cls-4" d="M632.48,376.18a36.14,36.14,0,0,1,7.3,4.53,32.23,32.23,0,0,1,4.4,4.53" transform="translate(-166.02 -159.92)"/><line class="cls-4" x1="485.27" y1="170.68" x2="492.98" y2="169"/><path class="cls-4" d="M674.6,327.79a26.65,26.65,0,0,1,17.25,3.92c8.52,5.53,9.8,17.18,9.8,17.18" transform="translate(-166.02 -159.92)"/><path class="cls-4" d="M747.1,328.44c.25.09-2.81-.92-6.43-1.78a52.7,52.7,0,0,0-5.58-.92" transform="translate(-166.02 -159.92)"/><path class="cls-4" d="M775.34,361.23s-2.73-.5-4.15-.67-3.81-.34-3.81-.34" transform="translate(-166.02 -159.92)"/><line class="cls-4" x1="377.99" y1="313.72" x2="384.59" y2="311.46"/><path class="cls-15" d="M471.94,330.16s1.49,5.68-.45,9.75a20.52,20.52,0,0,1-6,6.92" transform="translate(-166.02 -159.92)"/><path class="cls-15" d="M481.74,339.38a14,14,0,0,1-1.32,5.64,21.42,21.42,0,0,1-2.56,3.31" transform="translate(-166.02 -159.92)"/><path class="cls-16" d="M574.32,323.27a6.07,6.07,0,1,0-6.29,4.23,6.07,6.07,0,1,0,6.29-4.23Z" transform="translate(-166.02 -159.92)"/><path class="cls-16" d="M585.94,319a6.07,6.07,0,1,0-7.18,2.42,6.07,6.07,0,1,0,7.18-2.42Z" transform="translate(-166.02 -159.92)"/><line class="cls-4" x1="404.27" y1="148.87" x2="416.61" y2="175.6"/><path class="cls-17" d="M785.59,424.92a6.07,6.07,0,1,0-7.29-2.08,6.07,6.07,0,1,0,7.29,2.08Z" transform="translate(-166.02 -159.92)"/><path class="cls-17" d="M796.34,431.05a6.07,6.07,0,1,0-6.48-3.93,6.07,6.07,0,1,0,6.48,3.93Z" transform="translate(-166.02 -159.92)"/><line class="cls-4" x1="628.03" y1="252.58" x2="615.56" y2="279.26"/><path class="cls-3" d="M400.09,228.91A14.11,14.11,0,0,1,396.6,230a19,19,0,0,1-6.13-.24" transform="translate(-166.02 -159.92)"/><path class="cls-17" d="M390.19,202.21a13.87,13.87,0,0,0-7.25,4.21,14.88,14.88,0,0,0-3,6.55s-8.88-3.23-12.47-9.59-3.18-9.35-3.18-9.35l7.18-4.2s7.74-6.1,11.53-2.71S390.19,202.21,390.19,202.21Z" transform="translate(-166.02 -159.92)"/><circle class="cls-2" cx="228.31" cy="55.66" r="4.09"/><path class="cls-5" d="M301.15,221.78s-31,19-24.82,24.95c7.67,7.3,68.54-35.24,68.54-35.24Z" transform="translate(-166.02 -159.92)"/><path class="cls-12" d="M385.71,191s-27.8,17.54-54.17,25.9-36,9.36-36,9.36S283,186.09,320.35,170.64C372.61,149,385.71,191,385.71,191Z" transform="translate(-166.02 -159.92)"/><circle class="cls-7" cx="147.24" cy="42.06" r="8.83"/><line class="cls-7" x1="159.29" y1="3" x2="161.03" y2="7.84"/></svg>