<svg xmlns="http://www.w3.org/2000/svg" viewBox="0 0 163.89 191.02"><defs><style>.cls-1{isolation:isolate;}.cls-2,.cls-3{fill:#00acc0;}.cls-2,.cls-6{stroke:#004d40;stroke-linecap:round;stroke-linejoin:round;stroke-width:6px;}.cls-4{fill:#004d40;}.cls-5{fill:#fff;opacity:0.12;mix-blend-mode:overlay;}.cls-6{fill:none;}</style></defs><title>Asset 9</title><g class="cls-1"><g id="Layer_2" data-name="Layer 2"><g id="Artwork"><path class="cls-2" d="M68.26,186.81S71.12,188,81.95,188s13.69-1.21,13.69-1.21L81.27,171.1Z"/><path class="cls-3" d="M81.95,175.66c-17.08,0-36.85-11.31-52.87-30.27C12.51,125.78,3,101.79,3,79.56,3,34.48,35.46,3,81.95,3s78.95,31.48,78.95,76.56c0,22.29-9.43,46.28-25.88,65.83C119.06,164.34,99.22,175.66,81.95,175.66Z"/><path class="cls-4" d="M81.95,6c41.94,0,75.95,27.3,75.95,73.56s-41.82,93.1-75.95,93.1C48.34,172.66,6,125.81,6,79.56S40,6,81.95,6m0-6C59.47,0,39,7.46,24.19,21,8.36,35.53,0,55.77,0,79.56c0,22.93,9.76,47.63,26.79,67.77,16.58,19.62,37.2,31.33,55.16,31.33,18.15,0,38.85-11.72,55.36-31.34,16.9-20.08,26.59-44.77,26.59-67.76,0-23.79-8.36-44-24.19-58.55C124.93,7.46,104.42,0,81.95,0Z"/><ellipse class="cls-5" cx="47.11" cy="34.19" rx="25.44" ry="12.72" transform="translate(-11.02 31.08) rotate(-32.91)"/><path class="cls-6" d="M68.88,118.18s4.36-3.75,13.5-3.75c8.63,0,12.63,3.75,12.63,3.75"/><path class="cls-6" d="M36.86,118.64s5.5-2.33,9.08-4.21S53,110.31,53,110.31"/><line class="cls-6" x1="46.03" y1="122.31" x2="46.03" y2="114.94"/><path class="cls-6" d="M127,118.64s-5.5-2.33-9.08-4.21-7.08-4.12-7.08-4.12"/><line class="cls-6" x1="117.86" y1="122.31" x2="117.86" y2="114.94"/></g></g></g></svg>