<svg xmlns="http://www.w3.org/2000/svg" xmlns:xlink="http://www.w3.org/1999/xlink" viewBox="0 0 214.05 210.9"><defs><style>.cls-1,.cls-6{fill:none;}.cls-2{fill:#17ffff;}.cls-3{fill:#004d40;}.cls-4{clip-path:url(#clip-path);}.cls-5{fill:#00e676;}.cls-5,.cls-6{stroke:#004d40;stroke-linecap:round;stroke-linejoin:round;stroke-width:6px;}</style><clipPath id="clip-path"><circle class="cls-1" cx="106.24" cy="109.4" r="95.5"/></clipPath></defs><title>Asset 5</title><g id="Layer_2" data-name="Layer 2"><g id="Artwork"><path class="cls-2" d="M106.24,207.9a98.5,98.5,0,1,1,98.5-98.5A98.61,98.61,0,0,1,106.24,207.9Z"/><path class="cls-3" d="M106.24,13.9a95.5,95.5,0,1,1-95.5,95.5,95.5,95.5,0,0,1,95.5-95.5m0-6a101.5,101.5,0,1,0,101.5,101.5A101.61,101.61,0,0,0,106.24,7.9Z"/><g class="cls-4"><path class="cls-5" d="M203.21,154.93s-9.19-5.17-14.3-6.48-10.47-1.05-18.88,3.68c-5.93,3.34-8.91,7.2-13.9,6.28-4.59-.84-18.24-12.42-19.29-19.65s7.62-26.08,13.47-28.18c5.68-2,13.15,3.5,16.29,3.41s8.77-1.92,11.79-3c2.67-1,1.89-16.54,7.83-18,7.66-1.94,14.45,8.9,23.09,26.5,5.58,11.36-4.16,24.39-4.16,24.39Z"/><path class="cls-5" d="M164.71,26.66s-8.17,11.42-5.32,20.24c2.13,6.58,9.75,7.68,14.57,15,7.4,11.25,18.8,8.93,24.42,6.06s-16.66-29.32-22.16-32.2S164.71,26.66,164.71,26.66Z"/><path class="cls-5" d="M133.74,45.52c5.35-5.06,20.68,7.66,15.38,13.63C143.48,65.48,127.83,51.12,133.74,45.52Z"/><path class="cls-5" d="M149.8,14.53s-6,14.82-22.43,18.12c-12,2.41-20.52,1.13-33,3.63-9.77,1.95-17.87,6.13-31,4.38s-20.62-8-20.62-8S74.61,2,110.24,3,149.8,14.53,149.8,14.53Z"/><path class="cls-5" d="M30.11,39.4a32.92,32.92,0,0,1,3.13,26.13C28.6,81.32,3,93.72,3,93.72s9.36-32,15.11-42.08S30.11,39.4,30.11,39.4Z"/></g><path class="cls-6" d="M58.4,104.77a63.82,63.82,0,0,1,14.38,3.13A57,57,0,0,1,87,114.4"/><line class="cls-6" x1="34.08" y1="90.84" x2="50.83" y2="95.42"/><line class="cls-6" x1="38.98" y1="102.21" x2="41.67" y2="93.53"/><line class="cls-6" x1="114.24" y1="119.78" x2="99.37" y2="113.01"/><line class="cls-6" x1="103.18" y1="124.79" x2="106.64" y2="116.38"/></g></g></svg>