<svg xmlns="http://www.w3.org/2000/svg" xmlns:xlink="http://www.w3.org/1999/xlink" viewBox="0 0 212.44 188.29"><defs><style>.cls-1,.cls-4{fill:none;}.cls-2{fill:#ffccbc;}.cls-3{fill:#004d40;}.cls-4,.cls-7{stroke:#004d40;stroke-linecap:round;stroke-linejoin:round;stroke-width:6px;}.cls-5{clip-path:url(#clip-path);}.cls-6{fill:#ff80ab;}.cls-7{fill:#ff6f40;}.cls-8{fill:#ff8a80;}</style><clipPath id="clip-path"><path class="cls-1" d="M106.22,160.77c32.74-.29,46.65-17.78,40.56-24-6.69-6.85-18.24-2.12-40.56-1.87-22.32-.24-33.87-5-40.56,1.87C59.57,143,73.48,160.48,106.22,160.77Z"/></clipPath></defs><title>Asset 3</title><g id="Layer_2" data-name="Layer 2"><g id="Artwork"><path class="cls-2" d="M188.47,135.76a21,21,0,1,1,21-21A21,21,0,0,1,188.47,135.76Z"/><path class="cls-3" d="M188.47,96.82a18,18,0,1,1-18,18,18,18,0,0,1,18-18m0-6a24,24,0,1,0,24,24,24,24,0,0,0-24-24Z"/><path class="cls-2" d="M24,135.76a21,21,0,1,1,21-21A21,21,0,0,1,24,135.76Z"/><path class="cls-3" d="M24,96.82a18,18,0,1,1-18,18,18,18,0,0,1,18-18m0-6a24,24,0,1,0,24,24,24,24,0,0,0-24-24Z"/><path class="cls-2" d="M106.22,185.29a85,85,0,1,1,85-85A85.1,85.1,0,0,1,106.22,185.29Z"/><path class="cls-3" d="M106.22,18.29a82,82,0,1,1-82,82,82,82,0,0,1,82-82m0-6a88,88,0,1,0,88,88,88.1,88.1,0,0,0-88-88Z"/><line class="cls-4" x1="56.72" y1="95" x2="56.72" y2="105.63"/><line class="cls-4" x1="156.72" y1="95" x2="156.72" y2="105.63"/><path class="cls-3" d="M106.19,163.77c-24.84-.22-40.23-10.12-44-19.22-1.58-3.8-1.09-7.4,1.34-9.89,4-4.05,9-4.6,13.42-4.6,3.13,0,6.67.33,10.78.7,5.3.49,11.3,1,18.54,1.12,7.18-.08,13.18-.63,18.48-1.12,4.1-.38,7.65-.7,10.78-.7,4.42,0,9.47.55,13.42,4.6,2.43,2.49,2.92,6.09,1.34,9.89-3.79,9.1-19.18,19-44,19.22h-.05Z"/><path class="cls-3" d="M135.51,133.06c4.88,0,8.5.85,11.28,3.69,6.09,6.23-7.82,23.73-40.56,24-32.74-.29-46.65-17.78-40.56-24,2.78-2.85,6.4-3.69,11.28-3.69,6.87,0,16.23,1.68,29.29,1.82,13.05-.14,22.42-1.82,29.29-1.82m0-6h0c-3.27,0-6.88.33-11.05.72-5.22.48-11.14,1-18.23,1.1-7.09-.08-13-.62-18.23-1.1-4.18-.38-7.78-.72-11.05-.72-4.75,0-10.81.63-15.57,5.5-3.26,3.34-4,8.25-2,13.14,2.31,5.56,7.86,10.71,15.63,14.51,8.55,4.19,19.32,6.45,31.14,6.56h.11c11.82-.11,22.58-2.37,31.14-6.56,7.77-3.8,13.31-9,15.63-14.51,2-4.89,1.3-9.8-2-13.14-4.76-4.88-10.82-5.5-15.57-5.5Z"/><g class="cls-5"><ellipse class="cls-6" cx="106.22" cy="164.27" rx="25.12" ry="18.93"/></g><path class="cls-7" d="M137.07,47s-15,15.33-52.83,27.17-61.67,11-61.67,11l-1.1,8.56a26.89,26.89,0,0,0-8,3.13,28.58,28.58,0,0,0-5.73,4.81s-17-50.33,25.83-79.5,93.17-9.83,93.17-9.83S161.9,7.13,184.07,29c23.53,23.17,13.83,66.54,13.83,66.54l-7.06-3.31-1.19-8.44s-17-1.87-28.87-11.37a40.77,40.77,0,0,1-14-20.75s-10.21,15.25-13,13.33S137.07,47,137.07,47Z"/><line class="cls-4" x1="126.74" y1="12.29" x2="124.67" y2="3"/><line class="cls-4" x1="127.54" y1="12.18" x2="132.03" y2="6.01"/><path class="cls-7" d="M14.94,84.81a123.9,123.9,0,0,0,12.53.25"/><circle class="cls-8" cx="60.78" cy="115.23" r="3" transform="translate(-64.54 150.81) rotate(-78.04)"/><circle class="cls-8" cx="50.55" cy="115.6" r="3" transform="translate(-73.02 141.1) rotate(-78.04)"/><circle class="cls-8" cx="56.09" cy="122.91" r="3" transform="translate(-75.78 152.31) rotate(-78.04)"/><circle class="cls-8" cx="151.6" cy="115.28" r="3" transform="translate(-20.6 33.92) rotate(-11.96)"/><circle class="cls-8" cx="161.84" cy="115.66" r="3" transform="translate(-20.46 36.05) rotate(-11.96)"/><circle class="cls-8" cx="156.3" cy="122.97" r="3" transform="translate(-22.09 35.06) rotate(-11.96)"/><path class="cls-8" d="M106.22,135.85c-13,0-21.45-8.83-21.45-22.49,0-14.47,9.42-25.81,21.45-25.81s21.45,11.34,21.45,25.81C127.67,127,119.25,135.85,106.22,135.85Z"/><path class="cls-3" d="M106.22,90.56c10.19,0,18.45,9.6,18.45,22.81s-8.26,19.49-18.45,19.49-18.45-6.28-18.45-19.49S96,90.56,106.22,90.56m0-6a22.7,22.7,0,0,0-17.68,8.63,31.64,31.64,0,0,0-6.78,20.17c0,7.87,2.5,14.45,7.24,19,4.39,4.24,10.34,6.47,17.21,6.47s12.82-2.24,17.21-6.47c4.74-4.57,7.24-11.14,7.24-19a31.64,31.64,0,0,0-6.78-20.17,22.7,22.7,0,0,0-17.68-8.63Z"/></g></g></svg>