<svg xmlns="http://www.w3.org/2000/svg" viewBox="0 0 217.06 191.75"><defs><style>.cls-1{fill:#ffccbc;}.cls-2{fill:#004d40;}.cls-3{fill:#006064;}.cls-3,.cls-6,.cls-7,.cls-8{stroke:#004d40;stroke-linecap:round;stroke-width:6px;}.cls-3,.cls-6{stroke-linejoin:round;}.cls-4,.cls-7{fill:#ff8a80;}.cls-5,.cls-6{fill:#e0f2f1;}.cls-7,.cls-8{stroke-linejoin:bevel;}.cls-8{fill:none;}</style></defs><title>Asset 4</title><g id="Layer_2" data-name="Layer 2"><g id="Artwork"><path class="cls-1" d="M108.53,188.75a85,85,0,1,1,85-85A85.1,85.1,0,0,1,108.53,188.75Z"/><path class="cls-2" d="M108.53,21.75a82,82,0,1,1-82,82,82,82,0,0,1,82-82m0-6a88,88,0,1,0,88,88,88.1,88.1,0,0,0-88-88Z"/><path class="cls-3" d="M200.46,59.57c-7.21-30-28.29-47.27-57.26-53.52C124.3,2,92.36,2,73.46,6.06,44.49,12.3,23.4,29.59,16.2,59.57c-4,16.82-4.18,46.83-3.78,68.45.24,13.2,0,23.31.28,25,1.19,7.57,23.18,5.57,23.18,5.57l8.2-1.27V118.51L77.36,72.64S89.94,67.22,97,61.8a86.4,86.4,0,0,0,11.38-10.52A86.4,86.4,0,0,0,119.71,61.8c7,5.42,19.59,10.83,19.59,10.83l33.29,45.87v38.86l8.2,1.27s22,2,23.18-5.57c.27-1.74,0-11.85.28-25C204.64,106.41,204.5,76.39,200.46,59.57Z"/><path class="cls-1" d="M190.66,130a23.41,23.41,0,1,1,23.41-23.41A23.43,23.43,0,0,1,190.66,130Z"/><path class="cls-2" d="M190.66,86.18a20.41,20.41,0,1,1-20.41,20.41,20.41,20.41,0,0,1,20.41-20.41m0-6a26.41,26.41,0,1,0,26.41,26.41,26.44,26.44,0,0,0-26.41-26.41Z"/><path class="cls-1" d="M26.41,130a23.41,23.41,0,1,1,23.41-23.41A23.43,23.43,0,0,1,26.41,130Z"/><path class="cls-2" d="M26.41,86.18A20.41,20.41,0,1,1,6,106.58,20.41,20.41,0,0,1,26.41,86.18m0-6a26.41,26.41,0,1,0,26.41,26.41A26.44,26.44,0,0,0,26.41,80.18Z"/><rect class="cls-3" x="26.45" y="85" width="15.97" height="86" rx="7.78" ry="7.78"/><line class="cls-3" x1="25.95" y1="81.38" x2="25.95" y2="68.85"/><rect class="cls-3" x="176.08" y="85" width="15.97" height="86" rx="7.78" ry="7.78"/><path class="cls-4" d="M108.47,138.26c-14.78,0-24.33-9.71-24.33-24.74,0-15.95,10.69-28.44,24.33-28.44s24.33,12.49,24.33,28.44C132.8,128.55,123.25,138.26,108.47,138.26Z"/><path class="cls-2" d="M108.47,88.08c11.78,0,21.33,10.71,21.33,25.44s-9.55,21.74-21.33,21.74-21.33-7-21.33-21.74,9.55-25.44,21.33-25.44m0-6a25.59,25.59,0,0,0-19.64,9.3,34,34,0,0,0-7.68,22.14c0,8.63,2.82,15.82,8.16,20.79,4.89,4.55,11.52,7,19.17,7s14.28-2.41,19.17-7c5.34-5,8.16-12.16,8.16-20.79a34,34,0,0,0-7.68-22.14,25.59,25.59,0,0,0-19.64-9.3Z"/><path class="cls-5" d="M57.08,127.65A33.63,33.63,0,1,1,90.71,94,33.67,33.67,0,0,1,57.08,127.65Z"/><path class="cls-2" d="M57.08,63.39A30.63,30.63,0,1,1,26.45,94,30.63,30.63,0,0,1,57.08,63.39m0-6A36.63,36.63,0,1,0,93.71,94,36.67,36.67,0,0,0,57.08,57.39Z"/><path class="cls-5" d="M159.86,127.65A33.63,33.63,0,1,1,193.49,94,33.67,33.67,0,0,1,159.86,127.65Z"/><path class="cls-2" d="M159.86,63.39A30.63,30.63,0,1,1,129.23,94a30.63,30.63,0,0,1,30.63-30.63m0-6A36.63,36.63,0,1,0,196.49,94a36.67,36.67,0,0,0-36.63-36.63Z"/><path class="cls-6" d="M50,88.08s-.84,15.86,10,15.86S70.12,88.08,70.12,88.08"/><path class="cls-6" d="M146.83,88.08s-.84,15.86,10,15.86,10.14-15.86,10.14-15.86"/><line class="cls-3" x1="191.47" y1="81.38" x2="191.47" y2="68.85"/><path class="cls-7" d="M117.33,11.67"/><path class="cls-8" d="M72.19,143.08s10.65,14.25,36.88,14.25c26.61,0,37.25-14.25,37.25-14.25"/><line class="cls-7" x1="102.35" y1="13.67" x2="94.1" y2="18.67"/><line class="cls-7" x1="114.71" y1="13.67" x2="122.96" y2="18.67"/><line class="cls-7" x1="108.53" y1="20.07" x2="108.53" y2="28.01"/></g></g></svg>