<svg xmlns="http://www.w3.org/2000/svg" viewBox="0 0 72.62 96.22"><defs><style>.cls-1{isolation:isolate;}.cls-2{fill:#006064;}.cls-2,.cls-6{stroke:#004d40;stroke-linecap:round;stroke-linejoin:round;stroke-width:6px;}.cls-3{fill:#01e5ff;}.cls-4{fill:#004d40;}.cls-5{fill:#fff;opacity:0.35;mix-blend-mode:overlay;}.cls-6{fill:none;}</style></defs><title>Asset 7</title><g class="cls-1"><g id="Layer_2" data-name="Layer 2"><g id="Artwork"><path class="cls-2" d="M30.85,92.64s1.14.58,5.46.58,5.46-.58,5.46-.58L36,85.12Z"/><path class="cls-3" d="M36.31,88.86c-4.39,0-13.94-9.88-18.92-16.11C10.83,64.55,3,52.08,3,39.28,3,17.24,16.08,3,36.31,3S69.62,17.24,69.62,39.28c0,13.51-9,26.77-14.31,33.48C50.34,79,40.79,88.86,36.31,88.86Z"/><path class="cls-4" d="M36.31,6C53.05,6,66.62,17.11,66.62,39.28S40.3,85.86,36.31,85.86C32.52,85.86,6,61.44,6,39.28S19.57,6,36.31,6m0-6C26.18,0,17.05,3.59,10.61,10.11,3.67,17.13,0,27.21,0,39.28c0,7.55,2.61,19.81,15,35.36A92.86,92.86,0,0,0,26,86.22c5.68,5,8.3,5.64,10.28,5.64s4.67-.68,10.36-5.64a91.3,91.3,0,0,0,11-11.6c6.83-8.56,15-21.65,15-35.35C72.62,27.21,69,17.13,62,10.11,55.57,3.59,46.44,0,36.31,0Z"/><path class="cls-5" d="M30.93,13.37c1.52,2.83-1.06,8.08-5.77,11.74s-9.76,4.33-11.28,1.51,1.06-8.08,5.77-11.74S29.41,10.54,30.93,13.37Z"/><path class="cls-6" d="M13.82,34.62s0,4.18,3.83,4.18,3.93-4.18,3.93-4.18"/><path class="cls-6" d="M51,34.62s0,4.18,3.83,4.18,3.93-4.18,3.93-4.18"/><path class="cls-6" d="M30.9,37.09s1.71,1.17,5.41,1.17,5.41-1.17,5.41-1.17"/></g></g></g></svg>