<svg xmlns="http://www.w3.org/2000/svg" viewBox="0 0 91.87 141.53"><defs><style>.cls-1{isolation:isolate;}.cls-2,.cls-3{fill:#25c6da;}.cls-2,.cls-6{stroke:#004d40;stroke-linecap:round;stroke-linejoin:round;stroke-width:6px;}.cls-4{fill:#004d40;}.cls-5{fill:#fff;opacity:0.15;mix-blend-mode:overlay;}.cls-6{fill:none;}</style></defs><title>Asset 8</title><g class="cls-1"><g id="Layer_2" data-name="Layer 2"><g id="Artwork"><path class="cls-2" d="M38.74,137.65s1.5.88,7.2.88,7.2-.88,7.2-.88l-7.55-11.44Z"/><path class="cls-3" d="M45.93,130.35c-1,0-3.36,0-10.57-7.93a145,145,0,0,1-13.79-18.2C14.64,93.47,3,72.49,3,52.56,3,21.06,18.65,3,45.93,3S88.87,21.06,88.87,52.56c0,20-11.57,40.93-18.47,51.65C70.23,104.47,53.36,130.35,45.93,130.35Z"/><path class="cls-4" d="M45.93,6C68,6,85.87,18.88,85.87,52.56s-34.68,74.79-39.93,74.79C40.94,127.35,6,86.24,6,52.56S23.88,6,45.93,6m0-6C32.58,0,21.33,4.31,13.4,12.47,4.51,21.6,0,35.09,0,52.56c0,8.88,2.48,27.62,19.05,53.28a148,148,0,0,0,14.09,18.59c7.47,8.23,10.52,8.92,12.79,8.92,2.48,0,5.76-1.08,12.89-8.91a145.38,145.38,0,0,0,14.09-18.61c16.49-25.61,19-44.37,19-53.27,0-17.47-4.51-31-13.4-40.09C70.54,4.31,59.29,0,45.93,0Z"/><path class="cls-5" d="M43.55,16.73c.82,4.67-4.54,11.5-12,15.25s-14.13,3-15-1.65,4.54-11.5,12-15.25S42.73,12.06,43.55,16.73Z"/><circle class="cls-4" cx="15.67" cy="58.48" r="3"/><circle class="cls-4" cx="76.67" cy="58.48" r="3"/><line class="cls-6" x1="27.36" y1="58.48" x2="64.98" y2="58.48"/></g></g></g></svg>