<svg xmlns="http://www.w3.org/2000/svg" viewBox="0 0 47.88 78.41"><defs><style>.cls-1{fill:#006064;}.cls-1,.cls-4{stroke:#004d40;stroke-linecap:round;stroke-linejoin:round;stroke-width:6px;}.cls-2{fill:#17ffff;}.cls-3{fill:#004d40;}.cls-4{fill:none;}</style></defs><title>Asset 6</title><g id="Layer_2" data-name="Layer 2"><g id="Artwork"><path class="cls-1" d="M20.71,74.93s.68.49,3.23.49,3.23-.49,3.23-.49l-3.39-6.32Z"/><path class="cls-2" d="M23.94,69.33c-4.25,0-11.54-11.42-12.35-12.72C7.67,50.36,3,40.87,3,31.14,3,10.37,14.28,3,23.94,3s20.94,7.37,20.94,28.14C44.88,47.68,29.55,69.33,23.94,69.33Z"/><path class="cls-3" d="M23.94,6c9.91,0,17.94,8.39,17.94,25.14S26.3,66.33,23.94,66.33,6,47.88,6,31.14,14,6,23.94,6m0-6A21.65,21.65,0,0,0,6.51,8.62C2.25,14.11,0,21.9,0,31.14,0,41.58,4.92,51.62,9,58.2a67.88,67.88,0,0,0,6.68,9c3.32,3.7,5.62,5.14,8.22,5.14s4.94-1.44,8.26-5.13a66.79,66.79,0,0,0,6.69-9c4.1-6.57,9-16.59,9-27.06,0-9.24-2.25-17-6.51-22.52A21.65,21.65,0,0,0,23.94,0Z"/><rect class="cls-3" x="9.05" y="24.6" width="6" height="8" rx="3" ry="3"/><path class="cls-4" d="M20.74,27.84s.57,3,3.16,3,3.24-3,3.24-3"/><rect class="cls-3" x="32.83" y="24.6" width="6" height="8" rx="3" ry="3"/></g></g></svg>