<svg xmlns="http://www.w3.org/2000/svg" xmlns:xlink="http://www.w3.org/1999/xlink" viewBox="0 0 192.91 225.79"><defs><style>.cls-1,.cls-7{fill:none;}.cls-2{isolation:isolate;}.cls-3,.cls-4{fill:#00838f;}.cls-3,.cls-7,.cls-9{stroke:#004d40;stroke-linecap:round;stroke-linejoin:round;}.cls-3,.cls-7{stroke-width:6px;}.cls-5{fill:#004d40;}.cls-6{fill:#fff;opacity:0.12;mix-blend-mode:overlay;}.cls-8{clip-path:url(#clip-path);}.cls-9{fill:#ff80ab;stroke-width:3.42px;}</style><clipPath id="clip-path"><path class="cls-1" d="M96.45,62.7c-29.25.29-41.68,20.78-36.24,27,6,6.85,16.3-4.88,36.24-5.13,19.95.24,30.26,12,36.24,5.13C138.14,83.49,125.71,63,96.45,62.7Z"/></clipPath></defs><title>Asset 10</title><g class="cls-2"><g id="Layer_2" data-name="Layer 2"><g id="Artwork"><path class="cls-3" d="M80.15,221.35s3.41,1.44,16.3,1.44,16.3-1.44,16.3-1.44l-17.1-18.71Z"/><path class="cls-4" d="M96.45,207.49c-20.18,0-43.56-13.4-62.53-35.85C14.27,148.4,3,120,3,93.61c0-27.14,9.5-50.19,27.46-66.68C47.29,11.5,70.73,3,96.45,3s49.16,8.5,66,23.94c18,16.48,27.46,39.54,27.46,66.68,0,26.41-11.19,54.86-30.69,78C140.32,194.09,116.86,207.49,96.45,207.49Z"/><path class="cls-5" d="M96.45,6c50,0,90.45,32.52,90.45,87.61S137.1,204.49,96.45,204.49C56.43,204.49,6,148.7,6,93.61S46.5,6,96.45,6m0-6C70,0,45.82,8.78,28.44,24.72,9.83,41.79,0,65.61,0,93.61c0,27,11.53,56.19,31.63,80,19.53,23.11,43.77,36.91,64.82,36.91,21.28,0,45.6-13.8,65.06-36.92,20-23.71,31.39-52.85,31.39-80,0-28-9.83-51.82-28.44-68.89C147.09,8.78,122.93,0,96.45,0Z"/><ellipse class="cls-6" cx="53.96" cy="37.77" rx="28.3" ry="14.15" transform="matrix(0.84, -0.54, 0.54, 0.84, -11.86, 35.37)"/><path class="cls-7" d="M23.38,86.42A8.46,8.46,0,0,1,31.81,80a8.81,8.81,0,0,1,8.65,6.43"/><path class="cls-7" d="M169.53,86.42A8.46,8.46,0,0,0,161.09,80a8.81,8.81,0,0,0-8.65,6.43"/><path class="cls-5" d="M127.93,94.87c-3,0-6.38-1.22-10.26-2.63-5.53-2-12.42-4.53-21.26-4.64-8.77.11-15.65,2.62-21.18,4.64C71.36,93.65,68,94.87,65,94.87a9,9,0,0,1-7-3.17c-2.45-2.81-2.65-7.11-.55-11.79,4.44-9.91,18.23-20,39-20.2,20.85.21,34.64,10.29,39.08,20.2,2.1,4.69,1.9,9-.55,11.79a9,9,0,0,1-7,3.17Z"/><path class="cls-5" d="M96.45,62.7c29.25.29,41.68,20.78,36.24,27a5.94,5.94,0,0,1-4.77,2.15c-6.35,0-16-7.08-31.48-7.27C81,84.78,71.33,91.87,65,91.87a5.94,5.94,0,0,1-4.77-2.15c-5.44-6.23,7-26.73,36.24-27m0-6h-.06c-10.25.1-19.73,2.54-27.42,7.05C62.31,67.67,57.22,73,54.66,78.67s-2.18,11.32,1,15A12,12,0,0,0,65,97.87c3.57,0,7.15-1.3,11.29-2.82,5.3-1.93,11.9-4.34,20.19-4.46,8.29.12,14.89,2.52,20.19,4.46,4.14,1.51,7.72,2.82,11.29,2.82a12,12,0,0,0,9.29-4.2c3.21-3.67,3.59-9.28,1-15-4.83-10.78-19.61-21.75-41.73-22Z"/><g class="cls-8"><circle class="cls-9" cx="96.45" cy="91.87" r="18.93"/></g></g></g></g></svg>