<svg xmlns="http://www.w3.org/2000/svg" xmlns:xlink="http://www.w3.org/1999/xlink" viewBox="0 0 260.29 254.27"><defs><style>.cls-1,.cls-7{fill:none;}.cls-2{fill:#17ffff;}.cls-3{fill:#004d40;}.cls-4{clip-path:url(#clip-path);}.cls-5{fill:#00e676;}.cls-5,.cls-7,.cls-9{stroke:#004d40;stroke-linecap:round;stroke-linejoin:round;}.cls-5,.cls-7{stroke-width:6px;}.cls-6{fill:#ffd600;}.cls-8{clip-path:url(#clip-path-2);}.cls-9{fill:#ff80ab;stroke-width:4.98px;}</style><clipPath id="clip-path"><circle class="cls-1" cx="106.24" cy="152.77" r="95.5"/></clipPath><clipPath id="clip-path-2"><path class="cls-1" d="M61.7,139.58c4.7-1.29,12.34,2.57,19.9,7S98,155.06,96.81,160.68s-13.27,15.85-28.75,7.65S57,140.87,61.7,139.58Z"/></clipPath></defs><title>Asset 7</title><g id="Layer_2" data-name="Layer 2"><g id="Artwork"><path class="cls-2" d="M106.24,251.27a98.5,98.5,0,1,1,98.5-98.5A98.61,98.61,0,0,1,106.24,251.27Z"/><path class="cls-3" d="M106.24,57.27a95.5,95.5,0,1,1-95.5,95.5,95.5,95.5,0,0,1,95.5-95.5m0-6a101.5,101.5,0,1,0,101.5,101.5,101.61,101.61,0,0,0-101.5-101.5Z"/><g class="cls-4"><path class="cls-5" d="M203.21,198.29s-9.19-5.17-14.3-6.48-10.47-1.05-18.88,3.68c-5.93,3.34-8.91,7.2-13.9,6.28-4.59-.84-18.24-12.42-19.29-19.65s7.62-26.08,13.47-28.18c5.68-2,13.15,3.5,16.29,3.41s8.77-1.92,11.79-3c2.67-1,1.89-16.54,7.83-18,7.66-1.94,14.45,8.9,23.09,26.5,5.58,11.36-4.16,24.39-4.16,24.39Z"/><path class="cls-5" d="M164.71,70s-8.17,11.42-5.32,20.24c2.13,6.58,9.75,7.68,14.57,15,7.4,11.25,18.8,8.93,24.42,6.06S181.74,82,176.24,79.14,164.71,70,164.71,70Z"/><path class="cls-5" d="M133.74,88.89c5.35-5.06,20.68,7.66,15.38,13.62C143.48,108.85,127.83,94.48,133.74,88.89Z"/><path class="cls-5" d="M149.8,57.9s-6,14.82-22.43,18.12c-12,2.41-20.52,1.13-33,3.63-9.77,1.95-17.87,6.13-31,4.38s-20.62-8-20.62-8,31.87-30.63,67.5-29.63S149.8,57.9,149.8,57.9Z"/><path class="cls-5" d="M30.11,82.77a32.92,32.92,0,0,1,3.13,26.12C28.6,124.69,3,137.09,3,137.09s9.36-32,15.11-42.08S30.11,82.77,30.11,82.77Z"/></g><path class="cls-6" d="M214.28,69.91a25.16,25.16,0,1,1,25.16-25.16A25.18,25.18,0,0,1,214.28,69.91Z"/><path class="cls-3" d="M214.28,22.6a22.16,22.16,0,1,1-22.16,22.16A22.16,22.16,0,0,1,214.28,22.6m0-6a28.16,28.16,0,1,0,28.16,28.16A28.19,28.19,0,0,0,214.28,16.6Z"/><line class="cls-5" x1="205.28" y1="10.22" x2="203.49" y2="3"/><line class="cls-5" x1="229.07" y1="12.34" x2="231.47" y2="5.3"/><line class="cls-5" x1="247.15" y1="27.81" x2="253.76" y2="24.41"/><line class="cls-5" x1="249.95" y1="50.64" x2="257.29" y2="51.83"/><path class="cls-7" d="M212.68,38.59s-.45,6.76,4.07,6.76,4-6.87,4-6.87"/><circle class="cls-3" cx="230.34" cy="40.96" r="4"/><circle class="cls-3" cx="203.11" cy="40.96" r="4"/><path class="cls-7" d="M32.94,135.52s5.15-10.42,11.71-6.85c6.29,3.42-.46,13.53-.46,13.53"/><path class="cls-3" d="M79.53,173.88a26.9,26.9,0,0,1-12.63-3.35,22.09,22.09,0,0,1-12-22.13c.43-4.76,2.46-10.07,6-11.2a8.75,8.75,0,0,1,2.64-.38c4.24,0,10.54,2.48,19.27,7.59l.36.21c8.67,5.07,17.63,10.32,16,16.66C97.86,166.57,90.27,173.88,79.53,173.88Z"/><path class="cls-3" d="M63.59,139.32c4.46,0,11.47,3.42,18,7.25C89.15,151,98,156.08,96.81,160.68c-1,4.08-7.7,10.7-17.28,10.7a24.37,24.37,0,0,1-11.47-3.06c-15.48-8.2-11-27.28-6.36-28.75a6.27,6.27,0,0,1,1.89-.26m0-5h0a11.24,11.24,0,0,0-3.39.49c-3.11,1-7,5.07-7.76,13.35a24.52,24.52,0,0,0,13.28,24.55,29.36,29.36,0,0,0,13.8,3.64,25,25,0,0,0,14.76-4.77c3.74-2.71,6.48-6.32,7.34-9.68,2.1-8.17-7.69-13.9-17.15-19.43l-.36-.21c-9.25-5.41-15.77-7.93-20.53-7.93Z"/><g class="cls-8"><path class="cls-9" d="M52.28,159a21.36,21.36,0,0,1,21.65.28c12.56,7.39,9,25.37,9,25.37s-13.1,5.52-23.17-2.34S52.28,159,52.28,159Z"/></g><path class="cls-7" d="M103.33,177.33s4.65-10.19,11.26-6.72c6.33,3.33-.5,12.9-.5,12.9"/><line class="cls-5" x1="185.33" y1="20.55" x2="179.44" y2="16.01"/><line class="cls-5" x1="177.5" y1="38.48" x2="170.11" y2="37.58"/><line class="cls-5" x1="242.09" y1="68.93" x2="247.65" y2="73.87"/><line class="cls-5" x1="220.06" y1="79.77" x2="221.68" y2="87.03"/><line class="cls-5" x1="195.81" y1="75.23" x2="191.93" y2="81.57"/><line class="cls-5" x1="181.16" y1="58.67" x2="174.58" y2="62.13"/></g></g></svg>