<svg xmlns="http://www.w3.org/2000/svg" xmlns:xlink="http://www.w3.org/1999/xlink" viewBox="0 0 229.98 210.9"><defs><style>.cls-1,.cls-9{fill:none;}.cls-2,.cls-7,.cls-8{fill:#e0f2f1;}.cls-2,.cls-6,.cls-7,.cls-8,.cls-9{stroke:#004d40;stroke-linecap:round;stroke-linejoin:round;}.cls-2{stroke-width:5.67px;}.cls-3{fill:#17ffff;}.cls-4{fill:#004d40;}.cls-5{clip-path:url(#clip-path);}.cls-6{fill:#00e676;}.cls-6,.cls-8,.cls-9{stroke-width:6px;}.cls-7{stroke-width:6.43px;}</style><clipPath id="clip-path"><circle class="cls-1" cx="120.78" cy="109.4" r="95.5"/></clipPath></defs><title>Asset 4</title><g id="Layer_2" data-name="Layer 2"><g id="Artwork"><path class="cls-2" d="M26.42,109.74l-23.56-.46s-.41-3.28,2-4.51c2.21-1.13,5.09.06,5.09.06S12.1,96,20.84,96C28.47,96.08,26.42,109.74,26.42,109.74Z"/><path class="cls-3" d="M120.78,207.9a98.5,98.5,0,1,1,98.5-98.5A98.61,98.61,0,0,1,120.78,207.9Z"/><path class="cls-4" d="M120.78,13.9a95.5,95.5,0,1,1-95.5,95.5,95.5,95.5,0,0,1,95.5-95.5m0-6a101.5,101.5,0,1,0,101.5,101.5A101.61,101.61,0,0,0,120.78,7.9Z"/><g class="cls-5"><path class="cls-6" d="M217.75,154.93s-9.19-5.17-14.3-6.48-10.47-1.05-18.88,3.68c-5.93,3.34-8.91,7.2-13.9,6.28-4.59-.84-18.24-12.42-19.29-19.65s7.62-26.08,13.47-28.18c5.68-2,13.15,3.5,16.29,3.41s8.77-1.92,11.79-3c2.67-1,1.89-16.54,7.83-18,7.66-1.94,14.45,8.9,23.09,26.5,5.58,11.36-4.16,24.39-4.16,24.39Z"/><path class="cls-6" d="M179.26,26.66s-8.17,11.42-5.32,20.24c2.13,6.58,9.75,7.68,14.57,15,7.4,11.25,18.8,8.93,24.42,6.06s-16.66-29.32-22.16-32.2S179.26,26.66,179.26,26.66Z"/><path class="cls-6" d="M148.28,45.52c5.35-5.06,20.68,7.66,15.38,13.63C158,65.48,142.37,51.12,148.28,45.52Z"/><path class="cls-6" d="M164.34,14.53s-6,14.82-22.43,18.12c-12,2.41-20.52,1.13-33,3.63-9.77,1.95-17.87,6.13-31,4.38s-20.62-8-20.62-8S89.15,2,124.78,3,164.34,14.53,164.34,14.53Z"/><path class="cls-6" d="M44.65,39.4a32.92,32.92,0,0,1,3.13,26.13c-4.64,15.8-30.24,28.2-30.24,28.2s9.36-32,15.11-42.08S44.65,39.4,44.65,39.4Z"/></g><path class="cls-7" d="M132.06,58.36s11.38,2.7,46.88,2.7,47.47-2.7,47.47-2.7,1.2-8-4.55-12.21c-4.31-3.12-10.8-1.89-10.8-1.89s2.39-20.19-13.86-22.19-19.34,13.45-19.34,13.45a12.85,12.85,0,0,0-9.16.64c-4.91,2.37-5.48,9-5.48,9s-5-5.92-11.27-4.17a9.59,9.59,0,0,0-7.33,9.17,9.64,9.64,0,0,0-6.83.08C132.36,52.48,132.06,58.36,132.06,58.36Z"/><path class="cls-8" d="M18,162.9s9.26,2,27,2,26.2-2,26.2-2,1.62-6.68-2.83-9.17c-4-2.23-8.42.08-8.42.08s-2.17-12-13.17-12.42c-13-.52-15.67,11.75-15.67,11.75s-4.09-3.69-9.69-.28C16.62,155.81,18,162.9,18,162.9Z"/><path class="cls-8" d="M181.62,136.78s6.11.82,22.86.82c16.23,0,22.51-.87,22.51-.87s-1-15.74-15.54-16.67a18.91,18.91,0,0,0-17.69,8.82,8.5,8.5,0,0,0-8.28.13C181.38,131.4,181.62,136.78,181.62,136.78Z"/><path class="cls-9" d="M52,90.68s4.12,1.62,11.58,1.43a25.55,25.55,0,0,0,10.72-2.57"/><line class="cls-9" x1="60.51" y1="100.95" x2="63.98" y2="92.26"/><path class="cls-9" d="M76.51,111.37s7.62-20.89,20-14.06c11.73,6.5-2.74,24.43-2.74,24.43"/><path class="cls-9" d="M127.14,127.22s-3.91-2.07-8.63-7.86a25.55,25.55,0,0,1-5-9.81"/><line class="cls-9" x1="113.79" y1="127.43" x2="118.12" y2="119.14"/></g></g></svg>