<svg xmlns="http://www.w3.org/2000/svg" xmlns:xlink="http://www.w3.org/1999/xlink" viewBox="0 0 270.98 210.9"><defs><style>.cls-1,.cls-5{fill:none;}.cls-10,.cls-2{fill:#e0f2f1;}.cls-10,.cls-2,.cls-5,.cls-7,.cls-9{stroke:#004d40;stroke-linecap:round;stroke-linejoin:round;}.cls-2,.cls-5,.cls-9{stroke-width:6px;}.cls-3{fill:#17ffff;}.cls-4{fill:#004d40;}.cls-6{clip-path:url(#clip-path);}.cls-7{fill:#ff80ab;stroke-width:3.42px;}.cls-8{clip-path:url(#clip-path-2);}.cls-9{fill:#00e676;}.cls-10{stroke-width:6.1px;}</style><clipPath id="clip-path"><path class="cls-1" d="M108.18,117.3c-7.6-3.74-12.61.32-16.92-5.4s2.69-18.61,16.86-18c11.82.52,18.34,6.12,22.39,12.17,6.42,9.59,3.21,22.26-5.73,23.72C114.95,131.41,116.71,121.5,108.18,117.3Z"/></clipPath><clipPath id="clip-path-2"><circle class="cls-1" cx="146.33" cy="109.4" r="95.5"/></clipPath></defs><title>Asset 3</title><g id="Layer_2" data-name="Layer 2"><g id="Artwork"><path class="cls-2" d="M70.29,154.65s-11.79.54-33.54.54c-16.92,0-33.75-.54-33.75-.54a5.32,5.32,0,0,1,3.83-3.58,7.46,7.46,0,0,1,4.83.67s-.19-6.15,4.5-8c3.64-1.46,7.19,1.24,7.19,1.24s4.06-14.49,20-16c13.25-1.23,15.58,5.92,15.58,5.92Z"/><path class="cls-2" d="M265.13,95.31l-33.9.44-6-26.28s11.74-.55,19.48,3.18c8.17,3.94,8.1,13.6,8.1,13.6s4.53-1.3,8.4.52C266,89,265.13,95.31,265.13,95.31Z"/><path class="cls-3" d="M146.33,207.9a98.5,98.5,0,1,1,98.5-98.5A98.61,98.61,0,0,1,146.33,207.9Z"/><path class="cls-4" d="M146.33,13.9a95.5,95.5,0,1,1-95.5,95.5,95.5,95.5,0,0,1,95.5-95.5m0-6a101.5,101.5,0,1,0,101.5,101.5A101.61,101.61,0,0,0,146.33,7.9Z"/><path class="cls-2" d="M26.92,197.82a110.9,110.9,0,0,0,12.62.46c9.25,0,11.63-.46,11.63-.46s-.71-10.25-8.25-10.17c-6.67.07-7.58,6.92-7.58,6.92a5.73,5.73,0,0,0-4.83-1.25C27.42,193.82,26.92,197.82,26.92,197.82Z"/><path class="cls-5" d="M77.34,84.53s-9.47,10.05-3.83,14.21c5.9,4.34,12.14-9,12.14-9"/><path class="cls-4" d="M122.78,132.46c-5.51,0-7.76-3.58-9.74-6.73-1.53-2.43-3-4.73-6-6.2a17.84,17.84,0,0,0-7.69-1.65c-3.28-.16-7-.34-10.12-4.48-2.29-3-2.41-7.39-.3-11.61,2.51-5,8.6-10.4,18.17-10.4l1.1,0c10.72.47,18.69,4.81,24.35,13.28,4.06,6.06,4.95,13.59,2.33,19.63a12.9,12.9,0,0,1-9.72,7.94A15,15,0,0,1,122.78,132.46Z"/><path class="cls-4" d="M107.14,93.88l1,0c11.82.52,18.34,6.12,22.39,12.17,6.42,9.59,3.21,22.26-5.73,23.72a12.42,12.42,0,0,1-2,.18c-7.63,0-6.7-8.79-14.6-12.68-7.6-3.74-12.61.32-16.92-5.4s2.36-18,15.87-18m0-5h0c-10.71,0-17.56,6.08-20.4,11.78-2.54,5.09-2.33,10.4.54,14.22,3.82,5.07,8.54,5.3,12,5.47a15.37,15.37,0,0,1,6.71,1.4c2.35,1.16,3.55,3.07,4.95,5.29,2.09,3.33,5,7.9,11.85,7.9a17.47,17.47,0,0,0,2.81-.24,15.35,15.35,0,0,0,11.6-9.41c3-6.81,2-15.24-2.54-22-6-9-14.9-13.88-26.31-14.38l-1.2,0Z"/><path class="cls-5" d="M146.72,125.4s-9.47,10.05-3.83,14.21c5.9,4.34,12.14-9,12.14-9"/><g class="cls-6"><path class="cls-7" d="M96.48,118.54c.17.1,7.63-14.46,17.31-9.56,10,5.08,0,20.47,0,20.47s-4.39,3.59-10.79-2.3S96.48,118.54,96.48,118.54Z"/></g><g class="cls-8"><path class="cls-9" d="M243.3,154.93s-9.19-5.17-14.3-6.48-10.47-1.05-18.88,3.68c-5.93,3.34-8.91,7.2-13.9,6.28-4.59-.84-18.24-12.42-19.29-19.65s7.62-26.08,13.47-28.18c5.68-2,13.15,3.5,16.29,3.41s8.77-1.92,11.79-3c2.67-1,1.89-16.54,7.83-18,7.66-1.94,14.45,8.9,23.09,26.5,5.58,11.36-4.16,24.39-4.16,24.39Z"/><path class="cls-9" d="M204.81,26.66s-8.17,11.42-5.32,20.24c2.13,6.58,9.75,7.68,14.57,15,7.4,11.25,18.8,8.93,24.42,6.06s-16.66-29.32-22.16-32.2S204.81,26.66,204.81,26.66Z"/><path class="cls-9" d="M173.83,45.52c5.35-5.06,20.68,7.66,15.38,13.63C183.57,65.48,167.92,51.12,173.83,45.52Z"/><path class="cls-9" d="M189.89,14.53s-6,14.82-22.43,18.12c-12,2.41-20.52,1.13-33,3.63-9.77,1.95-17.88,6.13-31,4.38s-20.63-8-20.63-8S114.71,2,150.33,3,189.89,14.53,189.89,14.53Z"/><path class="cls-9" d="M70.21,39.4a32.92,32.92,0,0,1,3.13,26.13C68.7,81.32,43.1,93.72,43.1,93.72s9.36-32,15.11-42.08S70.21,39.4,70.21,39.4Z"/></g><path class="cls-2" d="M132.09,176.11S146,179,200,178.27c53.61-.76,67.37-4.08,67.37-4.08s2.21-6.77-2.05-9.23a7.78,7.78,0,0,0-6.83-.14s2.85-8.19-1.66-11.06c-4-2.53-10.48,1.15-10.48,1.15s-4.64-27.77-30.43-30.07c-27-2.41-35.15,19.25-35.15,19.25s-9.63-3.45-17.47,2.41a17.67,17.67,0,0,0-7.19,16.44,8.93,8.93,0,0,0-7.59-.31,7.75,7.75,0,0,0-4.67,5.73,12.53,12.53,0,0,0-7.11,1.37A8.16,8.16,0,0,0,132.09,176.11Z"/><path class="cls-2" d="M92.67,53.32s-6.17,1.5-25.33,1.5c-13.83,0-18.83-1.5-18.83-1.5a4.38,4.38,0,0,1,2.75-3.83,6.21,6.21,0,0,1,4.92-.08S57.11,38.94,66.77,38s11.5,7.63,11.5,7.63a14.89,14.89,0,0,1,7.77.39A10.46,10.46,0,0,1,92.67,53.32Z"/><path class="cls-10" d="M251.81,68.89s-17,2.4-66.41,2.4c-43.21,0-71.09-2.4-71.09-2.4a10.11,10.11,0,0,1,7.12-6.54,24.71,24.71,0,0,1,6.26-.84s-.7-5.19,3.66-7.11c4.64-2,8.22,2.29,8.22,2.29s0-7.65,6.7-10.24c6-2.32,11.36,1.08,11.36,1.08s-2-29.85,28.26-33.46c26.94-3.21,33.45,22.1,33.45,22.1s10-4.5,16.78,2.2c6.14,6,.85,15.6.85,15.6s9-2.09,12.89,2.26C254.79,61.71,251.81,68.89,251.81,68.89Z"/></g></g></svg>