<svg xmlns="http://www.w3.org/2000/svg" viewBox="0 0 27.08 22.08"><defs><style>.cls-1{fill:#004d40;}.cls-2{fill:none;stroke:#004d40;stroke-linecap:round;stroke-linejoin:round;stroke-width:3px;}</style></defs><title>Asset 4</title><g id="Layer_2" data-name="Layer 2"><g id="Artwork"><path class="cls-1" d="M13.53,3a8,8,0,1,1-8,8,8.05,8.05,0,0,1,8-8m0-3a11,11,0,1,0,11,11,11,11,0,0,0-11-11Z"/><path class="cls-1" d="M13.53,3a8,8,0,1,1-8,8,8.05,8.05,0,0,1,8-8m0-3a11,11,0,1,0,11,11,11,11,0,0,0-11-11Z"/><path class="cls-1" d="M3.14,7.63h0Zm0,0a4,4,0,0,0,.41,7.88,11,11,0,0,1-.41-7.88Z"/><path class="cls-1" d="M23.95,7.63a11,11,0,0,1-.41,7.88,4,4,0,0,0,.41-7.88Z"/><path class="cls-1" d="M8.9,7.15a1.5,1.5,0,1,0,1.5,1.5,1.5,1.5,0,0,0-1.5-1.5Z"/><path class="cls-1" d="M18.15,7.15a1.5,1.5,0,1,0,1.5,1.5,1.5,1.5,0,0,0-1.5-1.5Z"/><path class="cls-2" d="M9.25,12.75s1.22,1.08,4.28,1.08,4.28-1.08,4.28-1.08"/><line class="cls-2" x1="13.53" y1="7.71" x2="13.53" y2="10"/></g></g></svg>