<svg xmlns="http://www.w3.org/2000/svg" xmlns:xlink="http://www.w3.org/1999/xlink" viewBox="0 0 1640.62 380.16"><defs><style>.cls-1,.cls-16,.cls-5{fill:none;}.cls-2{isolation:isolate;}.cls-3{fill:#004d40;}.cls-4{fill:#00e676;}.cls-10,.cls-12,.cls-13,.cls-15,.cls-17,.cls-18,.cls-19,.cls-23,.cls-4,.cls-5,.cls-6,.cls-8{stroke:#004d40;}.cls-10,.cls-12,.cls-13,.cls-15,.cls-16,.cls-17,.cls-19,.cls-23,.cls-4,.cls-5,.cls-6,.cls-8{stroke-linecap:round;}.cls-10,.cls-12,.cls-16,.cls-17,.cls-18,.cls-19,.cls-23,.cls-4,.cls-5,.cls-6,.cls-8{stroke-linejoin:round;}.cls-12,.cls-13,.cls-15,.cls-16,.cls-17,.cls-18,.cls-19,.cls-4,.cls-5,.cls-6,.cls-8{stroke-width:6px;}.cls-6{fill:#006064;}.cls-12,.cls-15,.cls-7{fill:#ffccbc;}.cls-10,.cls-8{fill:#e0f2f1;}.cls-9{clip-path:url(#clip-path);}.cls-10{stroke-width:6.43px;}.cls-11{clip-path:url(#clip-path-2);}.cls-13{fill:#00b0ff;}.cls-13,.cls-15{stroke-miterlimit:10;}.cls-14{fill:#ff8a80;}.cls-16{stroke:#e0f2f1;}.cls-17{fill:#ff5252;}.cls-18{fill:#ffd600;}.cls-19,.cls-20{fill:#00838f;}.cls-21{fill:#fff;opacity:0.12;mix-blend-mode:overlay;}.cls-22{clip-path:url(#clip-path-3);}.cls-23{fill:#ff80ab;stroke-width:3.42px;}.cls-24{clip-path:url(#clip-path-4);}.cls-25{clip-path:url(#clip-path-5);}.cls-26{clip-path:url(#clip-path-6);}.cls-27{clip-path:url(#clip-path-7);}.cls-28{clip-path:url(#clip-path-8);}.cls-29{clip-path:url(#clip-path-9);}.cls-30{clip-path:url(#clip-path-10);}</style><clipPath id="clip-path"><rect class="cls-1" x="41.89" y="262.63" width="146.66" height="9" rx="4.5" ry="4.5" transform="translate(-158.38 168.25) rotate(-46.8)"/></clipPath><clipPath id="clip-path-2"><path class="cls-1" d="M251.61,340.16,235.28,290.4V238.11a4.37,4.37,0,0,0-4.36-4.36h-.28a4.37,4.37,0,0,0-4.36,4.36V291a10.34,10.34,0,0,0,.28,1.69L243.06,343a4.37,4.37,0,0,0,5.5,2.78l.27-.09A4.37,4.37,0,0,0,251.61,340.16Z"/></clipPath><clipPath id="clip-path-3"><path id="SVGID" class="cls-1" d="M753.37,190.54c-29.25.29-41.68,20.78-36.24,27,6,6.85,16.3-4.88,36.24-5.13,19.95.24,30.26,12,36.24,5.13C795,211.32,782.62,190.83,753.37,190.54Z"/></clipPath><clipPath id="clip-path-4"><path id="SVGID-2" data-name="SVGID" class="cls-1" d="M1201,192.54c-29.25.29-41.68,20.78-36.24,27,6,6.85,16.3-4.88,36.24-5.13,19.95.24,30.26,12,36.24,5.13C1242.65,213.32,1230.22,192.83,1201,192.54Z"/></clipPath><clipPath id="clip-path-5"><path id="SVGID-3" data-name="SVGID" class="cls-1" d="M971,190.39c-29.25.29-41.68,20.78-36.24,27,6,6.85,16.3-4.88,36.24-5.13,19.95.24,30.26,12,36.24,5.13C1012.66,211.18,1000.23,190.69,971,190.39Z"/></clipPath><clipPath id="clip-path-6"><path id="SVGID-4" data-name="SVGID" class="cls-1" d="M864.13,201.68c-29.25.29-41.68,20.78-36.24,27,6,6.85,16.3-4.88,36.24-5.13,19.95.24,30.26,12,36.24,5.13C905.81,222.47,893.39,202,864.13,201.68Z"/></clipPath><clipPath id="clip-path-7"><path id="SVGID-5" data-name="SVGID" class="cls-1" d="M1081.54,202.1c-29.25.29-41.68,20.78-36.24,27,6,6.85,16.3-4.88,36.24-5.13,19.95.24,30.26,12,36.24,5.13C1123.22,222.88,1110.8,202.39,1081.54,202.1Z"/></clipPath><clipPath id="clip-path-8"><path id="SVGID-6" data-name="SVGID" class="cls-1" d="M1433.6,190.43c-29.25.29-41.68,20.78-36.24,27,6,6.85,16.3-4.88,36.24-5.13,19.95.24,30.26,12,36.24,5.13C1475.29,211.22,1462.86,190.73,1433.6,190.43Z"/></clipPath><clipPath id="clip-path-9"><path id="SVGID-7" data-name="SVGID" class="cls-1" d="M1326.76,201.72c-29.25.29-41.68,20.78-36.24,27,6,6.85,16.3-4.88,36.24-5.13,19.95.24,30.26,12,36.24,5.13C1368.44,222.51,1356,202,1326.76,201.72Z"/></clipPath><clipPath id="clip-path-10"><path id="SVGID-8" data-name="SVGID" class="cls-1" d="M1544.17,202.14c-29.25.29-41.68,20.78-36.24,27,6,6.85,16.3-4.88,36.24-5.13,19.95.24,30.26,12,36.24,5.13C1585.85,222.92,1573.42,202.43,1544.17,202.14Z"/></clipPath></defs><title>trees-balloons</title><g class="cls-2"><g id="Balloons"><path class="cls-3" d="M223.56,376.41a5,5,0,0,1-4.88-4.84,3,3,0,0,1,.06-.75,5.11,5.11,0,0,1,1.18-3,4.82,4.82,0,0,1,3.47-1.73l6.69-.29c.06-.16.14-.31.22-.47l13.22-25c.12-.23.21-.45.29-.65a4.25,4.25,0,0,1,3.92-3.08,5.51,5.51,0,0,1,2.2.51l2.65-.22h.25a3,3,0,0,1,.76.1,10,10,0,0,1,6.61,5.8,8.63,8.63,0,0,1-.66,7.89l-14.17,22.94a6,6,0,0,1-5.46,2.87l-.33,0h-.12Z"/><path class="cls-3" d="M247.72,339.57a3.89,3.89,0,0,1,1.64.57l3.46-.29c3.69,1,6.53,5.31,4.14,9.23l-14.2,23a3.11,3.11,0,0,1-2.91,1.38h-.18l-.22,0-15.83-.07h-.07a2,2,0,0,1-1.88-2l.06-.23a2,2,0,0,1,1.78-2.12l9.32-.4a2.54,2.54,0,0,1,.11-1.95l13.22-25c.61-1.15.67-2.13,1.56-2.13m0-6c-2.12,0-5,.86-6.69,4.94-.06.15-.13.33-.17.4l-12.66,24-4.94.21a8,8,0,0,0-7.5,7.34,6,6,0,0,0-.08,1.27,8,8,0,0,0,7.88,7.71h.14l15.74.07h.28l.38,0a9,9,0,0,0,7.85-4.34l14.13-22.88a11.74,11.74,0,0,0,.9-10.61,13,13,0,0,0-8.63-7.58,6,6,0,0,0-1.51-.19l-.5,0-2,.16a8.07,8.07,0,0,0-2.65-.47Z"/><line class="cls-4" x1="319.67" y1="376.47" x2="319.67" y2="349.81"/><line class="cls-4" x1="411.43" y1="376.47" x2="404.87" y2="334.88"/><line class="cls-4" x1="423.25" y1="334.88" x2="409.21" y2="357.37"/><line class="cls-4" x1="532.35" y1="375.34" x2="537.15" y2="234.27"/><polyline class="cls-5" points="457.64 265.88 474.16 279.28 492.16 280.62"/><polyline class="cls-5" points="484.79 262.93 492.16 280.62 534.3 307.84"/><polyline class="cls-5" points="536.17 262.93 566.11 246.72 571.2 227.43"/><path class="cls-4" d="M624.93,228c0,.19-24.38,6.3-78.83,13.1C505.56,246.12,464.5,248,464.5,248s4.06-11.11-.81-17.49-4.79-14.5-4.79-14.5-6.43-20.07,5.67-33.87c8.79-10,23-11.87,23-11.87S493,129.78,536.68,132c40.54,2,41.25,35.63,41.25,35.63s14.13,3.25,21.38,12.88a41.65,41.65,0,0,1,7.87,20.47s8.95.83,15.08,7.39C629.64,216.2,624.93,228,624.93,228Z"/><path class="cls-6" d="M226.56,85.85s43.5,3.88,46.5,5.63,11,28.12,14.75,46.5,5,34.88,4.13,37.38-27,23.5-31.25,23.25-12.75-4.37-12.75-4.37l-19.42-60.53-3-9.22Z"/><path class="cls-7" d="M191.32,183a7.49,7.49,0,0,1-5.51-2.41L158,150.23a7.22,7.22,0,0,1-.83-1.11A10.62,10.62,0,1,1,176,142.44a10.47,10.47,0,0,1-.9,4.28l5.8,6.32-2.41-17.4a7.51,7.51,0,0,1,6.4-8.46,7.5,7.5,0,0,1,8.46,6.4L199,174.33a7.79,7.79,0,0,1-7.7,8.62Z"/><path class="cls-3" d="M186,130.11a4.52,4.52,0,0,1,4.46,3.88L196,174.74a4.52,4.52,0,0,1-3,4.86,4.56,4.56,0,0,1-1.75.35,4.45,4.45,0,0,1-3.3-1.44L160.21,148.2a4.45,4.45,0,0,1-.59-.82,7.63,7.63,0,1,1,11.8-.28l13.8,15-3.72-26.92a4.5,4.5,0,0,1,4.46-5.12m0-6a10.53,10.53,0,0,0-10.42,9.22,13.61,13.61,0,0,0-20.82,17.53,10.1,10.1,0,0,0,1.07,1.4l27.81,30.31A10.69,10.69,0,0,0,202,173.92l-5.63-40.75a10.54,10.54,0,0,0-10.4-9.06Z"/><path class="cls-8" d="M174.34,116.82H189.5a11.63,11.63,0,0,1,11.63,11.63v0a11.63,11.63,0,0,1-11.63,11.63H174.34a5.81,5.81,0,0,1-5.81-5.81V122.63a5.81,5.81,0,0,1,5.81-5.81Z" transform="translate(82.9 329.12) rotate(-97.87)"/><line class="cls-8" x1="180.78" y1="152.72" x2="187.34" y2="160.19"/><line class="cls-8" x1="175.39" y1="143.3" x2="171.08" y2="147.61"/><path class="cls-7" d="M247.21,349a7.35,7.35,0,0,1-7-5.06l-16.49-50.26a6.6,6.6,0,0,1-.24-1,7.15,7.15,0,0,1-.19-1.62v-52.9a7.37,7.37,0,0,1,7.36-7.36h.28a7.37,7.37,0,0,1,7.36,7.36v51.81l16.18,49.3a7.37,7.37,0,0,1-4.7,9.28l-.27.09a7.32,7.32,0,0,1-2.29.37Z"/><path class="cls-3" d="M230.93,233.75a4.37,4.37,0,0,1,4.36,4.36V290.4l16.33,49.76a4.37,4.37,0,0,1-2.78,5.5l-.27.09a4.32,4.32,0,0,1-1.35.22,4.38,4.38,0,0,1-4.15-3L226.57,292.7a10.35,10.35,0,0,1-.28-1.69v-52.9a4.37,4.37,0,0,1,4.36-4.36h.28m0-6h-.28a10.37,10.37,0,0,0-10.36,10.36V291a10.05,10.05,0,0,0,.25,2.21,9.52,9.52,0,0,0,.33,1.36l16.49,50.26a10.36,10.36,0,0,0,13.07,6.61l.27-.09a10.37,10.37,0,0,0,6.61-13.07l-16-48.85V238.11a10.37,10.37,0,0,0-10.36-10.36Z"/><path class="cls-7" d="M68.1,324.79a7.49,7.49,0,0,1-5.47-12.63l94.24-100.35a7.51,7.51,0,0,1,10.6-.33,7.51,7.51,0,0,1,.33,10.6L73.57,322.43a7.53,7.53,0,0,1-5.47,2.36Z"/><path class="cls-3" d="M162.34,212.46a4.48,4.48,0,0,1,3.08,1.21h0a4.51,4.51,0,0,1,.2,6.36L71.38,320.38a4.5,4.5,0,0,1-6.56-6.16l94.24-100.35a4.49,4.49,0,0,1,3.28-1.41m0-6a10.54,10.54,0,0,0-7.66,3.31L60.45,310.11a10.49,10.49,0,0,0,7.65,17.68,10.54,10.54,0,0,0,7.66-3.31L170,224.14a10.49,10.49,0,0,0-7.65-17.68Z"/><polygon class="cls-6" points="166.56 187.72 136.56 220.72 163.56 245.72 183.56 222.72 210.56 230.72 210.56 252.72 249.56 252.72 249.56 198.72 220.56 186.72 166.56 187.72"/><path class="cls-8" d="M167.56,129.72l-1,58s12.09,5.4,38,10c25.67,4.56,45,1.88,45,1.88V137.72l-3-22a77.55,77.55,0,0,0-6-7,75.69,75.69,0,0,0-7-6,125.26,125.26,0,0,1-32,8C183.56,112.72,167.56,129.72,167.56,129.72Z"/><line class="cls-6" x1="210.56" y1="233.72" x2="210.56" y2="224.72"/><line class="cls-6" x1="186.93" y1="223.72" x2="177.03" y2="220.61"/><g class="cls-9"><path class="cls-10" d="M70.8,298.4l17.43,15.86s-2.44,9.92-4.57,12.28-22.55,10.39-28.5-.14S70.8,298.4,70.8,298.4Z"/></g><g class="cls-11"><path class="cls-10" d="M230.69,333.94l21.41-7.79s8.36,5.92,9.51,8.89-.81,24.82-12.88,25.42S230.69,333.94,230.69,333.94Z"/></g><path class="cls-8" d="M181.5,117.61s-5.41,17.52-7.24,16.72c-3.32-1.45-10-2.84-10.27-8.3-.22-5.22,2.32-13.89,2.32-13.89Z"/><path class="cls-8" d="M196.06,118.72s7.84,13.95,9.51,14.94c1.38.81,19.86-11.92,25.66-20.53,3.3-4.89,5.58-11.16,2.46-16.17a30.24,30.24,0,0,0-5.38-6.37Z"/><path class="cls-7" d="M148.24,109.6a14.31,14.31,0,1,1,14.31-14.31A14.33,14.33,0,0,1,148.24,109.6Z"/><path class="cls-3" d="M148.25,84a11.31,11.31,0,1,1-11.31,11.31A11.31,11.31,0,0,1,148.25,84m0-6a17.31,17.31,0,1,0,17.31,17.31A17.33,17.33,0,0,0,148.25,78Z"/><polygon class="cls-12" points="198.2 119.54 189.32 136.99 180.41 120.33 198.2 119.54"/><path class="cls-7" d="M185.24,121.6a48.31,48.31,0,1,1,37.42-78.87,14.31,14.31,0,0,1,10.72,26.48c.12,1.38.18,2.75.18,4.08A48.37,48.37,0,0,1,185.24,121.6Z"/><path class="cls-3" d="M185.25,28a45.24,45.24,0,0,1,36.48,18.44,11.31,11.31,0,1,1,8.41,20.79A45.31,45.31,0,1,1,185.25,28m0-6a51.31,51.31,0,1,0,51.31,51.31q0-1.18-.06-2.38a17.3,17.3,0,0,0-12.79-31.57A51.56,51.56,0,0,0,185.25,22Z"/><circle class="cls-13" cx="212.49" cy="148.45" r="6.92"/><path class="cls-7" d="M252.94,186a7.49,7.49,0,0,1-5.51-2.41l-27.81-30.31a7.22,7.22,0,0,1-.83-1.11,10.62,10.62,0,1,1,18.87-6.68,10.47,10.47,0,0,1-.9,4.28l5.8,6.32-2.41-17.4a7.51,7.51,0,0,1,6.4-8.46,7.5,7.5,0,0,1,8.46,6.4l5.63,40.75a7.79,7.79,0,0,1-7.7,8.62Z"/><path class="cls-3" d="M247.58,133.11A4.52,4.52,0,0,1,252,137l5.63,40.75a4.52,4.52,0,0,1-3,4.86,4.56,4.56,0,0,1-1.75.35,4.45,4.45,0,0,1-3.3-1.44L221.84,151.2a4.45,4.45,0,0,1-.59-.82,7.63,7.63,0,1,1,11.8-.28l13.8,15-3.72-26.92a4.5,4.5,0,0,1,4.46-5.12m0-6a10.53,10.53,0,0,0-10.42,9.22,13.61,13.61,0,0,0-20.82,17.53,10.1,10.1,0,0,0,1.07,1.4l27.81,30.31a10.69,10.69,0,0,0,18.39-8.65L258,136.17a10.54,10.54,0,0,0-10.4-9.06Z"/><path class="cls-8" d="M236,119.82h15.16a11.63,11.63,0,0,1,11.63,11.63v0a11.63,11.63,0,0,1-11.63,11.63H236a5.81,5.81,0,0,1-5.81-5.81V125.63a5.81,5.81,0,0,1,5.81-5.81Z" transform="translate(149.99 393.58) rotate(-97.87)"/><line class="cls-8" x1="242.4" y1="155.72" x2="248.96" y2="163.19"/><line class="cls-8" x1="237.01" y1="146.3" x2="232.71" y2="150.61"/><path class="cls-5" d="M171.12,71.35s2.88,7,8.79,4.14,1.51-10,1.51-10"/><path class="cls-5" d="M136.12,88.35s2.88,7,8.79,4.14,1.51-10,1.51-10"/><path class="cls-3" d="M176.85,106.93a3.9,3.9,0,0,1-3.58-1.82,3.18,3.18,0,0,1,.13-3.25c.5-.82,1-1.67,1.43-2.46a17.1,17.1,0,0,1,2.54-3.83,3.14,3.14,0,0,1,2.15-.88,3.52,3.52,0,0,1,3,2,7.4,7.4,0,0,1-.14,7.12A6.51,6.51,0,0,1,176.85,106.93Z"/><path class="cls-3" d="M179.52,97.17c1,0,2.08,3.06.75,5.31a4,4,0,0,1-3.42,2c-1.07,0-1.81-.51-1.33-1.27,1.44-2.33,2.68-5,3.56-5.8a.64.64,0,0,1,.44-.2m0-5h0a5.62,5.62,0,0,0-3.86,1.56,18.44,18.44,0,0,0-3,4.43c-.45.8-.91,1.62-1.37,2.37a5.64,5.64,0,0,0-.19,5.78,6.4,6.4,0,0,0,5.76,3.1,9,9,0,0,0,7.71-4.4,9.86,9.86,0,0,0,.16-9.62,6,6,0,0,0-5.19-3.21Z"/><path class="cls-14" d="M161.59,94.42a6.93,6.93,0,0,1-6-3.45l-3.39-5.87a6.91,6.91,0,0,1,12-6.91l3.39,5.87a6.9,6.9,0,0,1-6,10.36Z"/><path class="cls-3" d="M158.18,77.74a3.91,3.91,0,0,1,3.39,2L165,85.56a3.92,3.92,0,0,1-1.43,5.34h0a3.87,3.87,0,0,1-1.94.52,3.91,3.91,0,0,1-3.39-2l-3.39-5.87a3.92,3.92,0,0,1,1.43-5.34h0a3.87,3.87,0,0,1,1.94-.52m0-6h0a9.9,9.9,0,0,0-8.57,14.86L153,92.47a9.91,9.91,0,0,0,17.16-9.91l-3.39-5.87a9.94,9.94,0,0,0-8.59-5Z"/><polygon class="cls-7" points="187.22 126.69 180.37 113.85 194.85 115.01 196.47 116.38 191.85 125.39 187.22 126.69"/><path class="cls-15" d="M200.54,119.1a44.32,44.32,0,0,1-5.29,1.38l-3.86.71"/><path class="cls-6" d="M233.7,126a19.84,19.84,0,0,0-3.09,3.55,19.18,19.18,0,0,0-2.1,4.15"/><path class="cls-6" d="M260.74,172a19.51,19.51,0,0,0,9.6-1.11,18.53,18.53,0,0,0,6.22-5.05"/><line class="cls-6" x1="276.16" y1="160.19" x2="278.02" y2="172.02"/><path class="cls-6" d="M253.56,117.64A56.28,56.28,0,0,1,265,114.93"/><line class="cls-6" x1="255.01" y1="104.94" x2="272.85" y2="92.56"/><path class="cls-4" d="M307.16,354.6s3.13,1.92,12.51,1.92,12.53-1.92,12.53-1.92,2.74-19.35-12.57-19.23S307.16,354.6,307.16,354.6Z"/><path class="cls-4" d="M370,344.46a297.77,297.77,0,0,0,39.22-3.59c22.8-3.44,37.34-8,37.34-8s4.55-12.15-4-18.59c-5.75-4.35-13.56-3.41-13.56-3.41s-4.66-26.84-29.15-22.44c-22.17,4-20.19,24.69-20.19,24.69s-10.12,2.56-12.92,12.37S370,344.46,370,344.46Z"/><path class="cls-4" d="M520.31,264s-15.51,2.91-46.36,4.86-46.64,1-46.64,1-1.84-5.84,2.16-9.9c3-3,8.46-2.06,8.46-2.06s-13.69-26.3,4.22-38.23c14.88-9.92,26.8-2.19,26.8-2.19A36,36,0,0,1,495.1,217c14.6,5.51,13.08,22.56,13.08,22.56s9,1.16,12.19,7.68C524.3,255.19,520.31,264,520.31,264Z"/><path class="cls-3" d="M65.49,335.64a7.33,7.33,0,0,1-5-2l-.14-.13L35.15,306.86a8.26,8.26,0,0,1-2.71-6.17,6.51,6.51,0,0,1,2.15-4.62,5.24,5.24,0,0,1,3.82-1.59c2.57,0,5,1.73,6.56,3.19l27.24,23.42a7.48,7.48,0,0,1,.29,10.57L71,333.23A7.61,7.61,0,0,1,65.49,335.64Z"/><path class="cls-3" d="M38.41,297.47c1.53,0,3.31,1.26,4.56,2.43l27.19,23.37a4.49,4.49,0,0,1,.14,6.33l-1.47,1.58a4.58,4.58,0,0,1-3.35,1.46,4.34,4.34,0,0,1-3-1.16L37.33,304.8c-2.46-2.47-2.36-5.08-.66-6.58a2.28,2.28,0,0,1,1.74-.76m0-6a8.28,8.28,0,0,0-5.9,2.43,9.47,9.47,0,0,0-3.08,6.69A11.48,11.48,0,0,0,33,309L58.15,335.6l.27.27a10.32,10.32,0,0,0,7.07,2.77,10.62,10.62,0,0,0,7.73-3.37l1.47-1.58a10.53,10.53,0,0,0,2.85-7.45,10.28,10.28,0,0,0-3.28-7.36l-.18-.16L47,295.42c-2-1.83-5-4-8.56-4Z"/><line class="cls-6" x1="265.65" y1="110.92" x2="268.13" y2="118.95"/><line class="cls-8" x1="3" y1="377.16" x2="1612.98" y2="377.16"/><path class="cls-5" d="M466.46,216.26a36.14,36.14,0,0,1,7.3,4.53,32.23,32.23,0,0,1,4.4,4.53"/><line class="cls-5" x1="485.27" y1="170.68" x2="492.98" y2="169"/><path class="cls-5" d="M508.74,169s7.12-.7,16.77,5.34c8.61,5.39,10.29,15.76,10.29,15.76"/><path class="cls-5" d="M581.07,168.52c.25.09-2.81-.92-6.43-1.78a52.7,52.7,0,0,0-5.58-.92"/><path class="cls-5" d="M609.32,201.31s-2.73-.5-4.15-.67-3.81-.34-3.81-.34"/><line class="cls-5" x1="377.99" y1="313.72" x2="384.59" y2="311.46"/><path class="cls-16" d="M305.91,170.24s1.49,5.68-.45,9.75a20.52,20.52,0,0,1-6,6.92"/><path class="cls-16" d="M315.72,179.46a14,14,0,0,1-1.32,5.64,21.42,21.42,0,0,1-2.56,3.31"/><path class="cls-17" d="M408.3,163.35a6.07,6.07,0,1,0-6.29,4.23,6.07,6.07,0,1,0,6.29-4.23Z"/><path class="cls-17" d="M419.92,159.09a6.07,6.07,0,1,0-7.18,2.42,6.07,6.07,0,1,0,7.18-2.42Z"/><line class="cls-5" x1="404.27" y1="148.87" x2="416.61" y2="175.6"/><path class="cls-18" d="M619.57,265a6.07,6.07,0,1,0-7.29-2.08,6.07,6.07,0,1,0,7.29,2.08Z"/><path class="cls-18" d="M630.32,271.13a6.07,6.07,0,1,0-6.48-3.93,6.07,6.07,0,1,0,6.48,3.93Z"/><line class="cls-5" x1="628.03" y1="252.58" x2="615.56" y2="279.26"/><path class="cls-4" d="M234.07,69a14.11,14.11,0,0,1-3.49,1.08,19,19,0,0,1-6.13-.24"/><path class="cls-18" d="M224.17,42.29a13.87,13.87,0,0,0-7.25,4.21,14.88,14.88,0,0,0-3,6.55s-8.88-3.23-12.47-9.59-3.18-9.35-3.18-9.35l7.18-4.2s7.74-6.1,11.53-2.71S224.17,42.29,224.17,42.29Z"/><circle class="cls-3" cx="228.31" cy="55.66" r="4.09"/><path class="cls-6" d="M135.13,61.86s-31,19-24.82,24.95c7.67,7.3,68.54-35.24,68.54-35.24Z"/><path class="cls-13" d="M219.69,31.06S191.89,48.6,165.52,57s-36,9.36-36,9.36S117,26.17,154.33,10.72C206.59-10.88,219.69,31.06,219.69,31.06Z"/><circle class="cls-8" cx="147.24" cy="42.06" r="8.83"/><line class="cls-8" x1="159.29" y1="3" x2="161.03" y2="7.84"/><path class="cls-19" d="M737.07,349.18s3.41,1.44,16.3,1.44,16.3-1.44,16.3-1.44l-17.1-18.71Z"/><path class="cls-20" d="M753.37,335.33c-20.18,0-43.56-13.4-62.53-35.85-19.65-23.25-30.93-51.7-30.93-78,0-27.14,9.5-50.19,27.46-66.68,16.83-15.44,40.26-23.94,66-23.94s49.16,8.5,66,23.94c18,16.48,27.47,39.54,27.47,66.68,0,26.41-11.19,54.86-30.69,78C797.24,321.93,773.77,335.33,753.37,335.33Z"/><path class="cls-3" d="M753.37,133.83c50,0,90.45,32.52,90.45,87.61S794,332.33,753.37,332.33c-40,0-90.45-55.79-90.45-110.88s40.5-87.61,90.45-87.61m0-6c-26.48,0-50.64,8.78-68,24.72-18.6,17.07-28.44,40.89-28.44,68.89,0,27,11.53,56.19,31.64,80,19.53,23.11,43.77,36.91,64.82,36.91,21.28,0,45.6-13.8,65.06-36.92,20-23.71,31.39-52.85,31.39-80,0-28-9.83-51.82-28.44-68.89-17.38-15.94-41.54-24.72-68-24.72Z"/><ellipse class="cls-21" cx="710.87" cy="165.6" rx="28.3" ry="14.15" transform="matrix(0.84, -0.54, 0.54, 0.84, 24.08, 412.75)"/><path class="cls-5" d="M680.29,214.25a8.46,8.46,0,0,1,8.44-6.43,8.81,8.81,0,0,1,8.65,6.43"/><path class="cls-5" d="M826.44,214.25a8.46,8.46,0,0,0-8.44-6.43,8.81,8.81,0,0,0-8.65,6.43"/><path class="cls-3" d="M784.84,222.7c-3,0-6.38-1.22-10.26-2.63-5.53-2-12.42-4.53-21.26-4.64-8.77.11-15.65,2.62-21.18,4.64-3.87,1.41-7.22,2.63-10.26,2.63a9,9,0,0,1-7-3.17c-2.45-2.81-2.65-7.11-.55-11.79,4.44-9.9,18.23-20,39-20.2,20.85.21,34.64,10.29,39.08,20.2,2.1,4.69,1.9,9-.55,11.79a9,9,0,0,1-7,3.17Z"/><path class="cls-3" d="M753.37,190.54c29.25.29,41.68,20.78,36.24,27a5.94,5.94,0,0,1-4.77,2.15c-6.35,0-16-7.08-31.48-7.27-15.45.19-25.12,7.27-31.48,7.27a5.94,5.94,0,0,1-4.77-2.15c-5.44-6.23,7-26.73,36.24-27m0-6h-.06c-10.25.1-19.73,2.54-27.42,7.05-6.67,3.91-11.75,9.21-14.31,14.92s-2.18,11.32,1,15a12,12,0,0,0,9.29,4.2c3.57,0,7.15-1.3,11.29-2.82,5.3-1.93,11.9-4.34,20.19-4.46,8.29.12,14.89,2.52,20.19,4.46,4.14,1.51,7.72,2.82,11.29,2.82a12,12,0,0,0,9.29-4.2c3.21-3.67,3.59-9.28,1-15-4.83-10.78-19.61-21.75-41.73-22Z"/><g class="cls-22"><circle class="cls-23" cx="753.37" cy="219.7" r="18.93"/></g><path class="cls-19" d="M1184.67,351.18s3.41,1.44,16.3,1.44,16.3-1.44,16.3-1.44l-17.1-18.71Z"/><path class="cls-20" d="M1201,337.33c-20.18,0-43.55-13.4-62.53-35.85-19.65-23.25-30.93-51.7-30.93-78,0-27.14,9.5-50.19,27.46-66.67,16.83-15.44,40.26-23.94,66-23.94s49.16,8.5,66,23.94c18,16.48,27.46,39.54,27.46,66.67,0,26.41-11.19,54.86-30.69,78C1244.84,323.92,1221.38,337.33,1201,337.33Z"/><path class="cls-3" d="M1201,135.83c50,0,90.45,32.52,90.45,87.61S1241.61,334.33,1201,334.33c-40,0-90.45-55.79-90.45-110.88s40.5-87.61,90.45-87.61m0-6c-26.48,0-50.64,8.78-68,24.72-18.6,17.07-28.44,40.89-28.44,68.89,0,27,11.53,56.19,31.63,80,19.53,23.11,43.77,36.91,64.82,36.91,21.28,0,45.6-13.8,65.06-36.92,20-23.71,31.39-52.85,31.39-80,0-28-9.83-51.82-28.44-68.89-17.38-15.94-41.54-24.72-68-24.72Z"/><ellipse class="cls-21" cx="1158.47" cy="167.6" rx="28.3" ry="14.15" transform="translate(94.81 656.24) rotate(-32.91)"/><path class="cls-5" d="M1127.89,216.25a8.46,8.46,0,0,1,8.44-6.43,8.81,8.81,0,0,1,8.65,6.43"/><path class="cls-5" d="M1274,216.25a8.46,8.46,0,0,0-8.44-6.43,8.81,8.81,0,0,0-8.65,6.43"/><path class="cls-3" d="M1232.44,224.7c-3,0-6.38-1.22-10.26-2.63-5.53-2-12.42-4.53-21.26-4.64-8.77.11-15.65,2.62-21.18,4.64-3.87,1.41-7.22,2.63-10.26,2.63a9,9,0,0,1-7-3.17c-2.45-2.81-2.65-7.11-.55-11.79,4.44-9.9,18.23-20,39-20.2,20.85.21,34.64,10.29,39.08,20.2,2.1,4.69,1.9,9-.55,11.79a9,9,0,0,1-7,3.17Z"/><path class="cls-3" d="M1201,192.54c29.25.29,41.68,20.78,36.24,27a5.94,5.94,0,0,1-4.77,2.15c-6.35,0-16-7.08-31.48-7.27-15.45.19-25.12,7.27-31.48,7.27a5.94,5.94,0,0,1-4.77-2.15c-5.44-6.23,7-26.73,36.24-27m0-6h-.06c-10.25.1-19.73,2.54-27.42,7.05-6.67,3.91-11.75,9.21-14.31,14.92s-2.18,11.32,1,15a12,12,0,0,0,9.29,4.2c3.57,0,7.15-1.3,11.29-2.82,5.3-1.93,11.9-4.34,20.19-4.46,8.29.12,14.89,2.52,20.19,4.46,4.14,1.51,7.72,2.82,11.29,2.82a12,12,0,0,0,9.29-4.2c3.21-3.67,3.59-9.28,1-15-4.83-10.78-19.61-21.75-41.73-22Z"/><g class="cls-24"><circle class="cls-23" cx="1200.97" cy="221.7" r="18.93"/></g><path class="cls-19" d="M954.68,349s3.41,1.44,16.3,1.44,16.3-1.44,16.3-1.44l-17.1-18.71Z"/><path class="cls-20" d="M971,335.18c-20.18,0-43.56-13.4-62.53-35.85-19.65-23.25-30.93-51.7-30.93-78,0-27.14,9.5-50.19,27.47-66.68,16.83-15.43,40.26-23.94,66-23.94s49.16,8.5,66,23.94c18,16.48,27.47,39.54,27.47,66.68,0,26.41-11.19,54.86-30.69,78C1014.85,321.78,991.38,335.18,971,335.18Z"/><path class="cls-3" d="M971,133.69c50,0,90.45,32.52,90.45,87.61S1011.62,332.18,971,332.18c-40,0-90.45-55.79-90.45-110.88S921,133.69,971,133.69m0-6c-26.48,0-50.64,8.78-68,24.72-18.6,17.07-28.44,40.89-28.44,68.89,0,27,11.53,56.19,31.63,80,19.53,23.11,43.77,36.91,64.82,36.91,21.28,0,45.6-13.8,65.06-36.92,20-23.71,31.39-52.85,31.39-80,0-28-9.83-51.82-28.44-68.89-17.38-15.94-41.54-24.72-68-24.72Z"/><ellipse class="cls-21" cx="928.48" cy="165.46" rx="28.3" ry="14.15" transform="translate(59.07 530.95) rotate(-32.91)"/><path class="cls-5" d="M897.9,214.11a8.46,8.46,0,0,1,8.44-6.43,8.81,8.81,0,0,1,8.65,6.43"/><path class="cls-5" d="M1044.05,214.11a8.46,8.46,0,0,0-8.44-6.43,8.81,8.81,0,0,0-8.65,6.43"/><path class="cls-3" d="M1002.45,222.56c-3,0-6.38-1.22-10.26-2.63-5.53-2-12.42-4.53-21.26-4.64-8.77.11-15.65,2.62-21.18,4.64-3.87,1.41-7.22,2.63-10.26,2.63a9,9,0,0,1-7-3.17c-2.45-2.81-2.65-7.11-.55-11.79,4.44-9.9,18.23-20,39-20.2,20.85.21,34.64,10.29,39.08,20.2,2.1,4.69,1.9,9-.55,11.79a9,9,0,0,1-7,3.17Z"/><path class="cls-3" d="M971,190.39c29.25.29,41.68,20.78,36.24,27a5.94,5.94,0,0,1-4.77,2.15c-6.35,0-16-7.08-31.48-7.27-15.45.19-25.12,7.27-31.48,7.27a5.94,5.94,0,0,1-4.77-2.15c-5.44-6.23,7-26.73,36.24-27m0-6h-.06c-10.25.1-19.73,2.54-27.42,7.05-6.67,3.91-11.75,9.21-14.31,14.92s-2.18,11.32,1,15a12,12,0,0,0,9.29,4.2c3.57,0,7.15-1.3,11.29-2.82,5.3-1.93,11.9-4.34,20.19-4.46,8.29.12,14.89,2.52,20.19,4.46,4.14,1.51,7.72,2.82,11.29,2.82a12,12,0,0,0,9.29-4.2c3.21-3.67,3.59-9.28,1-15-4.83-10.78-19.61-21.75-41.73-22Z"/><g class="cls-25"><circle class="cls-23" cx="970.98" cy="219.56" r="18.93"/></g><path class="cls-19" d="M847.83,360.33s3.41,1.44,16.3,1.44,16.3-1.44,16.3-1.44l-17.1-18.71Z"/><path class="cls-20" d="M864.13,346.47c-20.18,0-43.56-13.4-62.53-35.85-19.65-23.25-30.93-51.7-30.93-78,0-27.14,9.5-50.19,27.46-66.67C815,150.48,838.4,142,864.13,142s49.16,8.5,66,23.94c18,16.48,27.46,39.54,27.46,66.67,0,26.41-11.19,54.86-30.69,78C908,333.07,884.54,346.47,864.13,346.47Z"/><path class="cls-3" d="M864.13,145c50,0,90.45,32.52,90.45,87.61s-49.81,110.88-90.45,110.88c-40,0-90.45-55.79-90.45-110.88S814.18,145,864.13,145m0-6c-26.48,0-50.64,8.78-68,24.72-18.6,17.07-28.44,40.89-28.44,68.89,0,27,11.53,56.19,31.63,80,19.53,23.11,43.77,36.91,64.82,36.91,21.28,0,45.6-13.8,65.06-36.92,20-23.71,31.39-52.85,31.39-80,0-28-9.83-51.82-28.44-68.89-17.38-15.94-41.54-24.72-68-24.72Z"/><ellipse class="cls-21" cx="821.64" cy="176.75" rx="28.3" ry="14.15" transform="translate(35.8 474.72) rotate(-32.91)"/><path class="cls-5" d="M791.05,225.4a8.46,8.46,0,0,1,8.44-6.43,8.81,8.81,0,0,1,8.65,6.43"/><path class="cls-5" d="M937.21,225.4a8.46,8.46,0,0,0-8.44-6.43,8.81,8.81,0,0,0-8.65,6.43"/><path class="cls-3" d="M895.61,233.85c-3,0-6.38-1.22-10.26-2.63-5.53-2-12.42-4.53-21.26-4.64-8.77.11-15.65,2.62-21.18,4.64-3.87,1.41-7.22,2.63-10.26,2.63a9,9,0,0,1-7-3.17c-2.45-2.81-2.65-7.11-.55-11.79,4.44-9.9,18.23-20,39-20.2,20.85.21,34.64,10.29,39.08,20.2,2.1,4.69,1.9,9-.55,11.79a9,9,0,0,1-7,3.17Z"/><path class="cls-3" d="M864.13,201.68c29.25.29,41.68,20.78,36.24,27a5.94,5.94,0,0,1-4.77,2.15c-6.35,0-16-7.08-31.48-7.27-15.45.19-25.12,7.27-31.48,7.27a5.94,5.94,0,0,1-4.77-2.15c-5.44-6.23,7-26.73,36.24-27m0-6h-.06c-10.25.1-19.73,2.54-27.42,7.05-6.67,3.91-11.75,9.21-14.31,14.92s-2.18,11.32,1,15a12,12,0,0,0,9.29,4.2c3.57,0,7.15-1.3,11.29-2.82,5.3-1.93,11.9-4.34,20.19-4.46,8.29.12,14.89,2.52,20.19,4.46,4.14,1.51,7.72,2.82,11.29,2.82a12,12,0,0,0,9.29-4.2c3.21-3.67,3.59-9.28,1-15-4.83-10.78-19.61-21.75-41.73-22Z"/><g class="cls-26"><circle class="cls-23" cx="864.13" cy="230.85" r="18.93"/></g><path class="cls-19" d="M1065.24,360.74s3.41,1.44,16.3,1.44,16.3-1.44,16.3-1.44L1080.74,342Z"/><path class="cls-20" d="M1081.54,346.89c-20.18,0-43.55-13.4-62.53-35.85-19.65-23.25-30.93-51.7-30.93-78,0-27.14,9.5-50.19,27.46-66.68,16.83-15.43,40.26-23.93,66-23.93s49.16,8.5,66,23.93c18,16.48,27.46,39.54,27.46,66.68,0,26.41-11.19,54.86-30.69,78C1125.41,333.49,1102,346.89,1081.54,346.89Z"/><path class="cls-3" d="M1081.54,145.4c50,0,90.45,32.52,90.45,87.61s-49.81,110.88-90.45,110.88c-40,0-90.45-55.79-90.45-110.88s40.5-87.61,90.45-87.61m0-6c-26.48,0-50.64,8.78-68,24.72C994.92,181.19,985.09,205,985.09,233c0,27,11.53,56.19,31.63,80,19.53,23.11,43.77,36.91,64.82,36.91,21.28,0,45.6-13.8,65.06-36.92,20-23.71,31.39-52.85,31.39-80,0-28-9.83-51.82-28.44-68.89-17.38-15.94-41.54-24.72-68-24.72Z"/><ellipse class="cls-21" cx="1039.05" cy="177.17" rx="28.3" ry="14.15" transform="translate(70.45 592.89) rotate(-32.91)"/><path class="cls-5" d="M1008.46,225.81a8.46,8.46,0,0,1,8.44-6.43,8.81,8.81,0,0,1,8.65,6.43"/><path class="cls-5" d="M1154.62,225.81a8.46,8.46,0,0,0-8.44-6.43,8.81,8.81,0,0,0-8.65,6.43"/><path class="cls-3" d="M1113,234.26c-3,0-6.38-1.22-10.26-2.63-5.53-2-12.42-4.53-21.26-4.64-8.77.11-15.65,2.62-21.18,4.64-3.87,1.41-7.22,2.63-10.26,2.63a9,9,0,0,1-7-3.17c-2.45-2.81-2.65-7.11-.55-11.79,4.44-9.9,18.23-20,39-20.2,20.85.21,34.64,10.29,39.08,20.2,2.1,4.69,1.9,9-.55,11.79a9,9,0,0,1-7,3.17Z"/><path class="cls-3" d="M1081.54,202.1c29.25.29,41.68,20.78,36.24,27a5.94,5.94,0,0,1-4.77,2.15c-6.35,0-16-7.08-31.48-7.27-15.45.19-25.12,7.27-31.48,7.27a5.94,5.94,0,0,1-4.77-2.15c-5.44-6.23,7-26.73,36.24-27m0-6h-.06c-10.25.1-19.73,2.54-27.42,7.05-6.67,3.91-11.75,9.21-14.31,14.92s-2.18,11.32,1,15a12,12,0,0,0,9.29,4.2c3.57,0,7.15-1.3,11.29-2.82,5.3-1.93,11.9-4.34,20.19-4.46,8.29.12,14.89,2.52,20.19,4.46,4.14,1.51,7.72,2.82,11.29,2.82a12,12,0,0,0,9.29-4.2c3.21-3.67,3.59-9.28,1-15-4.83-10.78-19.61-21.75-41.73-22Z"/><g class="cls-27"><circle class="cls-23" cx="1081.54" cy="231.26" r="18.93"/></g><path class="cls-19" d="M1417.3,349.08s3.41,1.44,16.3,1.44,16.3-1.44,16.3-1.44l-17.1-18.71Z"/><path class="cls-20" d="M1433.6,335.23c-20.18,0-43.55-13.4-62.53-35.85-19.65-23.25-30.93-51.7-30.93-78,0-27.14,9.5-50.19,27.47-66.68,16.83-15.43,40.26-23.93,66-23.93s49.16,8.5,66,23.94c18,16.48,27.46,39.54,27.46,66.67,0,26.41-11.19,54.86-30.69,78C1477.47,321.82,1454,335.23,1433.6,335.23Z"/><path class="cls-3" d="M1433.6,133.73c50,0,90.45,32.52,90.45,87.61s-49.81,110.88-90.45,110.88c-40,0-90.45-55.79-90.45-110.88s40.5-87.61,90.45-87.61m0-6c-26.48,0-50.64,8.78-68,24.72-18.6,17.07-28.44,40.89-28.44,68.89,0,27,11.53,56.19,31.64,80,19.53,23.11,43.77,36.91,64.82,36.91,21.28,0,45.6-13.8,65.06-36.92,20-23.71,31.39-52.85,31.39-80,0-28-9.83-51.82-28.44-68.89-17.38-15.94-41.54-24.72-68-24.72Z"/><ellipse class="cls-21" cx="1391.11" cy="165.5" rx="28.3" ry="14.15" transform="translate(133.27 782.28) rotate(-32.91)"/><path class="cls-5" d="M1360.53,214.15a8.46,8.46,0,0,1,8.44-6.43,8.81,8.81,0,0,1,8.65,6.43"/><path class="cls-5" d="M1506.68,214.15a8.46,8.46,0,0,0-8.44-6.43,8.81,8.81,0,0,0-8.65,6.43"/><path class="cls-3" d="M1465.08,222.6c-3,0-6.38-1.22-10.26-2.63-5.53-2-12.42-4.53-21.26-4.64-8.76.11-15.65,2.62-21.18,4.64-3.87,1.41-7.22,2.63-10.26,2.63a9,9,0,0,1-7-3.17c-2.45-2.81-2.65-7.11-.55-11.79,4.44-9.9,18.23-20,39-20.2,20.85.21,34.64,10.29,39.08,20.2,2.1,4.69,1.9,9-.55,11.79a9,9,0,0,1-7,3.17Z"/><path class="cls-3" d="M1433.6,190.43c29.25.29,41.68,20.78,36.24,27a5.94,5.94,0,0,1-4.77,2.15c-6.35,0-16-7.08-31.48-7.27-15.45.19-25.12,7.27-31.48,7.27a5.94,5.94,0,0,1-4.77-2.15c-5.44-6.23,7-26.73,36.24-27m0-6h-.06c-10.25.1-19.73,2.54-27.42,7.05-6.67,3.91-11.75,9.21-14.31,14.92s-2.18,11.32,1,15a12,12,0,0,0,9.29,4.2c3.57,0,7.15-1.3,11.29-2.82,5.3-1.93,11.9-4.34,20.19-4.46,8.29.12,14.89,2.52,20.19,4.46,4.14,1.51,7.72,2.82,11.29,2.82a12,12,0,0,0,9.29-4.2c3.21-3.67,3.59-9.28,1-15-4.83-10.78-19.61-21.75-41.73-22Z"/><g class="cls-28"><circle class="cls-23" cx="1433.6" cy="219.6" r="18.93"/></g><path class="cls-19" d="M1310.46,360.37s3.41,1.44,16.3,1.44,16.3-1.44,16.3-1.44L1326,341.66Z"/><path class="cls-20" d="M1326.76,346.51c-20.18,0-43.55-13.4-62.53-35.85-19.65-23.25-30.93-51.7-30.93-78,0-27.14,9.5-50.19,27.46-66.68,16.83-15.43,40.26-23.93,66-23.93s49.16,8.5,66,23.93c18,16.48,27.46,39.54,27.46,66.68,0,26.41-11.19,54.86-30.69,78C1370.63,333.11,1347.17,346.51,1326.76,346.51Z"/><path class="cls-3" d="M1326.76,145c50,0,90.45,32.52,90.45,87.61s-49.81,110.88-90.45,110.88c-40,0-90.45-55.79-90.45-110.88S1276.8,145,1326.76,145m0-6c-26.48,0-50.64,8.78-68,24.72-18.6,17.07-28.44,40.89-28.44,68.89,0,27,11.53,56.19,31.64,80,19.53,23.11,43.77,36.91,64.82,36.91,21.28,0,45.6-13.8,65.06-36.92,20-23.71,31.39-52.85,31.39-80,0-28-9.83-51.82-28.44-68.89-17.38-15.94-41.54-24.72-68-24.72Z"/><ellipse class="cls-21" cx="1284.26" cy="176.79" rx="28.3" ry="14.15" transform="translate(110 726.05) rotate(-32.91)"/><path class="cls-5" d="M1253.68,225.44a8.46,8.46,0,0,1,8.44-6.43,8.81,8.81,0,0,1,8.65,6.43"/><path class="cls-5" d="M1399.84,225.44a8.46,8.46,0,0,0-8.44-6.43,8.81,8.81,0,0,0-8.65,6.43"/><path class="cls-3" d="M1358.24,233.89c-3,0-6.38-1.22-10.26-2.63-5.53-2-12.42-4.53-21.26-4.64-8.77.11-15.65,2.62-21.18,4.64-3.87,1.41-7.22,2.63-10.26,2.63a9,9,0,0,1-7-3.17c-2.45-2.81-2.65-7.11-.55-11.79,4.44-9.9,18.23-20,39-20.2,20.85.21,34.64,10.29,39.08,20.2,2.1,4.69,1.9,9-.55,11.79a9,9,0,0,1-7,3.17Z"/><path class="cls-3" d="M1326.76,201.72c29.25.29,41.68,20.78,36.24,27a5.94,5.94,0,0,1-4.77,2.15c-6.35,0-16-7.08-31.48-7.27-15.45.19-25.12,7.27-31.48,7.27a5.94,5.94,0,0,1-4.77-2.15c-5.44-6.23,7-26.73,36.24-27m0-6h-.06c-10.25.1-19.73,2.54-27.42,7.05-6.67,3.91-11.75,9.21-14.31,14.92s-2.18,11.32,1,15a12,12,0,0,0,9.29,4.2c3.57,0,7.15-1.3,11.29-2.82,5.3-1.93,11.9-4.34,20.19-4.46,8.29.12,14.89,2.52,20.19,4.46,4.14,1.51,7.72,2.82,11.29,2.82a12,12,0,0,0,9.29-4.2c3.21-3.67,3.59-9.28,1-15-4.83-10.78-19.61-21.75-41.73-22Z"/><g class="cls-29"><circle class="cls-23" cx="1326.76" cy="230.89" r="18.93"/></g><path class="cls-19" d="M1527.87,360.78s3.41,1.44,16.3,1.44,16.3-1.44,16.3-1.44l-17.1-18.71Z"/><path class="cls-20" d="M1544.17,346.93c-20.18,0-43.55-13.4-62.53-35.85-19.65-23.25-30.93-51.7-30.93-78,0-27.14,9.5-50.19,27.46-66.68,16.83-15.43,40.26-23.94,66-23.94s49.16,8.5,66,23.94c18,16.48,27.46,39.54,27.46,66.68,0,26.41-11.19,54.86-30.69,78C1588,333.53,1564.58,346.93,1544.17,346.93Z"/><path class="cls-3" d="M1544.17,145.44c50,0,90.45,32.52,90.45,87.61s-49.81,110.88-90.45,110.88c-40,0-90.45-55.79-90.45-110.88s40.5-87.61,90.45-87.61m0-6c-26.48,0-50.64,8.78-68,24.72-18.6,17.07-28.44,40.89-28.44,68.89,0,27,11.53,56.19,31.64,80,19.53,23.11,43.77,36.91,64.82,36.91,21.28,0,45.6-13.8,65.06-36.92,20-23.71,31.39-52.85,31.39-80,0-28-9.83-51.82-28.44-68.89-17.38-15.94-41.54-24.72-68-24.72Z"/><ellipse class="cls-21" cx="1501.67" cy="177.21" rx="28.3" ry="14.15" transform="translate(144.65 844.22) rotate(-32.91)"/><path class="cls-5" d="M1471.09,225.85a8.46,8.46,0,0,1,8.44-6.43,8.81,8.81,0,0,1,8.65,6.43"/><path class="cls-5" d="M1617.25,225.85a8.46,8.46,0,0,0-8.44-6.43,8.81,8.81,0,0,0-8.65,6.43"/><path class="cls-3" d="M1575.64,234.3c-3,0-6.38-1.22-10.26-2.63-5.53-2-12.42-4.53-21.26-4.64-8.77.11-15.65,2.62-21.18,4.64-3.87,1.41-7.22,2.63-10.26,2.63a9,9,0,0,1-7-3.17c-2.45-2.81-2.65-7.1-.55-11.79,4.44-9.91,18.23-20,39-20.2,20.85.21,34.64,10.29,39.08,20.2,2.1,4.69,1.9,9-.55,11.79a9,9,0,0,1-7,3.17Z"/><path class="cls-3" d="M1544.17,202.14c29.25.29,41.68,20.78,36.24,27a5.94,5.94,0,0,1-4.77,2.15c-6.35,0-16-7.08-31.48-7.27-15.45.19-25.12,7.27-31.48,7.27a5.94,5.94,0,0,1-4.77-2.15c-5.44-6.23,7-26.73,36.24-27m0-6h-.06c-10.25.1-19.73,2.54-27.42,7.05-6.67,3.91-11.75,9.21-14.31,14.92s-2.18,11.32,1,15a12,12,0,0,0,9.29,4.2c3.57,0,7.15-1.3,11.29-2.82,5.3-1.93,11.9-4.34,20.19-4.46,8.29.12,14.89,2.52,20.19,4.46,4.14,1.51,7.72,2.82,11.29,2.82a12,12,0,0,0,9.29-4.2c3.21-3.67,3.59-9.28,1-15-4.83-10.78-19.61-21.75-41.73-22Z"/><g class="cls-30"><circle class="cls-23" cx="1544.17" cy="231.3" r="18.93"/></g></g><g id="Boy"><path class="cls-3" d="M223.56,376.41a5,5,0,0,1-4.88-4.84,3,3,0,0,1,.06-.75,5.11,5.11,0,0,1,1.18-3,4.82,4.82,0,0,1,3.47-1.73l6.69-.29c.06-.16.14-.31.22-.47l13.22-25c.12-.23.21-.45.29-.65a4.25,4.25,0,0,1,3.92-3.08,5.51,5.51,0,0,1,2.2.51l2.65-.22h.25a3,3,0,0,1,.76.1,10,10,0,0,1,6.61,5.8,8.63,8.63,0,0,1-.66,7.89l-14.17,22.94a6,6,0,0,1-5.46,2.87l-.33,0h-.12Z"/><path class="cls-3" d="M247.72,339.57a3.89,3.89,0,0,1,1.64.57l3.46-.29c3.69,1,6.53,5.31,4.14,9.23l-14.2,23a3.11,3.11,0,0,1-2.91,1.38h-.18l-.22,0-15.83-.07h-.07a2,2,0,0,1-1.88-2l.06-.23a2,2,0,0,1,1.78-2.12l9.32-.4a2.54,2.54,0,0,1,.11-1.95l13.22-25c.61-1.15.67-2.13,1.56-2.13m0-6c-2.12,0-5,.86-6.69,4.94-.06.15-.13.33-.17.4l-12.66,24-4.94.21a8,8,0,0,0-7.5,7.34,6,6,0,0,0-.08,1.27,8,8,0,0,0,7.88,7.71h.14l15.74.07h.28l.38,0a9,9,0,0,0,7.85-4.34l14.13-22.88a11.74,11.74,0,0,0,.9-10.61,13,13,0,0,0-8.63-7.58,6,6,0,0,0-1.51-.19l-.5,0-2,.16a8.07,8.07,0,0,0-2.65-.47Z"/><line class="cls-4" x1="319.67" y1="376.47" x2="319.67" y2="349.81"/><line class="cls-4" x1="411.43" y1="376.47" x2="404.87" y2="334.88"/><line class="cls-4" x1="423.25" y1="334.88" x2="409.21" y2="357.37"/><line class="cls-4" x1="532.35" y1="375.34" x2="537.15" y2="234.27"/><polyline class="cls-5" points="457.64 265.88 474.16 279.28 492.16 280.62"/><polyline class="cls-5" points="484.79 262.93 492.16 280.62 534.3 307.84"/><polyline class="cls-5" points="536.17 262.93 566.11 246.72 571.2 227.43"/><path class="cls-4" d="M624.93,228c0,.19-24.38,6.3-78.83,13.1C505.56,246.12,464.5,248,464.5,248s4.06-11.11-.81-17.49-4.79-14.5-4.79-14.5-6.43-20.07,5.67-33.87c8.79-10,23-11.87,23-11.87S493,129.78,536.68,132c40.54,2,41.25,35.63,41.25,35.63s14.13,3.25,21.38,12.88a41.65,41.65,0,0,1,7.87,20.47s8.95.83,15.08,7.39C629.64,216.2,624.93,228,624.93,228Z"/><path class="cls-6" d="M226.56,85.85s43.5,3.88,46.5,5.63,11,28.12,14.75,46.5,5,34.88,4.13,37.38-27,23.5-31.25,23.25-12.75-4.37-12.75-4.37l-19.42-60.53-3-9.22Z"/><path class="cls-7" d="M191.32,183a7.49,7.49,0,0,1-5.51-2.41L158,150.23a7.22,7.22,0,0,1-.83-1.11A10.62,10.62,0,1,1,176,142.44a10.47,10.47,0,0,1-.9,4.28l5.8,6.32-2.41-17.4a7.51,7.51,0,0,1,6.4-8.46,7.5,7.5,0,0,1,8.46,6.4L199,174.33a7.79,7.79,0,0,1-7.7,8.62Z"/><path class="cls-3" d="M186,130.11a4.52,4.52,0,0,1,4.46,3.88L196,174.74a4.52,4.52,0,0,1-3,4.86,4.56,4.56,0,0,1-1.75.35,4.45,4.45,0,0,1-3.3-1.44L160.21,148.2a4.45,4.45,0,0,1-.59-.82,7.63,7.63,0,1,1,11.8-.28l13.8,15-3.72-26.92a4.5,4.5,0,0,1,4.46-5.12m0-6a10.53,10.53,0,0,0-10.42,9.22,13.61,13.61,0,0,0-20.82,17.53,10.1,10.1,0,0,0,1.07,1.4l27.81,30.31A10.69,10.69,0,0,0,202,173.92l-5.63-40.75a10.54,10.54,0,0,0-10.4-9.06Z"/><path class="cls-8" d="M174.34,116.82H189.5a11.63,11.63,0,0,1,11.63,11.63v0a11.63,11.63,0,0,1-11.63,11.63H174.34a5.81,5.81,0,0,1-5.81-5.81V122.63a5.81,5.81,0,0,1,5.81-5.81Z" transform="translate(82.9 329.12) rotate(-97.87)"/><line class="cls-8" x1="180.78" y1="152.72" x2="187.34" y2="160.19"/><line class="cls-8" x1="175.39" y1="143.3" x2="171.08" y2="147.61"/><path class="cls-7" d="M247.21,349a7.35,7.35,0,0,1-7-5.06l-16.49-50.26a6.6,6.6,0,0,1-.24-1,7.15,7.15,0,0,1-.19-1.62v-52.9a7.37,7.37,0,0,1,7.36-7.36h.28a7.37,7.37,0,0,1,7.36,7.36v51.81l16.18,49.3a7.37,7.37,0,0,1-4.7,9.28l-.27.09a7.32,7.32,0,0,1-2.29.37Z"/><path class="cls-3" d="M230.93,233.75a4.37,4.37,0,0,1,4.36,4.36V290.4l16.33,49.76a4.37,4.37,0,0,1-2.78,5.5l-.27.09a4.32,4.32,0,0,1-1.35.22,4.38,4.38,0,0,1-4.15-3L226.57,292.7a10.35,10.35,0,0,1-.28-1.69v-52.9a4.37,4.37,0,0,1,4.36-4.36h.28m0-6h-.28a10.37,10.37,0,0,0-10.36,10.36V291a10.05,10.05,0,0,0,.25,2.21,9.52,9.52,0,0,0,.33,1.36l16.49,50.26a10.36,10.36,0,0,0,13.07,6.61l.27-.09a10.37,10.37,0,0,0,6.61-13.07l-16-48.85V238.11a10.37,10.37,0,0,0-10.36-10.36Z"/><path class="cls-7" d="M68.1,324.79a7.49,7.49,0,0,1-5.47-12.63l94.24-100.35a7.51,7.51,0,0,1,10.6-.33,7.51,7.51,0,0,1,.33,10.6L73.57,322.43a7.53,7.53,0,0,1-5.47,2.36Z"/><path class="cls-3" d="M162.34,212.46a4.48,4.48,0,0,1,3.08,1.21h0a4.51,4.51,0,0,1,.2,6.36L71.38,320.38a4.5,4.5,0,0,1-6.56-6.16l94.24-100.35a4.49,4.49,0,0,1,3.28-1.41m0-6a10.54,10.54,0,0,0-7.66,3.31L60.45,310.11a10.49,10.49,0,0,0,7.65,17.68,10.54,10.54,0,0,0,7.66-3.31L170,224.14a10.49,10.49,0,0,0-7.65-17.68Z"/><polygon class="cls-6" points="166.56 187.72 136.56 220.72 163.56 245.72 183.56 222.72 210.56 230.72 210.56 252.72 249.56 252.72 249.56 198.72 220.56 186.72 166.56 187.72"/><path class="cls-8" d="M167.56,129.72l-1,58s12.09,5.4,38,10c25.67,4.56,45,1.88,45,1.88V137.72l-3-22a77.55,77.55,0,0,0-6-7,75.69,75.69,0,0,0-7-6,125.26,125.26,0,0,1-32,8C183.56,112.72,167.56,129.72,167.56,129.72Z"/><line class="cls-6" x1="210.56" y1="233.72" x2="210.56" y2="224.72"/><line class="cls-6" x1="186.93" y1="223.72" x2="177.03" y2="220.61"/><g class="cls-9"><path class="cls-10" d="M70.8,298.4l17.43,15.86s-2.44,9.92-4.57,12.28-22.55,10.39-28.5-.14S70.8,298.4,70.8,298.4Z"/></g><g class="cls-11"><path class="cls-10" d="M230.69,333.94l21.41-7.79s8.36,5.92,9.51,8.89-.81,24.82-12.88,25.42S230.69,333.94,230.69,333.94Z"/></g><path class="cls-8" d="M181.5,117.61s-5.41,17.52-7.24,16.72c-3.32-1.45-10-2.84-10.27-8.3-.22-5.22,2.32-13.89,2.32-13.89Z"/><path class="cls-8" d="M196.06,118.72s7.84,13.95,9.51,14.94c1.38.81,19.86-11.92,25.66-20.53,3.3-4.89,5.58-11.16,2.46-16.17a30.24,30.24,0,0,0-5.38-6.37Z"/><path class="cls-7" d="M148.24,109.6a14.31,14.31,0,1,1,14.31-14.31A14.33,14.33,0,0,1,148.24,109.6Z"/><path class="cls-3" d="M148.25,84a11.31,11.31,0,1,1-11.31,11.31A11.31,11.31,0,0,1,148.25,84m0-6a17.31,17.31,0,1,0,17.31,17.31A17.33,17.33,0,0,0,148.25,78Z"/><polygon class="cls-12" points="198.2 119.54 189.32 136.99 180.41 120.33 198.2 119.54"/><path class="cls-7" d="M185.24,121.6a48.31,48.31,0,1,1,37.42-78.87,14.31,14.31,0,0,1,10.72,26.48c.12,1.38.18,2.75.18,4.08A48.37,48.37,0,0,1,185.24,121.6Z"/><path class="cls-3" d="M185.25,28a45.24,45.24,0,0,1,36.48,18.44,11.31,11.31,0,1,1,8.41,20.79A45.31,45.31,0,1,1,185.25,28m0-6a51.31,51.31,0,1,0,51.31,51.31q0-1.18-.06-2.38a17.3,17.3,0,0,0-12.79-31.57A51.56,51.56,0,0,0,185.25,22Z"/><circle class="cls-13" cx="212.49" cy="148.45" r="6.92"/><path class="cls-7" d="M252.94,186a7.49,7.49,0,0,1-5.51-2.41l-27.81-30.31a7.22,7.22,0,0,1-.83-1.11,10.62,10.62,0,1,1,18.87-6.68,10.47,10.47,0,0,1-.9,4.28l5.8,6.32-2.41-17.4a7.51,7.51,0,0,1,6.4-8.46,7.5,7.5,0,0,1,8.46,6.4l5.63,40.75a7.79,7.79,0,0,1-7.7,8.62Z"/><path class="cls-3" d="M247.58,133.11A4.52,4.52,0,0,1,252,137l5.63,40.75a4.52,4.52,0,0,1-3,4.86,4.56,4.56,0,0,1-1.75.35,4.45,4.45,0,0,1-3.3-1.44L221.84,151.2a4.45,4.45,0,0,1-.59-.82,7.63,7.63,0,1,1,11.8-.28l13.8,15-3.72-26.92a4.5,4.5,0,0,1,4.46-5.12m0-6a10.53,10.53,0,0,0-10.42,9.22,13.61,13.61,0,0,0-20.82,17.53,10.1,10.1,0,0,0,1.07,1.4l27.81,30.31a10.69,10.69,0,0,0,18.39-8.65L258,136.17a10.54,10.54,0,0,0-10.4-9.06Z"/><path class="cls-8" d="M236,119.82h15.16a11.63,11.63,0,0,1,11.63,11.63v0a11.63,11.63,0,0,1-11.63,11.63H236a5.81,5.81,0,0,1-5.81-5.81V125.63a5.81,5.81,0,0,1,5.81-5.81Z" transform="translate(149.99 393.58) rotate(-97.87)"/><line class="cls-8" x1="242.4" y1="155.72" x2="248.96" y2="163.19"/><line class="cls-8" x1="237.01" y1="146.3" x2="232.71" y2="150.61"/><path class="cls-5" d="M171.12,71.35s2.88,7,8.79,4.14,1.51-10,1.51-10"/><path class="cls-5" d="M136.12,88.35s2.88,7,8.79,4.14,1.51-10,1.51-10"/><path class="cls-3" d="M176.85,106.93a3.9,3.9,0,0,1-3.58-1.82,3.18,3.18,0,0,1,.13-3.25c.5-.82,1-1.67,1.43-2.46a17.1,17.1,0,0,1,2.54-3.83,3.14,3.14,0,0,1,2.15-.88,3.52,3.52,0,0,1,3,2,7.4,7.4,0,0,1-.14,7.12A6.51,6.51,0,0,1,176.85,106.93Z"/><path class="cls-3" d="M179.52,97.17c1,0,2.08,3.06.75,5.31a4,4,0,0,1-3.42,2c-1.07,0-1.81-.51-1.33-1.27,1.44-2.33,2.68-5,3.56-5.8a.64.64,0,0,1,.44-.2m0-5h0a5.62,5.62,0,0,0-3.86,1.56,18.44,18.44,0,0,0-3,4.43c-.45.8-.91,1.62-1.37,2.37a5.64,5.64,0,0,0-.19,5.78,6.4,6.4,0,0,0,5.76,3.1,9,9,0,0,0,7.71-4.4,9.86,9.86,0,0,0,.16-9.62,6,6,0,0,0-5.19-3.21Z"/><path class="cls-14" d="M161.59,94.42a6.93,6.93,0,0,1-6-3.45l-3.39-5.87a6.91,6.91,0,0,1,12-6.91l3.39,5.87a6.9,6.9,0,0,1-6,10.36Z"/><path class="cls-3" d="M158.18,77.74a3.91,3.91,0,0,1,3.39,2L165,85.56a3.92,3.92,0,0,1-1.43,5.34h0a3.87,3.87,0,0,1-1.94.52,3.91,3.91,0,0,1-3.39-2l-3.39-5.87a3.92,3.92,0,0,1,1.43-5.34h0a3.87,3.87,0,0,1,1.94-.52m0-6h0a9.9,9.9,0,0,0-8.57,14.86L153,92.47a9.91,9.91,0,0,0,17.16-9.91l-3.39-5.87a9.94,9.94,0,0,0-8.59-5Z"/><polygon class="cls-7" points="187.22 126.69 180.37 113.85 194.85 115.01 196.47 116.38 191.85 125.39 187.22 126.69"/><path class="cls-15" d="M200.54,119.1a44.32,44.32,0,0,1-5.29,1.38l-3.86.71"/><path class="cls-6" d="M233.7,126a19.84,19.84,0,0,0-3.09,3.55,19.18,19.18,0,0,0-2.1,4.15"/><path class="cls-6" d="M260.74,172a19.51,19.51,0,0,0,9.6-1.11,18.53,18.53,0,0,0,6.22-5.05"/><line class="cls-6" x1="276.16" y1="160.19" x2="278.02" y2="172.02"/><path class="cls-6" d="M253.56,117.64A56.28,56.28,0,0,1,265,114.93"/><line class="cls-6" x1="255.01" y1="104.94" x2="272.85" y2="92.56"/><path class="cls-4" d="M307.16,354.6s3.13,1.92,12.51,1.92,12.53-1.92,12.53-1.92,2.74-19.35-12.57-19.23S307.16,354.6,307.16,354.6Z"/><path class="cls-4" d="M370,344.46a297.77,297.77,0,0,0,39.22-3.59c22.8-3.44,37.34-8,37.34-8s4.55-12.15-4-18.59c-5.75-4.35-13.56-3.41-13.56-3.41s-4.66-26.84-29.15-22.44c-22.17,4-20.19,24.69-20.19,24.69s-10.12,2.56-12.92,12.37S370,344.46,370,344.46Z"/><path class="cls-4" d="M520.31,264s-15.51,2.91-46.36,4.86-46.64,1-46.64,1-1.84-5.84,2.16-9.9c3-3,8.46-2.06,8.46-2.06s-13.69-26.3,4.22-38.23c14.88-9.92,26.8-2.19,26.8-2.19A36,36,0,0,1,495.1,217c14.6,5.51,13.08,22.56,13.08,22.56s9,1.16,12.19,7.68C524.3,255.19,520.31,264,520.31,264Z"/><path class="cls-3" d="M65.49,335.64a7.33,7.33,0,0,1-5-2l-.14-.13L35.15,306.86a8.26,8.26,0,0,1-2.71-6.17,6.51,6.51,0,0,1,2.15-4.62,5.24,5.24,0,0,1,3.82-1.59c2.57,0,5,1.73,6.56,3.19l27.24,23.42a7.48,7.48,0,0,1,.29,10.57L71,333.23A7.61,7.61,0,0,1,65.49,335.64Z"/><path class="cls-3" d="M38.41,297.47c1.53,0,3.31,1.26,4.56,2.43l27.19,23.37a4.49,4.49,0,0,1,.14,6.33l-1.47,1.58a4.58,4.58,0,0,1-3.35,1.46,4.34,4.34,0,0,1-3-1.16L37.33,304.8c-2.46-2.47-2.36-5.08-.66-6.58a2.28,2.28,0,0,1,1.74-.76m0-6a8.28,8.28,0,0,0-5.9,2.43,9.47,9.47,0,0,0-3.08,6.69A11.48,11.48,0,0,0,33,309L58.15,335.6l.27.27a10.32,10.32,0,0,0,7.07,2.77,10.62,10.62,0,0,0,7.73-3.37l1.47-1.58a10.53,10.53,0,0,0,2.85-7.45,10.28,10.28,0,0,0-3.28-7.36l-.18-.16L47,295.42c-2-1.83-5-4-8.56-4Z"/><line class="cls-6" x1="265.65" y1="110.92" x2="268.13" y2="118.95"/><line class="cls-8" x1="3" y1="377.16" x2="1612.98" y2="377.16"/><path class="cls-5" d="M466.46,216.26a36.14,36.14,0,0,1,7.3,4.53,32.23,32.23,0,0,1,4.4,4.53"/><line class="cls-5" x1="485.27" y1="170.68" x2="492.98" y2="169"/><path class="cls-5" d="M508.74,169s7.12-.7,16.77,5.34c8.61,5.39,10.29,15.76,10.29,15.76"/><path class="cls-5" d="M581.07,168.52c.25.09-2.81-.92-6.43-1.78a52.7,52.7,0,0,0-5.58-.92"/><path class="cls-5" d="M609.32,201.31s-2.73-.5-4.15-.67-3.81-.34-3.81-.34"/><line class="cls-5" x1="377.99" y1="313.72" x2="384.59" y2="311.46"/><path class="cls-16" d="M305.91,170.24s1.49,5.68-.45,9.75a20.52,20.52,0,0,1-6,6.92"/><path class="cls-16" d="M315.72,179.46a14,14,0,0,1-1.32,5.64,21.42,21.42,0,0,1-2.56,3.31"/><path class="cls-17" d="M408.3,163.35a6.07,6.07,0,1,0-6.29,4.23,6.07,6.07,0,1,0,6.29-4.23Z"/><path class="cls-17" d="M419.92,159.09a6.07,6.07,0,1,0-7.18,2.42,6.07,6.07,0,1,0,7.18-2.42Z"/><line class="cls-5" x1="404.27" y1="148.87" x2="416.61" y2="175.6"/><path class="cls-18" d="M619.57,265a6.07,6.07,0,1,0-7.29-2.08,6.07,6.07,0,1,0,7.29,2.08Z"/><path class="cls-18" d="M630.32,271.13a6.07,6.07,0,1,0-6.48-3.93,6.07,6.07,0,1,0,6.48,3.93Z"/><line class="cls-5" x1="628.03" y1="252.58" x2="615.56" y2="279.26"/><path class="cls-4" d="M234.07,69a14.11,14.11,0,0,1-3.49,1.08,19,19,0,0,1-6.13-.24"/><path class="cls-18" d="M224.17,42.29a13.87,13.87,0,0,0-7.25,4.21,14.88,14.88,0,0,0-3,6.55s-8.88-3.23-12.47-9.59-3.18-9.35-3.18-9.35l7.18-4.2s7.74-6.1,11.53-2.71S224.17,42.29,224.17,42.29Z"/><circle class="cls-3" cx="228.31" cy="55.66" r="4.09"/><path class="cls-6" d="M135.13,61.86s-31,19-24.82,24.95c7.67,7.3,68.54-35.24,68.54-35.24Z"/><path class="cls-13" d="M219.69,31.06S191.89,48.6,165.52,57s-36,9.36-36,9.36S117,26.17,154.33,10.72C206.59-10.88,219.69,31.06,219.69,31.06Z"/><circle class="cls-8" cx="147.24" cy="42.06" r="8.83"/><line class="cls-8" x1="159.29" y1="3" x2="161.03" y2="7.84"/></g></g></svg>